<ttFont>
<head>
    <!-- Most of this table will be recalculated by the compiler -->
    <tableVersion value="1.0"/>
    <fontRevision value="1.301"/>
    <checkSumAdjustment value="0xf2566bfe"/>
    <magicNumber value="0x5f0f3cf5"/>
    <flags value="00000000 00001011"/>
    <unitsPerEm value="1000"/>
    <created value="Fri Jun  2 00:41:00 2006"/>
    <modified value="Thu Mar  6 18:35:57 2014"/>
    <xMin value="-57"/>
    <yMin value="-247"/>
    <xMax value="725"/>
    <yMax value="1031"/>
    <macStyle value="00000000 00000000"/>
    <lowestRecPPEM value="9"/>
    <fontDirectionHint value="2"/>
    <indexToLocFormat value="0"/>
    <glyphDataFormat value="0"/>
  </head>
    <TTGlyph name="A" xMin="5" yMin="0" xMax="393" yMax="740">
      <contour>
        <pt x="321" y="0" on="1"/>
        <pt x="278" y="187" on="1"/>
        <pt x="118" y="187" on="1"/>
        <pt x="75" y="0" on="1"/>
        <pt x="5" y="0" on="1"/>
        <pt x="183" y="740" on="1"/>
        <pt x="216" y="740" on="1"/>
        <pt x="393" y="0" on="1"/>
      </contour>
      <contour>
        <pt x="198" y="562" on="1"/>
        <pt x="133" y="250" on="1"/>
        <pt x="263" y="250" on="1"/>
      </contour>
    </TTGlyph>
    <TTGlyph name="AE" xMin="5" yMin="0" xMax="535" yMax="733">
      <contour>
        <pt x="268" y="0" on="1"/>
        <pt x="268" y="187" on="1"/>
        <pt x="135" y="187" on="1"/>
        <pt x="75" y="0" on="1"/>
        <pt x="5" y="0" on="1"/>
        <pt x="245" y="733" on="1"/>
        <pt x="535" y="733" on="1"/>
        <pt x="535" y="667" on="1"/>
        <pt x="338" y="667" on="1"/>
        <pt x="338" y="410" on="1"/>
        <pt x="522" y="410" on="1"/>
        <pt x="522" y="344" on="1"/>
        <pt x="338" y="344" on="1"/>
        <pt x="338" y="66" on="1"/>
        <pt x="535" y="66" on="1"/>
        <pt x="535" y="0" on="1"/>
      </contour>
      <contour>
        <pt x="268" y="603" on="1"/>
        <pt x="155" y="250" on="1"/>
        <pt x="268" y="250" on="1"/>
      </contour>
    </TTGlyph>
    <TTGlyph name="AEacute" xMin="5" yMin="0" xMax="535" yMax="900">
      <component glyphName="AE" x="0" y="0" flags="0x204"/>
      <component glyphName="acute" x="204" y="280" flags="0x4"/>
    </TTGlyph>
    <TTGlyph name="Aacute" xMin="5" yMin="0" xMax="393" yMax="910">
      <component glyphName="A" x="0" y="0" flags="0x204"/>
      <component glyphName="acute" x="45" y="290" flags="0x4"/>
    </TTGlyph>
    <TTGlyph name="Abreve" xMin="5" yMin="0" xMax="393" yMax="880">
      <component glyphName="A" x="0" y="0" flags="0x204"/>
      <component glyphName="breve" x="0" y="290" flags="0x4"/>
    </TTGlyph>
    <TTGlyph name="Acircumflex" xMin="5" yMin="0" xMax="393" yMax="909">
      <component glyphName="A" x="0" y="0" flags="0x204"/>
      <component glyphName="circumflex" x="-2" y="290" flags="0x4"/>
    </TTGlyph>
    <TTGlyph name="Adieresis" xMin="5" yMin="0" xMax="393" yMax="865">
      <component glyphName="A" x="0" y="0" flags="0x204"/>
      <component glyphName="dieresis" x="0" y="290" flags="0x4"/>
    </TTGlyph>
    <TTGlyph name="Agrave" xMin="5" yMin="0" xMax="393" yMax="910">
      <component glyphName="A" x="0" y="0" flags="0x204"/>
      <component glyphName="grave" x="-55" y="290" flags="0x4"/>
    </TTGlyph>
    <TTGlyph name="Amacron" xMin="5" yMin="0" xMax="393" yMax="840">
      <component glyphName="A" x="0" y="0" flags="0x204"/>
      <component glyphName="macron" x="0" y="290" flags="0x4"/>
    </TTGlyph>
    <TTGlyph name="Aogonek" xMin="5" yMin="-188" xMax="393" yMax="740">
      <contour>
        <pt x="391" y="-161" on="1"/>
        <pt x="381" y="-172" on="0"/>
        <pt x="351" y="-188" on="0"/>
        <pt x="331" y="-188" on="1"/>
        <pt x="302" y="-188" on="0"/>
        <pt x="268" y="-150" on="0"/>
        <pt x="268" y="-118" on="1"/>
        <pt x="268" y="-93" on="0"/>
        <pt x="289" y="-41" on="0"/>
        <pt x="321" y="1" on="1"/>
        <pt x="278" y="187" on="1"/>
        <pt x="118" y="187" on="1"/>
        <pt x="75" y="0" on="1"/>
        <pt x="5" y="0" on="1"/>
        <pt x="183" y="740" on="1"/>
        <pt x="216" y="740" on="1"/>
        <pt x="393" y="0" on="1"/>
        <pt x="360" y="0" on="1"/>
        <pt x="334" y="-38" on="0"/>
        <pt x="318" y="-88" on="0"/>
        <pt x="318" y="-105" on="1"/>
        <pt x="318" y="-122" on="0"/>
        <pt x="333" y="-140" on="0"/>
        <pt x="345" y="-140" on="1"/>
        <pt x="353" y="-140" on="0"/>
        <pt x="369" y="-134" on="0"/>
        <pt x="374" y="-129" on="1"/>
      </contour>
      <contour>
        <pt x="198" y="562" on="1"/>
        <pt x="133" y="250" on="1"/>
        <pt x="263" y="250" on="1"/>
      </contour>
    </TTGlyph>
    <TTGlyph name="Aring" xMin="5" yMin="0" xMax="393" yMax="868">
      <contour>
        <pt x="289" y="784" on="1"/>
        <pt x="289" y="755" on="0"/>
        <pt x="256" y="710" on="0"/>
        <pt x="225" y="702" on="1"/>
        <pt x="393" y="0" on="1"/>
        <pt x="321" y="0" on="1"/>
        <pt x="278" y="187" on="1"/>
        <pt x="118" y="187" on="1"/>
        <pt x="75" y="0" on="1"/>
        <pt x="5" y="0" on="1"/>
        <pt x="174" y="703" on="1"/>
        <pt x="145" y="711" on="0"/>
        <pt x="113" y="756" on="0"/>
        <pt x="113" y="784" on="1"/>
        <pt x="113" y="818" on="0"/>
        <pt x="159" y="868" on="0"/>
        <pt x="201" y="868" on="1"/>
        <pt x="243" y="868" on="0"/>
        <pt x="289" y="818" on="0"/>
      </contour>
      <contour>
        <pt x="198" y="562" on="1"/>
        <pt x="133" y="250" on="1"/>
        <pt x="263" y="250" on="1"/>
      </contour>
      <contour>
        <pt x="245" y="785" on="1"/>
        <pt x="245" y="806" on="0"/>
        <pt x="221" y="833" on="0"/>
        <pt x="201" y="833" on="1"/>
        <pt x="181" y="833" on="0"/>
        <pt x="157" y="806" on="0"/>
        <pt x="157" y="785" on="1"/>
        <pt x="157" y="762" on="0"/>
        <pt x="181" y="735" on="0"/>
        <pt x="201" y="735" on="1"/>
        <pt x="221" y="735" on="0"/>
        <pt x="245" y="762" on="0"/>
      </contour>
    </TTGlyph>
    <TTGlyph name="Aringacute" xMin="5" yMin="0" xMax="393" yMax="1031">
      <component glyphName="acute" x="46" y="411" flags="0x4"/>
      <component glyphName="Aring" x="0" y="0" flags="0x4"/>
    </TTGlyph>
    <TTGlyph name="Atilde" xMin="5" yMin="0" xMax="393" yMax="866">
      <component glyphName="A" x="0" y="0" flags="0x204"/>
      <component glyphName="tilde" x="0" y="290" flags="0x4"/>
    </TTGlyph>
    <TTGlyph name="B" xMin="48" yMin="-5" xMax="359" yMax="738">
      <contour>
        <pt x="359" y="199" on="1"/>
        <pt x="359" y="103" on="0"/>
        <pt x="247" y="-5" on="0"/>
        <pt x="148" y="-5" on="1"/>
        <pt x="137" y="-5" on="0"/>
        <pt x="109" y="-4" on="0"/>
        <pt x="80" y="-2" on="0"/>
        <pt x="55" y="1" on="0"/>
        <pt x="48" y="2" on="1"/>
        <pt x="48" y="731" on="1"/>
        <pt x="74" y="736" on="0"/>
        <pt x="131" y="738" on="0"/>
        <pt x="152" y="738" on="1"/>
        <pt x="204" y="738" on="0"/>
        <pt x="278" y="706" on="0"/>
        <pt x="326" y="653" on="0"/>
        <pt x="348" y="585" on="0"/>
        <pt x="348" y="550" on="1"/>
        <pt x="348" y="492" on="0"/>
        <pt x="301" y="402" on="0"/>
        <pt x="250" y="376" on="1"/>
        <pt x="306" y="354" on="0"/>
        <pt x="359" y="258" on="0"/>
      </contour>
      <contour>
        <pt x="278" y="540" on="1"/>
        <pt x="278" y="602" on="0"/>
        <pt x="211" y="674" on="0"/>
        <pt x="154" y="674" on="1"/>
        <pt x="147" y="674" on="0"/>
        <pt x="126" y="673" on="0"/>
        <pt x="118" y="672" on="1"/>
        <pt x="118" y="406" on="1"/>
        <pt x="124" y="405" on="0"/>
        <pt x="144" y="404" on="0"/>
        <pt x="156" y="404" on="1"/>
        <pt x="184" y="404" on="0"/>
        <pt x="230" y="425" on="0"/>
        <pt x="261" y="461" on="0"/>
        <pt x="278" y="511" on="0"/>
      </contour>
      <contour>
        <pt x="289" y="207" on="1"/>
        <pt x="289" y="236" on="0"/>
        <pt x="270" y="287" on="0"/>
        <pt x="235" y="325" on="0"/>
        <pt x="187" y="347" on="0"/>
        <pt x="157" y="347" on="1"/>
        <pt x="149" y="347" on="0"/>
        <pt x="125" y="346" on="0"/>
        <pt x="118" y="345" on="1"/>
        <pt x="118" y="63" on="1"/>
        <pt x="127" y="62" on="0"/>
        <pt x="153" y="60" on="0"/>
        <pt x="164" y="60" on="1"/>
        <pt x="189" y="60" on="0"/>
        <pt x="234" y="78" on="0"/>
        <pt x="268" y="114" on="0"/>
        <pt x="289" y="169" on="0"/>
      </contour>
    </TTGlyph>
    <TTGlyph name="C" xMin="34" yMin="-11" xMax="349" yMax="744">
      <contour>
        <pt x="346" y="30" on="1"/>
        <pt x="293" y="-11" on="0"/>
        <pt x="239" y="-11" on="1"/>
        <pt x="197" y="-11" on="0"/>
        <pt x="123" y="35" on="0"/>
        <pt x="67" y="128" on="0"/>
        <pt x="34" y="269" on="0"/>
        <pt x="34" y="363" on="1"/>
        <pt x="34" y="449" on="0"/>
        <pt x="65" y="590" on="0"/>
        <pt x="119" y="690" on="0"/>
        <pt x="194" y="744" on="0"/>
        <pt x="239" y="744" on="1"/>
        <pt x="272" y="744" on="0"/>
        <pt x="322" y="725" on="0"/>
        <pt x="349" y="704" on="1"/>
        <pt x="318" y="647" on="1"/>
        <pt x="298" y="663" on="0"/>
        <pt x="259" y="679" on="0"/>
        <pt x="234" y="679" on="1"/>
        <pt x="207" y="679" on="0"/>
        <pt x="161" y="637" on="0"/>
        <pt x="126" y="558" on="0"/>
        <pt x="106" y="443" on="0"/>
        <pt x="106" y="370" on="1"/>
        <pt x="106" y="289" on="0"/>
        <pt x="129" y="170" on="0"/>
        <pt x="166" y="92" on="0"/>
        <pt x="215" y="54" on="0"/>
        <pt x="242" y="54" on="1"/>
        <pt x="263" y="54" on="0"/>
        <pt x="301" y="72" on="0"/>
        <pt x="318" y="86" on="1"/>
        <pt x="346" y="30" on="1"/>
      </contour>
    </TTGlyph>
    <TTGlyph name="Cacute" xMin="34" yMin="-11" xMax="352" yMax="910">
      <component glyphName="C" x="0" y="0" flags="0x204"/>
      <component glyphName="acute" x="73" y="290" flags="0x4"/>
    </TTGlyph>
    <TTGlyph name="Ccaron" xMin="34" yMin="-11" xMax="349" yMax="905">
      <component glyphName="C" x="0" y="0" flags="0x204"/>
      <component glyphName="caron" x="29" y="290" flags="0x4"/>
    </TTGlyph>
    <TTGlyph name="Ccedilla" xMin="34" yMin="-179" xMax="349" yMax="744">
      <contour>
        <pt x="291" y="-109" on="1"/>
        <pt x="291" y="-138" on="0"/>
        <pt x="253" y="-179" on="0"/>
        <pt x="214" y="-179" on="1"/>
        <pt x="176" y="-179" on="0"/>
        <pt x="132" y="-153" on="1"/>
        <pt x="149" y="-117" on="1"/>
        <pt x="167" y="-129" on="0"/>
        <pt x="199" y="-139" on="0"/>
        <pt x="214" y="-139" on="1"/>
        <pt x="228" y="-139" on="0"/>
        <pt x="246" y="-123" on="0"/>
        <pt x="246" y="-111" on="1"/>
        <pt x="246" y="-97" on="0"/>
        <pt x="213" y="-73" on="0"/>
        <pt x="173" y="-70" on="1"/>
        <pt x="171" y="-64" on="1"/>
        <pt x="187" y="-1" on="1"/>
        <pt x="154" y="11" on="0"/>
        <pt x="98" y="69" on="0"/>
        <pt x="57" y="160" on="0"/>
        <pt x="34" y="284" on="0"/>
        <pt x="34" y="363" on="1"/>
        <pt x="34" y="449" on="0"/>
        <pt x="65" y="590" on="0"/>
        <pt x="119" y="690" on="0"/>
        <pt x="194" y="744" on="0"/>
        <pt x="239" y="744" on="1"/>
        <pt x="272" y="744" on="0"/>
        <pt x="322" y="725" on="0"/>
        <pt x="349" y="704" on="1"/>
        <pt x="318" y="647" on="1"/>
        <pt x="298" y="663" on="0"/>
        <pt x="259" y="679" on="0"/>
        <pt x="234" y="679" on="1"/>
        <pt x="207" y="679" on="0"/>
        <pt x="161" y="637" on="0"/>
        <pt x="126" y="558" on="0"/>
        <pt x="106" y="443" on="0"/>
        <pt x="106" y="370" on="1"/>
        <pt x="106" y="289" on="0"/>
        <pt x="129" y="170" on="0"/>
        <pt x="166" y="92" on="0"/>
        <pt x="215" y="54" on="0"/>
        <pt x="242" y="54" on="1"/>
        <pt x="263" y="54" on="0"/>
        <pt x="301" y="72" on="0"/>
        <pt x="318" y="86" on="1"/>
        <pt x="346" y="30" on="1"/>
        <pt x="293" y="-11" on="0"/>
        <pt x="239" y="-11" on="1"/>
        <pt x="234" y="-11" on="0"/>
        <pt x="227" y="-10" on="0"/>
        <pt x="222" y="-10" on="1"/>
        <pt x="215" y="-37" on="1"/>
        <pt x="259" y="-46" on="0"/>
        <pt x="291" y="-86" on="0"/>
      </contour>
    </TTGlyph>
    <TTGlyph name="Cdotaccent" xMin="34" yMin="-11" xMax="349" yMax="866">
      <component glyphName="C" x="0" y="0" flags="0x204"/>
      <component glyphName="dotaccent" x="27" y="290" flags="0x4"/>
    </TTGlyph>
    <TTGlyph name="D" xMin="55" yMin="-6" xMax="401" yMax="739">
      <contour>
        <pt x="401" y="368" on="1"/>
        <pt x="401" y="289" on="0"/>
        <pt x="368" y="153" on="0"/>
        <pt x="304" y="52" on="0"/>
        <pt x="209" y="-6" on="0"/>
        <pt x="147" y="-6" on="1"/>
        <pt x="124" y="-6" on="0"/>
        <pt x="78" y="-2" on="0"/>
        <pt x="55" y="1" on="1"/>
        <pt x="55" y="732" on="1"/>
        <pt x="78" y="736" on="0"/>
        <pt x="124" y="739" on="0"/>
        <pt x="147" y="739" on="1"/>
        <pt x="209" y="739" on="0"/>
        <pt x="304" y="682" on="0"/>
        <pt x="368" y="582" on="0"/>
        <pt x="401" y="447" on="0"/>
      </contour>
      <contour>
        <pt x="329" y="368" on="1"/>
        <pt x="329" y="435" on="0"/>
        <pt x="305" y="548" on="0"/>
        <pt x="260" y="629" on="0"/>
        <pt x="193" y="675" on="0"/>
        <pt x="151" y="675" on="1"/>
        <pt x="144" y="675" on="0"/>
        <pt x="130" y="674" on="0"/>
        <pt x="125" y="673" on="1"/>
        <pt x="125" y="60" on="1"/>
        <pt x="131" y="59" on="0"/>
        <pt x="145" y="58" on="0"/>
        <pt x="151" y="58" on="1"/>
        <pt x="236" y="58" on="0"/>
        <pt x="329" y="218" on="0"/>
      </contour>
    </TTGlyph>
    <TTGlyph name="Dcaron" xMin="55" yMin="-6" xMax="401" yMax="895">
      <component glyphName="D" x="0" y="0" flags="0x204"/>
      <component glyphName="caron" x="1" y="280" flags="0x4"/>
    </TTGlyph>
    <TTGlyph name="Dcroat" xMin="29" yMin="-6" xMax="411" yMax="739">
      <component glyphName="Eth" x="0" y="0" flags="0x204"/>
    </TTGlyph>
    <TTGlyph name="E" xMin="55" yMin="0" xMax="322" yMax="733">
      <contour>
        <pt x="55" y="0" on="1"/>
        <pt x="55" y="733" on="1"/>
        <pt x="322" y="733" on="1"/>
        <pt x="322" y="667" on="1"/>
        <pt x="125" y="667" on="1"/>
        <pt x="125" y="410" on="1"/>
        <pt x="309" y="410" on="1"/>
        <pt x="309" y="344" on="1"/>
        <pt x="125" y="344" on="1"/>
        <pt x="125" y="66" on="1"/>
        <pt x="322" y="66" on="1"/>
        <pt x="322" y="0" on="1"/>
      </contour>
    </TTGlyph>
    <TTGlyph name="Eacute" xMin="55" yMin="0" xMax="322" yMax="900">
      <component glyphName="E" x="0" y="0" flags="0x204"/>
      <component glyphName="acute" x="34" y="280" flags="0x4"/>
    </TTGlyph>
    <TTGlyph name="Ebreve" xMin="55" yMin="0" xMax="322" yMax="870">
      <component glyphName="E" x="0" y="0" flags="0x204"/>
      <component glyphName="breve" x="-11" y="280" flags="0x4"/>
    </TTGlyph>
    <TTGlyph name="Ecaron" xMin="55" yMin="0" xMax="322" yMax="895">
      <component glyphName="E" x="0" y="0" flags="0x204"/>
      <component glyphName="caron" x="-9" y="280" flags="0x4"/>
    </TTGlyph>
    <TTGlyph name="Ecircumflex" xMin="55" yMin="0" xMax="322" yMax="899">
      <component glyphName="E" x="0" y="0" flags="0x204"/>
      <component glyphName="circumflex" x="-13" y="280" flags="0x4"/>
    </TTGlyph>
    <TTGlyph name="Edieresis" xMin="55" yMin="0" xMax="322" yMax="855">
      <component glyphName="E" x="0" y="0" flags="0x204"/>
      <component glyphName="dieresis" x="-11" y="280" flags="0x4"/>
    </TTGlyph>
    <TTGlyph name="Edotaccent" xMin="55" yMin="0" xMax="322" yMax="856">
      <component glyphName="E" x="0" y="0" flags="0x204"/>
      <component glyphName="dotaccent" x="-11" y="280" flags="0x4"/>
    </TTGlyph>
    <TTGlyph name="Egrave" xMin="55" yMin="0" xMax="322" yMax="900">
      <component glyphName="E" x="0" y="0" flags="0x204"/>
      <component glyphName="grave" x="-66" y="280" flags="0x4"/>
    </TTGlyph>
    <TTGlyph name="Emacron" xMin="55" yMin="0" xMax="322" yMax="830">
      <component glyphName="E" x="0" y="0" flags="0x204"/>
      <component glyphName="macron" x="-11" y="280" flags="0x4"/>
    </TTGlyph>
    <TTGlyph name="Eogonek" xMin="55" yMin="-188" xMax="322" yMax="733">
      <contour>
        <pt x="322" y="-161" on="1"/>
        <pt x="312" y="-172" on="0"/>
        <pt x="282" y="-188" on="0"/>
        <pt x="262" y="-188" on="1"/>
        <pt x="233" y="-188" on="0"/>
        <pt x="199" y="-150" on="0"/>
        <pt x="199" y="-118" on="1"/>
        <pt x="199" y="-94" on="0"/>
        <pt x="219" y="-41" on="0"/>
        <pt x="251" y="0" on="1"/>
        <pt x="55" y="0" on="1"/>
        <pt x="55" y="733" on="1"/>
        <pt x="322" y="733" on="1"/>
        <pt x="322" y="667" on="1"/>
        <pt x="125" y="667" on="1"/>
        <pt x="125" y="410" on="1"/>
        <pt x="309" y="410" on="1"/>
        <pt x="309" y="344" on="1"/>
        <pt x="125" y="344" on="1"/>
        <pt x="125" y="66" on="1"/>
        <pt x="322" y="66" on="1"/>
        <pt x="322" y="0" on="1"/>
        <pt x="291" y="0" on="1"/>
        <pt x="265" y="-38" on="0"/>
        <pt x="249" y="-88" on="0"/>
        <pt x="249" y="-105" on="1"/>
        <pt x="249" y="-122" on="0"/>
        <pt x="264" y="-140" on="0"/>
        <pt x="276" y="-140" on="1"/>
        <pt x="284" y="-140" on="0"/>
        <pt x="300" y="-134" on="0"/>
        <pt x="305" y="-129" on="1"/>
        <pt x="322" y="-161" on="1"/>
      </contour>
    </TTGlyph>
    <TTGlyph name="Eth" xMin="29" yMin="-6" xMax="411" yMax="739">
      <contour>
        <pt x="411" y="368" on="1"/>
        <pt x="411" y="289" on="0"/>
        <pt x="378" y="153" on="0"/>
        <pt x="314" y="52" on="0"/>
        <pt x="219" y="-6" on="0"/>
        <pt x="157" y="-6" on="1"/>
        <pt x="134" y="-6" on="0"/>
        <pt x="88" y="-2" on="0"/>
        <pt x="65" y="1" on="1"/>
        <pt x="65" y="340" on="1"/>
        <pt x="29" y="340" on="1"/>
        <pt x="29" y="404" on="1"/>
        <pt x="65" y="404" on="1"/>
        <pt x="65" y="732" on="1"/>
        <pt x="88" y="736" on="0"/>
        <pt x="134" y="739" on="0"/>
        <pt x="157" y="739" on="1"/>
        <pt x="219" y="739" on="0"/>
        <pt x="314" y="682" on="0"/>
        <pt x="378" y="582" on="0"/>
        <pt x="411" y="447" on="0"/>
      </contour>
      <contour>
        <pt x="339" y="368" on="1"/>
        <pt x="339" y="435" on="0"/>
        <pt x="315" y="548" on="0"/>
        <pt x="270" y="629" on="0"/>
        <pt x="203" y="675" on="0"/>
        <pt x="161" y="675" on="1"/>
        <pt x="154" y="675" on="0"/>
        <pt x="140" y="674" on="0"/>
        <pt x="135" y="673" on="1"/>
        <pt x="135" y="404" on="1"/>
        <pt x="229" y="404" on="1"/>
        <pt x="229" y="340" on="1"/>
        <pt x="135" y="340" on="1"/>
        <pt x="135" y="60" on="1"/>
        <pt x="141" y="59" on="0"/>
        <pt x="155" y="58" on="0"/>
        <pt x="161" y="58" on="1"/>
        <pt x="246" y="58" on="0"/>
        <pt x="339" y="218" on="0"/>
      </contour>
    </TTGlyph>
    <TTGlyph name="Euro" xMin="7" yMin="-11" xMax="371" yMax="730">
      <contour>
        <pt x="7" y="412" on="1"/>
        <pt x="7" y="470" on="1"/>
        <pt x="64" y="470" on="1"/>
        <pt x="82" y="592" on="0"/>
        <pt x="187" y="730" on="0"/>
        <pt x="261" y="730" on="1"/>
        <pt x="294" y="730" on="0"/>
        <pt x="344" y="711" on="0"/>
        <pt x="371" y="690" on="1"/>
        <pt x="340" y="633" on="1"/>
        <pt x="320" y="649" on="0"/>
        <pt x="281" y="665" on="0"/>
        <pt x="256" y="665" on="1"/>
        <pt x="213" y="665" on="0"/>
        <pt x="149" y="564" on="0"/>
        <pt x="135" y="470" on="1"/>
        <pt x="315" y="470" on="1"/>
        <pt x="315" y="412" on="1"/>
        <pt x="129" y="412" on="1"/>
        <pt x="128" y="400" on="0"/>
        <pt x="128" y="376" on="0"/>
        <pt x="128" y="363" on="1"/>
        <pt x="128" y="347" on="0"/>
        <pt x="129" y="318" on="0"/>
        <pt x="129" y="304" on="1"/>
        <pt x="315" y="304" on="1"/>
        <pt x="315" y="246" on="1"/>
        <pt x="136" y="246" on="1"/>
        <pt x="141" y="198" on="0"/>
        <pt x="166" y="126" on="0"/>
        <pt x="201" y="78" on="0"/>
        <pt x="243" y="54" on="0"/>
        <pt x="264" y="54" on="1"/>
        <pt x="285" y="54" on="0"/>
        <pt x="323" y="72" on="0"/>
        <pt x="340" y="86" on="1"/>
        <pt x="368" y="30" on="1"/>
        <pt x="315" y="-11" on="0"/>
        <pt x="261" y="-11" on="1"/>
        <pt x="226" y="-11" on="0"/>
        <pt x="162" y="20" on="0"/>
        <pt x="109" y="84" on="0"/>
        <pt x="72" y="180" on="0"/>
        <pt x="63" y="246" on="1"/>
        <pt x="7" y="246" on="1"/>
        <pt x="7" y="304" on="1"/>
        <pt x="57" y="304" on="1"/>
        <pt x="56" y="317" on="0"/>
        <pt x="56" y="342" on="0"/>
        <pt x="56" y="356" on="1"/>
        <pt x="56" y="370" on="0"/>
        <pt x="57" y="398" on="0"/>
        <pt x="58" y="412" on="1"/>
      </contour>
    </TTGlyph>
    <TTGlyph name="Euro.lin" xMin="7" yMin="-11" xMax="371" yMax="730">
      <contour>
        <pt x="7" y="412" on="1"/>
        <pt x="7" y="470" on="1"/>
        <pt x="64" y="470" on="1"/>
        <pt x="82" y="592" on="0"/>
        <pt x="187" y="730" on="0"/>
        <pt x="261" y="730" on="1"/>
        <pt x="294" y="730" on="0"/>
        <pt x="344" y="711" on="0"/>
        <pt x="371" y="690" on="1"/>
        <pt x="340" y="633" on="1"/>
        <pt x="320" y="649" on="0"/>
        <pt x="281" y="665" on="0"/>
        <pt x="256" y="665" on="1"/>
        <pt x="213" y="665" on="0"/>
        <pt x="149" y="564" on="0"/>
        <pt x="135" y="470" on="1"/>
        <pt x="315" y="470" on="1"/>
        <pt x="315" y="412" on="1"/>
        <pt x="129" y="412" on="1"/>
        <pt x="128" y="400" on="0"/>
        <pt x="128" y="376" on="0"/>
        <pt x="128" y="363" on="1"/>
        <pt x="128" y="347" on="0"/>
        <pt x="129" y="318" on="0"/>
        <pt x="129" y="304" on="1"/>
        <pt x="315" y="304" on="1"/>
        <pt x="315" y="246" on="1"/>
        <pt x="136" y="246" on="1"/>
        <pt x="141" y="198" on="0"/>
        <pt x="166" y="126" on="0"/>
        <pt x="201" y="78" on="0"/>
        <pt x="243" y="54" on="0"/>
        <pt x="264" y="54" on="1"/>
        <pt x="285" y="54" on="0"/>
        <pt x="323" y="72" on="0"/>
        <pt x="340" y="86" on="1"/>
        <pt x="368" y="30" on="1"/>
        <pt x="315" y="-11" on="0"/>
        <pt x="261" y="-11" on="1"/>
        <pt x="226" y="-11" on="0"/>
        <pt x="162" y="20" on="0"/>
        <pt x="109" y="84" on="0"/>
        <pt x="72" y="180" on="0"/>
        <pt x="63" y="246" on="1"/>
        <pt x="7" y="246" on="1"/>
        <pt x="7" y="304" on="1"/>
        <pt x="57" y="304" on="1"/>
        <pt x="56" y="317" on="0"/>
        <pt x="56" y="342" on="0"/>
        <pt x="56" y="356" on="1"/>
        <pt x="56" y="370" on="0"/>
        <pt x="57" y="398" on="0"/>
        <pt x="58" y="412" on="1"/>
      </contour>
    </TTGlyph>
    <TTGlyph name="F" xMin="55" yMin="0" xMax="312" yMax="733">
      <contour>
        <pt x="125" y="667" on="1"/>
        <pt x="125" y="410" on="1"/>
        <pt x="294" y="410" on="1"/>
        <pt x="294" y="344" on="1"/>
        <pt x="125" y="344" on="1"/>
        <pt x="125" y="0" on="1"/>
        <pt x="55" y="0" on="1"/>
        <pt x="55" y="733" on="1"/>
        <pt x="312" y="733" on="1"/>
        <pt x="312" y="667" on="1"/>
      </contour>
    </TTGlyph>
    <TTGlyph name="G" xMin="34" yMin="-11" xMax="372" yMax="744">
      <contour>
        <pt x="370" y="398" on="1"/>
        <pt x="370" y="27" on="1"/>
        <pt x="346" y="8" on="0"/>
        <pt x="284" y="-11" on="0"/>
        <pt x="251" y="-11" on="1"/>
        <pt x="200" y="-11" on="0"/>
        <pt x="119" y="40" on="0"/>
        <pt x="64" y="138" on="0"/>
        <pt x="34" y="278" on="0"/>
        <pt x="34" y="367" on="1"/>
        <pt x="34" y="455" on="0"/>
        <pt x="67" y="595" on="0"/>
        <pt x="125" y="692" on="0"/>
        <pt x="204" y="744" on="0"/>
        <pt x="251" y="744" on="1"/>
        <pt x="289" y="744" on="0"/>
        <pt x="350" y="713" on="0"/>
        <pt x="372" y="690" on="1"/>
        <pt x="333" y="636" on="1"/>
        <pt x="313" y="656" on="0"/>
        <pt x="277" y="679" on="0"/>
        <pt x="250" y="679" on="1"/>
        <pt x="221" y="679" on="0"/>
        <pt x="169" y="642" on="0"/>
        <pt x="130" y="567" on="0"/>
        <pt x="106" y="452" on="0"/>
        <pt x="106" y="373" on="1"/>
        <pt x="106" y="212" on="0"/>
        <pt x="185" y="54" on="0"/>
        <pt x="253" y="54" on="1"/>
        <pt x="270" y="54" on="0"/>
        <pt x="290" y="60" on="0"/>
        <pt x="300" y="65" on="1"/>
        <pt x="300" y="332" on="1"/>
        <pt x="205" y="332" on="1"/>
        <pt x="205" y="398" on="1"/>
      </contour>
    </TTGlyph>
    <TTGlyph name="G.alt" xMin="34" yMin="-11" xMax="378" yMax="744">
      <contour>
        <pt x="378" y="398" on="1"/>
        <pt x="378" y="306" on="0"/>
        <pt x="365" y="155" on="0"/>
        <pt x="329" y="48" on="0"/>
        <pt x="266" y="-11" on="0"/>
        <pt x="216" y="-11" on="1"/>
        <pt x="169" y="-11" on="0"/>
        <pt x="101" y="51" on="0"/>
        <pt x="56" y="156" on="0"/>
        <pt x="34" y="292" on="0"/>
        <pt x="34" y="367" on="1"/>
        <pt x="34" y="455" on="0"/>
        <pt x="61" y="595" on="0"/>
        <pt x="112" y="692" on="0"/>
        <pt x="184" y="744" on="0"/>
        <pt x="229" y="744" on="1"/>
        <pt x="267" y="744" on="0"/>
        <pt x="336" y="694" on="0"/>
        <pt x="356" y="654" on="1"/>
        <pt x="309" y="609" on="1"/>
        <pt x="289" y="641" on="0"/>
        <pt x="249" y="679" on="0"/>
        <pt x="224" y="679" on="1"/>
        <pt x="174" y="679" on="0"/>
        <pt x="106" y="530" on="0"/>
        <pt x="106" y="373" on="1"/>
        <pt x="106" y="293" on="0"/>
        <pt x="125" y="173" on="0"/>
        <pt x="156" y="92" on="0"/>
        <pt x="197" y="51" on="0"/>
        <pt x="219" y="51" on="1"/>
        <pt x="261" y="51" on="0"/>
        <pt x="309" y="182" on="0"/>
        <pt x="309" y="332" on="1"/>
        <pt x="195" y="332" on="1"/>
        <pt x="195" y="398" on="1"/>
      </contour>
    </TTGlyph>
    <TTGlyph name="Gbreve" xMin="34" yMin="-11" xMax="372" yMax="880">
      <component glyphName="G" x="0" y="0" flags="0x204"/>
      <component glyphName="breve" x="36" y="290" flags="0x4"/>
    </TTGlyph>
    <TTGlyph name="Gbreve.alt" xMin="34" yMin="-11" xMax="378" yMax="880">
      <component glyphName="G.alt" x="0" y="0" flags="0x204"/>
      <component glyphName="breve" x="21" y="290" flags="0x4"/>
    </TTGlyph>
    <TTGlyph name="Gcommaaccent" xMin="34" yMin="-247" xMax="372" yMax="744">
      <component glyphName="G" x="0" y="0" flags="0x204"/>
      <component glyphName="commaaccent" x="149" y="0" flags="0x4"/>
    </TTGlyph>
    <TTGlyph name="Gcommaaccent.alt" xMin="34" yMin="-247" xMax="378" yMax="744">
      <component glyphName="commaaccent" x="134" y="0" flags="0x4"/>
      <component glyphName="G.alt" x="0" y="0" flags="0x4"/>
    </TTGlyph>
    <TTGlyph name="Gdotaccent" xMin="34" yMin="-11" xMax="372" yMax="866">
      <component glyphName="G" x="0" y="0" flags="0x204"/>
      <component glyphName="dotaccent" x="36" y="290" flags="0x4"/>
    </TTGlyph>
    <TTGlyph name="Gdotaccent.alt" xMin="34" yMin="-11" xMax="378" yMax="866">
      <component glyphName="dotaccent" x="21" y="290" flags="0x4"/>
      <component glyphName="G.alt" x="0" y="0" flags="0x4"/>
    </TTGlyph>
    <TTGlyph name="H" xMin="55" yMin="0" xMax="390" yMax="733">
      <contour>
        <pt x="320" y="0" on="1"/>
        <pt x="320" y="340" on="1"/>
        <pt x="125" y="340" on="1"/>
        <pt x="125" y="0" on="1"/>
        <pt x="55" y="0" on="1"/>
        <pt x="55" y="733" on="1"/>
        <pt x="125" y="733" on="1"/>
        <pt x="125" y="406" on="1"/>
        <pt x="320" y="406" on="1"/>
        <pt x="320" y="733" on="1"/>
        <pt x="390" y="733" on="1"/>
        <pt x="390" y="0" on="1"/>
      </contour>
    </TTGlyph>
    <TTGlyph name="Hbar" xMin="5" yMin="0" xMax="440" yMax="733">
      <contour>
        <pt x="320" y="0" on="1"/>
        <pt x="320" y="340" on="1"/>
        <pt x="125" y="340" on="1"/>
        <pt x="125" y="0" on="1"/>
        <pt x="55" y="0" on="1"/>
        <pt x="55" y="551" on="1"/>
        <pt x="5" y="551" on="1"/>
        <pt x="5" y="604" on="1"/>
        <pt x="55" y="604" on="1"/>
        <pt x="55" y="733" on="1"/>
        <pt x="125" y="733" on="1"/>
        <pt x="125" y="604" on="1"/>
        <pt x="320" y="604" on="1"/>
        <pt x="320" y="733" on="1"/>
        <pt x="390" y="733" on="1"/>
        <pt x="390" y="604" on="1"/>
        <pt x="440" y="604" on="1"/>
        <pt x="440" y="551" on="1"/>
        <pt x="390" y="551" on="1"/>
        <pt x="390" y="0" on="1"/>
      </contour>
      <contour>
        <pt x="320" y="406" on="1"/>
        <pt x="320" y="551" on="1"/>
        <pt x="125" y="551" on="1"/>
        <pt x="125" y="406" on="1"/>
      </contour>
    </TTGlyph>
    <TTGlyph name="I" xMin="60" yMin="0" xMax="130" yMax="733">
      <contour>
        <pt x="60" y="0" on="1"/>
        <pt x="60" y="733" on="1"/>
        <pt x="130" y="733" on="1"/>
        <pt x="130" y="0" on="1"/>
      </contour>
    </TTGlyph>
    <TTGlyph name="Iacute" xMin="54" yMin="0" xMax="221" yMax="900">
      <component glyphName="I" x="0" y="0" flags="0x204"/>
      <component glyphName="acute" x="-58" y="280" flags="0x4"/>
    </TTGlyph>
    <TTGlyph name="Ibreve" xMin="2" yMin="0" xMax="190" yMax="870">
      <component glyphName="I" x="0" y="0" flags="0x204"/>
      <component glyphName="breve" x="-104" y="280" flags="0x4"/>
    </TTGlyph>
    <TTGlyph name="Icircumflex" xMin="-16" yMin="0" xMax="208" yMax="899">
      <component glyphName="I" x="0" y="0" flags="0x204"/>
      <component glyphName="circumflex" x="-106" y="280" flags="0x4"/>
    </TTGlyph>
    <TTGlyph name="Idieresis" xMin="-4" yMin="0" xMax="196" yMax="855">
      <component glyphName="I" x="0" y="0" flags="0x204"/>
      <component glyphName="dieresis" x="-104" y="280" flags="0x4"/>
    </TTGlyph>
    <TTGlyph name="Idotaccent" xMin="56" yMin="0" xMax="136" yMax="856">
      <component glyphName="I" x="0" y="0" flags="0x204"/>
      <component glyphName="dotaccent" x="-104" y="280" flags="0x4"/>
    </TTGlyph>
    <TTGlyph name="Igrave" xMin="-38" yMin="0" xMax="130" yMax="900">
      <component glyphName="I" x="0" y="0" flags="0x204"/>
      <component glyphName="grave" x="-159" y="280" flags="0x4"/>
    </TTGlyph>
    <TTGlyph name="Imacron" xMin="-8" yMin="0" xMax="200" yMax="830">
      <component glyphName="I" x="0" y="0" flags="0x204"/>
      <component glyphName="macron" x="-104" y="280" flags="0x4"/>
    </TTGlyph>
    <TTGlyph name="Iogonek" xMin="20" yMin="-189" xMax="143" yMax="733">
      <contour>
        <pt x="143" y="-162" on="1"/>
        <pt x="133" y="-173" on="0"/>
        <pt x="103" y="-189" on="0"/>
        <pt x="83" y="-189" on="1"/>
        <pt x="54" y="-189" on="0"/>
        <pt x="20" y="-151" on="0"/>
        <pt x="20" y="-119" on="1"/>
        <pt x="20" y="-94" on="0"/>
        <pt x="41" y="-42" on="0"/>
        <pt x="73" y="0" on="1"/>
        <pt x="60" y="0" on="1"/>
        <pt x="60" y="733" on="1"/>
        <pt x="130" y="733" on="1"/>
        <pt x="130" y="0" on="1"/>
        <pt x="113" y="0" on="1"/>
        <pt x="87" y="-38" on="0"/>
        <pt x="70" y="-89" on="0"/>
        <pt x="70" y="-106" on="1"/>
        <pt x="70" y="-123" on="0"/>
        <pt x="85" y="-141" on="0"/>
        <pt x="97" y="-141" on="1"/>
        <pt x="105" y="-141" on="0"/>
        <pt x="121" y="-135" on="0"/>
        <pt x="126" y="-130" on="1"/>
        <pt x="143" y="-162" on="1"/>
      </contour>
    </TTGlyph>
    <TTGlyph name="J" xMin="0" yMin="-11" xMax="238" yMax="736">
      <contour>
        <pt x="238" y="133" on="1"/>
        <pt x="238" y="67" on="0"/>
        <pt x="171" y="-11" on="0"/>
        <pt x="113" y="-11" on="1"/>
        <pt x="78" y="-11" on="0"/>
        <pt x="23" y="14" on="0"/>
        <pt x="0" y="32" on="1"/>
        <pt x="35" y="89" on="1"/>
        <pt x="53" y="74" on="0"/>
        <pt x="92" y="56" on="0"/>
        <pt x="112" y="56" on="1"/>
        <pt x="141" y="56" on="0"/>
        <pt x="168" y="101" on="0"/>
        <pt x="168" y="140" on="1"/>
        <pt x="168" y="736" on="1"/>
        <pt x="238" y="736" on="1"/>
      </contour>
    </TTGlyph>
    <TTGlyph name="K" xMin="55" yMin="0" xMax="380" yMax="733">
      <contour>
        <pt x="302" y="0" on="1"/>
        <pt x="125" y="363" on="1"/>
        <pt x="125" y="0" on="1"/>
        <pt x="55" y="0" on="1"/>
        <pt x="55" y="733" on="1"/>
        <pt x="125" y="733" on="1"/>
        <pt x="125" y="388" on="1"/>
        <pt x="299" y="733" on="1"/>
        <pt x="374" y="733" on="1"/>
        <pt x="190" y="382" on="1"/>
        <pt x="380" y="0" on="1"/>
      </contour>
    </TTGlyph>
    <TTGlyph name="Kcommaaccent" xMin="55" yMin="-237" xMax="380" yMax="733">
      <component glyphName="K" x="0" y="0" flags="0x204"/>
      <component glyphName="commaaccent" x="120" y="10" flags="0x4"/>
    </TTGlyph>
    <TTGlyph name="L" xMin="55" yMin="0" xMax="302" yMax="733">
      <contour>
        <pt x="55" y="0" on="1"/>
        <pt x="55" y="733" on="1"/>
        <pt x="125" y="733" on="1"/>
        <pt x="125" y="66" on="1"/>
        <pt x="302" y="66" on="1"/>
        <pt x="302" y="0" on="1"/>
      </contour>
    </TTGlyph>
    <TTGlyph name="Lacute" xMin="55" yMin="0" xMax="302" yMax="900">
      <component glyphName="L" x="0" y="0" flags="0x204"/>
      <component glyphName="acute" x="-55" y="280" flags="0x4"/>
    </TTGlyph>
    <TTGlyph name="Lcaron" xMin="55" yMin="0" xMax="302" yMax="734">
      <component glyphName="L" x="0" y="0" flags="0x204"/>
      <component glyphName="caron.alt" x="134" y="-5" flags="0x4"/>
    </TTGlyph>
    <TTGlyph name="Lcommaaccent" xMin="55" yMin="-247" xMax="302" yMax="733">
      <component glyphName="L" x="0" y="0" flags="0x204"/>
      <component glyphName="commaaccent" x="91" y="0" flags="0x4"/>
    </TTGlyph>
    <TTGlyph name="Ldot" xMin="55" yMin="0" xMax="302" yMax="733">
      <component glyphName="L" x="0" y="0" flags="0x204"/>
      <component glyphName="dotaccent" x="47" y="-169" flags="0x4"/>
    </TTGlyph>
    <TTGlyph name="Lslash" xMin="7" yMin="0" xMax="312" yMax="733">
      <contour>
        <pt x="65" y="0" on="1"/>
        <pt x="65" y="303" on="1"/>
        <pt x="7" y="277" on="1"/>
        <pt x="7" y="351" on="1"/>
        <pt x="65" y="377" on="1"/>
        <pt x="65" y="733" on="1"/>
        <pt x="135" y="733" on="1"/>
        <pt x="135" y="409" on="1"/>
        <pt x="232" y="453" on="1"/>
        <pt x="232" y="379" on="1"/>
        <pt x="135" y="335" on="1"/>
        <pt x="135" y="66" on="1"/>
        <pt x="312" y="66" on="1"/>
        <pt x="312" y="0" on="1"/>
      </contour>
    </TTGlyph>
    <TTGlyph name="M" xMin="47" yMin="0" xMax="453" yMax="736">
      <contour>
        <pt x="383" y="0" on="1"/>
        <pt x="378" y="484" on="1"/>
        <pt x="260" y="137" on="1"/>
        <pt x="243" y="137" on="1"/>
        <pt x="120" y="489" on="1"/>
        <pt x="116" y="0" on="1"/>
        <pt x="47" y="0" on="1"/>
        <pt x="64" y="735" on="1"/>
        <pt x="98" y="736" on="1"/>
        <pt x="253" y="288" on="1"/>
        <pt x="402" y="736" on="1"/>
        <pt x="435" y="735" on="1"/>
        <pt x="453" y="0" on="1"/>
      </contour>
    </TTGlyph>
    <TTGlyph name="M.alt" xMin="47" yMin="0" xMax="453" yMax="736">
      <contour>
        <pt x="383" y="0" on="1"/>
        <pt x="378" y="484" on="1"/>
        <pt x="260" y="137" on="1"/>
        <pt x="243" y="137" on="1"/>
        <pt x="120" y="489" on="1"/>
        <pt x="116" y="0" on="1"/>
        <pt x="47" y="0" on="1"/>
        <pt x="64" y="735" on="1"/>
        <pt x="98" y="736" on="1"/>
        <pt x="253" y="288" on="1"/>
        <pt x="402" y="736" on="1"/>
        <pt x="435" y="735" on="1"/>
        <pt x="453" y="0" on="1"/>
      </contour>
    </TTGlyph>
    <TTGlyph name="N" xMin="55" yMin="-2" xMax="391" yMax="735">
      <contour>
        <pt x="361" y="-2" on="1"/>
        <pt x="125" y="500" on="1"/>
        <pt x="125" y="0" on="1"/>
        <pt x="55" y="0" on="1"/>
        <pt x="55" y="733" on="1"/>
        <pt x="85" y="735" on="1"/>
        <pt x="321" y="235" on="1"/>
        <pt x="321" y="733" on="1"/>
        <pt x="391" y="733" on="1"/>
        <pt x="391" y="-1" on="1"/>
      </contour>
    </TTGlyph>
    <TTGlyph name="Nacute" xMin="55" yMin="-2" xMax="391" yMax="900">
      <component glyphName="N" x="0" y="0" flags="0x204"/>
      <component glyphName="acute" x="69" y="280" flags="0x4"/>
    </TTGlyph>
    <TTGlyph name="Ncaron" xMin="55" yMin="-2" xMax="391" yMax="895">
      <component glyphName="N" x="0" y="0" flags="0x204"/>
      <component glyphName="caron" x="25" y="280" flags="0x4"/>
    </TTGlyph>
    <TTGlyph name="Ncommaaccent" xMin="55" yMin="-237" xMax="391" yMax="735">
      <component glyphName="N" x="0" y="0" flags="0x204"/>
      <component glyphName="commaaccent" x="136" y="10" flags="0x4"/>
    </TTGlyph>
    <TTGlyph name="Ntilde" xMin="55" yMin="-2" xMax="391" yMax="856">
      <component glyphName="N" x="0" y="0" flags="0x204"/>
      <component glyphName="tilde" x="24" y="280" flags="0x4"/>
    </TTGlyph>
    <TTGlyph name="O" xMin="34" yMin="-11" xMax="412" yMax="744">
      <contour>
        <pt x="412" y="370" on="1"/>
        <pt x="412" y="301" on="0"/>
        <pt x="391" y="165" on="0"/>
        <pt x="345" y="56" on="0"/>
        <pt x="272" y="-11" on="0"/>
        <pt x="220" y="-11" on="1"/>
        <pt x="170" y="-11" on="0"/>
        <pt x="100" y="55" on="0"/>
        <pt x="55" y="162" on="0"/>
        <pt x="34" y="297" on="0"/>
        <pt x="34" y="366" on="1"/>
        <pt x="34" y="435" on="0"/>
        <pt x="55" y="570" on="0"/>
        <pt x="101" y="678" on="0"/>
        <pt x="174" y="744" on="0"/>
        <pt x="226" y="744" on="1"/>
        <pt x="276" y="744" on="0"/>
        <pt x="346" y="679" on="0"/>
        <pt x="391" y="573" on="0"/>
        <pt x="412" y="439" on="0"/>
      </contour>
      <contour>
        <pt x="340" y="368" on="1"/>
        <pt x="340" y="438" on="0"/>
        <pt x="323" y="553" on="0"/>
        <pt x="292" y="636" on="0"/>
        <pt x="249" y="682" on="0"/>
        <pt x="223" y="682" on="1"/>
        <pt x="197" y="682" on="0"/>
        <pt x="154" y="636" on="0"/>
        <pt x="123" y="553" on="0"/>
        <pt x="106" y="438" on="0"/>
        <pt x="106" y="368" on="1"/>
        <pt x="106" y="298" on="0"/>
        <pt x="123" y="182" on="0"/>
        <pt x="154" y="98" on="0"/>
        <pt x="197" y="51" on="0"/>
        <pt x="223" y="51" on="1"/>
        <pt x="249" y="51" on="0"/>
        <pt x="292" y="98" on="0"/>
        <pt x="323" y="182" on="0"/>
        <pt x="340" y="298" on="0"/>
      </contour>
    </TTGlyph>
    <TTGlyph name="OE" xMin="34" yMin="-7" xMax="577" yMax="738">
      <contour>
        <pt x="361" y="0" on="1"/>
        <pt x="341" y="-4" on="0"/>
        <pt x="305" y="-7" on="0"/>
        <pt x="288" y="-7" on="1"/>
        <pt x="226" y="-7" on="0"/>
        <pt x="131" y="50" on="0"/>
        <pt x="67" y="150" on="0"/>
        <pt x="34" y="285" on="0"/>
        <pt x="34" y="364" on="1"/>
        <pt x="34" y="443" on="0"/>
        <pt x="67" y="579" on="0"/>
        <pt x="131" y="680" on="0"/>
        <pt x="226" y="738" on="0"/>
        <pt x="288" y="738" on="1"/>
        <pt x="305" y="738" on="0"/>
        <pt x="345" y="735" on="0"/>
        <pt x="359" y="733" on="1"/>
        <pt x="577" y="733" on="1"/>
        <pt x="577" y="667" on="1"/>
        <pt x="380" y="667" on="1"/>
        <pt x="380" y="410" on="1"/>
        <pt x="564" y="410" on="1"/>
        <pt x="564" y="344" on="1"/>
        <pt x="380" y="344" on="1"/>
        <pt x="380" y="66" on="1"/>
        <pt x="577" y="66" on="1"/>
        <pt x="577" y="0" on="1"/>
      </contour>
      <contour>
        <pt x="310" y="672" on="1"/>
        <pt x="304" y="673" on="0"/>
        <pt x="290" y="674" on="0"/>
        <pt x="284" y="674" on="1"/>
        <pt x="199" y="674" on="0"/>
        <pt x="106" y="514" on="0"/>
        <pt x="106" y="364" on="1"/>
        <pt x="106" y="297" on="0"/>
        <pt x="130" y="184" on="0"/>
        <pt x="175" y="103" on="0"/>
        <pt x="242" y="57" on="0"/>
        <pt x="284" y="57" on="1"/>
        <pt x="291" y="57" on="0"/>
        <pt x="305" y="58" on="0"/>
        <pt x="310" y="59" on="1"/>
      </contour>
    </TTGlyph>
    <TTGlyph name="Oacute" xMin="34" yMin="-11" xMax="412" yMax="910">
      <component glyphName="O" x="0" y="0" flags="0x204"/>
      <component glyphName="acute" x="69" y="290" flags="0x4"/>
    </TTGlyph>
    <TTGlyph name="Obreve" xMin="34" yMin="-11" xMax="412" yMax="880">
      <component glyphName="O" x="0" y="0" flags="0x204"/>
      <component glyphName="breve" x="23" y="290" flags="0x4"/>
    </TTGlyph>
    <TTGlyph name="Ocircumflex" xMin="34" yMin="-11" xMax="412" yMax="909">
      <component glyphName="O" x="0" y="0" flags="0x204"/>
      <component glyphName="circumflex" x="21" y="290" flags="0x4"/>
    </TTGlyph>
    <TTGlyph name="Odieresis" xMin="34" yMin="-11" xMax="412" yMax="865">
      <component glyphName="O" x="0" y="0" flags="0x204"/>
      <component glyphName="dieresis" x="23" y="290" flags="0x4"/>
    </TTGlyph>
    <TTGlyph name="Ograve" xMin="34" yMin="-11" xMax="412" yMax="910">
      <component glyphName="O" x="0" y="0" flags="0x204"/>
      <component glyphName="grave" x="-31" y="290" flags="0x4"/>
    </TTGlyph>
    <TTGlyph name="Ohungarumlaut" xMin="34" yMin="-11" xMax="412" yMax="947">
      <component glyphName="O" x="0" y="0" flags="0x204"/>
      <component glyphName="hungarumlaut" x="51" y="290" flags="0x4"/>
    </TTGlyph>
    <TTGlyph name="Omacron" xMin="34" yMin="-11" xMax="412" yMax="840">
      <component glyphName="O" x="0" y="0" flags="0x204"/>
      <component glyphName="macron" x="23" y="290" flags="0x4"/>
    </TTGlyph>
    <TTGlyph name="Oslash" xMin="15" yMin="-11" xMax="427" yMax="744">
      <contour>
        <pt x="412" y="370" on="1"/>
        <pt x="412" y="301" on="0"/>
        <pt x="391" y="165" on="0"/>
        <pt x="345" y="56" on="0"/>
        <pt x="272" y="-11" on="0"/>
        <pt x="220" y="-11" on="1"/>
        <pt x="180" y="-11" on="0"/>
        <pt x="119" y="32" on="0"/>
        <pt x="97" y="69" on="1"/>
        <pt x="57" y="-11" on="1"/>
        <pt x="15" y="10" on="1"/>
        <pt x="71" y="123" on="1"/>
        <pt x="52" y="175" on="0"/>
        <pt x="34" y="301" on="0"/>
        <pt x="34" y="366" on="1"/>
        <pt x="34" y="435" on="0"/>
        <pt x="55" y="570" on="0"/>
        <pt x="101" y="678" on="0"/>
        <pt x="174" y="744" on="0"/>
        <pt x="226" y="744" on="1"/>
        <pt x="265" y="744" on="0"/>
        <pt x="324" y="704" on="0"/>
        <pt x="346" y="669" on="1"/>
        <pt x="385" y="744" on="1"/>
        <pt x="427" y="723" on="1"/>
        <pt x="373" y="616" on="1"/>
        <pt x="393" y="564" on="0"/>
        <pt x="412" y="436" on="0"/>
      </contour>
      <contour>
        <pt x="308" y="593" on="1"/>
        <pt x="293" y="635" on="0"/>
        <pt x="249" y="682" on="0"/>
        <pt x="223" y="682" on="1"/>
        <pt x="197" y="682" on="0"/>
        <pt x="154" y="636" on="0"/>
        <pt x="123" y="553" on="0"/>
        <pt x="106" y="438" on="0"/>
        <pt x="106" y="368" on="1"/>
        <pt x="106" y="282" on="0"/>
        <pt x="118" y="216" on="1"/>
      </contour>
      <contour>
        <pt x="340" y="368" on="1"/>
        <pt x="340" y="413" on="0"/>
        <pt x="333" y="491" on="0"/>
        <pt x="327" y="525" on="1"/>
        <pt x="136" y="147" on="1"/>
        <pt x="152" y="102" on="0"/>
        <pt x="195" y="51" on="0"/>
        <pt x="223" y="51" on="1"/>
        <pt x="249" y="51" on="0"/>
        <pt x="292" y="98" on="0"/>
        <pt x="323" y="182" on="0"/>
        <pt x="340" y="298" on="0"/>
      </contour>
    </TTGlyph>
    <TTGlyph name="Oslashacute" xMin="15" yMin="-11" xMax="427" yMax="910">
      <component glyphName="Oslash" x="0" y="0" flags="0x204"/>
      <component glyphName="acute" x="67" y="290" flags="0x4"/>
    </TTGlyph>
    <TTGlyph name="Otilde" xMin="34" yMin="-11" xMax="412" yMax="866">
      <component glyphName="O" x="0" y="0" flags="0x204"/>
      <component glyphName="tilde" x="24" y="290" flags="0x4"/>
    </TTGlyph>
    <TTGlyph name="P" xMin="55" yMin="0" xMax="366" yMax="739">
      <contour>
        <pt x="366" y="502" on="1"/>
        <pt x="366" y="457" on="0"/>
        <pt x="342" y="371" on="0"/>
        <pt x="291" y="305" on="0"/>
        <pt x="214" y="265" on="0"/>
        <pt x="162" y="265" on="1"/>
        <pt x="153" y="265" on="0"/>
        <pt x="135" y="266" on="0"/>
        <pt x="125" y="267" on="1"/>
        <pt x="125" y="0" on="1"/>
        <pt x="55" y="0" on="1"/>
        <pt x="55" y="732" on="1"/>
        <pt x="78" y="736" on="0"/>
        <pt x="127" y="739" on="0"/>
        <pt x="159" y="739" on="1"/>
        <pt x="213" y="739" on="0"/>
        <pt x="292" y="698" on="0"/>
        <pt x="342" y="631" on="0"/>
        <pt x="366" y="546" on="0"/>
      </contour>
      <contour>
        <pt x="294" y="500" on="1"/>
        <pt x="294" y="580" on="0"/>
        <pt x="223" y="675" on="0"/>
        <pt x="160" y="675" on="1"/>
        <pt x="152" y="675" on="0"/>
        <pt x="144" y="675" on="0"/>
        <pt x="138" y="674" on="0"/>
        <pt x="131" y="673" on="0"/>
        <pt x="125" y="673" on="1"/>
        <pt x="125" y="331" on="1"/>
        <pt x="134" y="330" on="0"/>
        <pt x="152" y="329" on="0"/>
        <pt x="160" y="329" on="1"/>
        <pt x="224" y="329" on="0"/>
        <pt x="294" y="420" on="0"/>
      </contour>
    </TTGlyph>
    <TTGlyph name="Q" xMin="34" yMin="-24" xMax="425" yMax="744">
      <contour>
        <pt x="376" y="-24" on="1"/>
        <pt x="328" y="43" on="1"/>
        <pt x="307" y="17" on="0"/>
        <pt x="253" y="-11" on="0"/>
        <pt x="220" y="-11" on="1"/>
        <pt x="170" y="-11" on="0"/>
        <pt x="100" y="55" on="0"/>
        <pt x="55" y="162" on="0"/>
        <pt x="34" y="297" on="0"/>
        <pt x="34" y="366" on="1"/>
        <pt x="34" y="435" on="0"/>
        <pt x="55" y="570" on="0"/>
        <pt x="101" y="678" on="0"/>
        <pt x="174" y="744" on="0"/>
        <pt x="226" y="744" on="1"/>
        <pt x="276" y="744" on="0"/>
        <pt x="346" y="679" on="0"/>
        <pt x="391" y="573" on="0"/>
        <pt x="412" y="439" on="0"/>
        <pt x="412" y="370" on="1"/>
        <pt x="412" y="297" on="0"/>
        <pt x="389" y="155" on="0"/>
        <pt x="363" y="99" on="1"/>
        <pt x="425" y="12" on="1"/>
      </contour>
      <contour>
        <pt x="340" y="368" on="1"/>
        <pt x="340" y="438" on="0"/>
        <pt x="323" y="553" on="0"/>
        <pt x="292" y="636" on="0"/>
        <pt x="249" y="682" on="0"/>
        <pt x="223" y="682" on="1"/>
        <pt x="197" y="682" on="0"/>
        <pt x="154" y="636" on="0"/>
        <pt x="123" y="553" on="0"/>
        <pt x="106" y="438" on="0"/>
        <pt x="106" y="368" on="1"/>
        <pt x="106" y="298" on="0"/>
        <pt x="123" y="182" on="0"/>
        <pt x="154" y="98" on="0"/>
        <pt x="197" y="51" on="0"/>
        <pt x="223" y="51" on="1"/>
        <pt x="242" y="51" on="0"/>
        <pt x="274" y="75" on="0"/>
        <pt x="288" y="97" on="1"/>
        <pt x="280" y="108" on="0"/>
        <pt x="272" y="119" on="1"/>
        <pt x="265" y="129" on="0"/>
        <pt x="248" y="153" on="0"/>
        <pt x="239" y="166" on="1"/>
        <pt x="191" y="234" on="1"/>
        <pt x="239" y="276" on="1"/>
        <pt x="316" y="165" on="1"/>
        <pt x="328" y="205" on="0"/>
        <pt x="340" y="308" on="0"/>
      </contour>
    </TTGlyph>
    <TTGlyph name="R" xMin="55" yMin="0" xMax="388" yMax="739">
      <contour>
        <pt x="313" y="0" on="1"/>
        <pt x="200" y="295" on="1"/>
        <pt x="192" y="294" on="0"/>
        <pt x="171" y="293" on="0"/>
        <pt x="162" y="293" on="1"/>
        <pt x="153" y="293" on="0"/>
        <pt x="135" y="294" on="0"/>
        <pt x="125" y="295" on="1"/>
        <pt x="125" y="0" on="1"/>
        <pt x="55" y="0" on="1"/>
        <pt x="55" y="732" on="1"/>
        <pt x="78" y="736" on="0"/>
        <pt x="124" y="739" on="0"/>
        <pt x="147" y="739" on="1"/>
        <pt x="205" y="739" on="0"/>
        <pt x="289" y="701" on="0"/>
        <pt x="341" y="638" on="0"/>
        <pt x="366" y="556" on="0"/>
        <pt x="366" y="513" on="1"/>
        <pt x="366" y="438" on="0"/>
        <pt x="307" y="343" on="0"/>
        <pt x="262" y="317" on="1"/>
        <pt x="388" y="0" on="1"/>
      </contour>
      <contour>
        <pt x="294" y="513" on="1"/>
        <pt x="294" y="591" on="0"/>
        <pt x="217" y="675" on="0"/>
        <pt x="148" y="675" on="1"/>
        <pt x="141" y="675" on="0"/>
        <pt x="137" y="674" on="0"/>
        <pt x="125" y="673" on="1"/>
        <pt x="125" y="355" on="1"/>
        <pt x="134" y="354" on="0"/>
        <pt x="152" y="353" on="0"/>
        <pt x="160" y="353" on="1"/>
        <pt x="224" y="353" on="0"/>
        <pt x="294" y="430" on="0"/>
      </contour>
    </TTGlyph>
    <TTGlyph name="Racute" xMin="55" yMin="0" xMax="388" yMax="900">
      <component glyphName="R" x="0" y="0" flags="0x204"/>
      <component glyphName="acute" x="52" y="280" flags="0x4"/>
    </TTGlyph>
    <TTGlyph name="Rcaron" xMin="55" yMin="0" xMax="388" yMax="895">
      <component glyphName="R" x="0" y="0" flags="0x204"/>
      <component glyphName="caron" x="8" y="280" flags="0x4"/>
    </TTGlyph>
    <TTGlyph name="Rcommaaccent" xMin="55" yMin="-237" xMax="388" yMax="739">
      <component glyphName="R" x="0" y="0" flags="0x204"/>
      <component glyphName="commaaccent" x="119" y="10" flags="0x4"/>
    </TTGlyph>
    <TTGlyph name="S" xMin="5" yMin="-11" xMax="322" yMax="744">
      <contour>
        <pt x="322" y="167" on="1"/>
        <pt x="322" y="128" on="0"/>
        <pt x="297" y="62" on="0"/>
        <pt x="254" y="15" on="0"/>
        <pt x="195" y="-11" on="0"/>
        <pt x="162" y="-11" on="1"/>
        <pt x="121" y="-11" on="0"/>
        <pt x="41" y="22" on="0"/>
        <pt x="5" y="48" on="1"/>
        <pt x="37" y="108" on="1"/>
        <pt x="65" y="86" on="0"/>
        <pt x="130" y="54" on="0"/>
        <pt x="160" y="54" on="1"/>
        <pt x="206" y="54" on="0"/>
        <pt x="251" y="114" on="0"/>
        <pt x="251" y="165" on="1"/>
        <pt x="251" y="192" on="0"/>
        <pt x="235" y="239" on="0"/>
        <pt x="207" y="284" on="0"/>
        <pt x="168" y="330" on="0"/>
        <pt x="144" y="357" on="1"/>
        <pt x="122" y="381" on="0"/>
        <pt x="80" y="430" on="0"/>
        <pt x="47" y="483" on="0"/>
        <pt x="26" y="541" on="0"/>
        <pt x="26" y="573" on="1"/>
        <pt x="26" y="610" on="0"/>
        <pt x="50" y="673" on="0"/>
        <pt x="92" y="719" on="0"/>
        <pt x="148" y="744" on="0"/>
        <pt x="181" y="744" on="1"/>
        <pt x="226" y="744" on="0"/>
        <pt x="291" y="713" on="0"/>
        <pt x="317" y="690" on="1"/>
        <pt x="285" y="629" on="1"/>
        <pt x="259" y="652" on="0"/>
        <pt x="210" y="679" on="0"/>
        <pt x="179" y="679" on="1"/>
        <pt x="141" y="679" on="0"/>
        <pt x="97" y="620" on="0"/>
        <pt x="97" y="575" on="1"/>
        <pt x="97" y="552" on="0"/>
        <pt x="114" y="508" on="0"/>
        <pt x="142" y="466" on="0"/>
        <pt x="179" y="423" on="0"/>
        <pt x="199" y="402" on="1"/>
        <pt x="221" y="378" on="0"/>
        <pt x="265" y="326" on="0"/>
        <pt x="300" y="269" on="0"/>
        <pt x="322" y="204" on="0"/>
      </contour>
    </TTGlyph>
    <TTGlyph name="Sacute" xMin="5" yMin="-11" xMax="322" yMax="910">
      <component glyphName="S" x="0" y="0" flags="0x204"/>
      <component glyphName="acute" x="19" y="290" flags="0x4"/>
    </TTGlyph>
    <TTGlyph name="Scaron" xMin="5" yMin="-11" xMax="322" yMax="905">
      <component glyphName="S" x="0" y="0" flags="0x204"/>
      <component glyphName="caron" x="-24" y="290" flags="0x4"/>
    </TTGlyph>
    <TTGlyph name="Scedilla" xMin="5" yMin="-179" xMax="322" yMax="744">
      <contour>
        <pt x="250" y="-109" on="1"/>
        <pt x="250" y="-138" on="0"/>
        <pt x="212" y="-179" on="0"/>
        <pt x="173" y="-179" on="1"/>
        <pt x="135" y="-179" on="0"/>
        <pt x="91" y="-153" on="1"/>
        <pt x="108" y="-117" on="1"/>
        <pt x="126" y="-129" on="0"/>
        <pt x="158" y="-139" on="0"/>
        <pt x="173" y="-139" on="1"/>
        <pt x="187" y="-139" on="0"/>
        <pt x="205" y="-123" on="0"/>
        <pt x="205" y="-111" on="1"/>
        <pt x="205" y="-97" on="0"/>
        <pt x="172" y="-73" on="0"/>
        <pt x="132" y="-70" on="1"/>
        <pt x="130" y="-64" on="1"/>
        <pt x="144" y="-10" on="1"/>
        <pt x="108" y="-6" on="0"/>
        <pt x="37" y="25" on="0"/>
        <pt x="5" y="48" on="1"/>
        <pt x="37" y="108" on="1"/>
        <pt x="65" y="86" on="0"/>
        <pt x="130" y="54" on="0"/>
        <pt x="160" y="54" on="1"/>
        <pt x="206" y="54" on="0"/>
        <pt x="251" y="114" on="0"/>
        <pt x="251" y="165" on="1"/>
        <pt x="251" y="192" on="0"/>
        <pt x="235" y="239" on="0"/>
        <pt x="207" y="284" on="0"/>
        <pt x="168" y="330" on="0"/>
        <pt x="144" y="357" on="1"/>
        <pt x="122" y="381" on="0"/>
        <pt x="80" y="430" on="0"/>
        <pt x="47" y="483" on="0"/>
        <pt x="26" y="541" on="0"/>
        <pt x="26" y="573" on="1"/>
        <pt x="26" y="610" on="0"/>
        <pt x="50" y="673" on="0"/>
        <pt x="92" y="719" on="0"/>
        <pt x="148" y="744" on="0"/>
        <pt x="181" y="744" on="1"/>
        <pt x="226" y="744" on="0"/>
        <pt x="291" y="713" on="0"/>
        <pt x="317" y="690" on="1"/>
        <pt x="285" y="629" on="1"/>
        <pt x="259" y="652" on="0"/>
        <pt x="210" y="679" on="0"/>
        <pt x="179" y="679" on="1"/>
        <pt x="141" y="679" on="0"/>
        <pt x="97" y="620" on="0"/>
        <pt x="97" y="575" on="1"/>
        <pt x="97" y="552" on="0"/>
        <pt x="114" y="508" on="0"/>
        <pt x="142" y="466" on="0"/>
        <pt x="179" y="423" on="0"/>
        <pt x="199" y="402" on="1"/>
        <pt x="221" y="378" on="0"/>
        <pt x="265" y="326" on="0"/>
        <pt x="300" y="269" on="0"/>
        <pt x="322" y="204" on="0"/>
        <pt x="322" y="167" on="1"/>
        <pt x="322" y="130" on="0"/>
        <pt x="300" y="69" on="0"/>
        <pt x="263" y="22" on="0"/>
        <pt x="211" y="-6" on="0"/>
        <pt x="181" y="-10" on="1"/>
        <pt x="174" y="-37" on="1"/>
        <pt x="218" y="-46" on="0"/>
        <pt x="250" y="-86" on="0"/>
      </contour>
    </TTGlyph>
    <TTGlyph name="Scommaaccent" xMin="5" yMin="-247" xMax="322" yMax="744">
      <component glyphName="S" x="0" y="0" flags="0x204"/>
      <component glyphName="commaaccent" x="86" y="0" flags="0x4"/>
    </TTGlyph>
    <TTGlyph name="T" xMin="16" yMin="0" xMax="326" yMax="733">
      <contour>
        <pt x="206" y="667" on="1"/>
        <pt x="206" y="0" on="1"/>
        <pt x="136" y="0" on="1"/>
        <pt x="136" y="667" on="1"/>
        <pt x="16" y="667" on="1"/>
        <pt x="16" y="733" on="1"/>
        <pt x="326" y="733" on="1"/>
        <pt x="326" y="667" on="1"/>
      </contour>
    </TTGlyph>
    <TTGlyph name="Tcaron" xMin="16" yMin="0" xMax="326" yMax="895">
      <component glyphName="T" x="0" y="0" flags="0x204"/>
      <component glyphName="caron" x="-26" y="280" flags="0x4"/>
    </TTGlyph>
    <TTGlyph name="Tcommaaccent" xMin="16" yMin="-247" xMax="326" yMax="733">
      <component glyphName="T" x="0" y="0" flags="0x204"/>
      <component glyphName="commaaccent" x="84" y="0" flags="0x4"/>
    </TTGlyph>
    <TTGlyph name="Thorn" xMin="55" yMin="0" xMax="366" yMax="733">
      <contour>
        <pt x="366" y="392" on="1"/>
        <pt x="366" y="347" on="0"/>
        <pt x="342" y="261" on="0"/>
        <pt x="291" y="195" on="0"/>
        <pt x="214" y="155" on="0"/>
        <pt x="162" y="155" on="1"/>
        <pt x="153" y="155" on="0"/>
        <pt x="135" y="156" on="0"/>
        <pt x="125" y="157" on="1"/>
        <pt x="125" y="0" on="1"/>
        <pt x="55" y="0" on="1"/>
        <pt x="55" y="733" on="1"/>
        <pt x="125" y="733" on="1"/>
        <pt x="125" y="628" on="1"/>
        <pt x="133" y="629" on="0"/>
        <pt x="150" y="629" on="0"/>
        <pt x="159" y="629" on="1"/>
        <pt x="213" y="629" on="0"/>
        <pt x="292" y="588" on="0"/>
        <pt x="342" y="521" on="0"/>
        <pt x="366" y="436" on="0"/>
      </contour>
      <contour>
        <pt x="294" y="390" on="1"/>
        <pt x="294" y="470" on="0"/>
        <pt x="223" y="565" on="0"/>
        <pt x="160" y="565" on="1"/>
        <pt x="152" y="565" on="0"/>
        <pt x="144" y="565" on="0"/>
        <pt x="138" y="564" on="0"/>
        <pt x="131" y="563" on="0"/>
        <pt x="125" y="563" on="1"/>
        <pt x="125" y="221" on="1"/>
        <pt x="134" y="220" on="0"/>
        <pt x="152" y="219" on="0"/>
        <pt x="160" y="219" on="1"/>
        <pt x="224" y="219" on="0"/>
        <pt x="294" y="310" on="0"/>
      </contour>
    </TTGlyph>
    <TTGlyph name="U" xMin="53" yMin="-11" xMax="384" yMax="733">
      <contour>
        <pt x="384" y="187" on="1"/>
        <pt x="384" y="137" on="0"/>
        <pt x="359" y="62" on="0"/>
        <pt x="315" y="13" on="0"/>
        <pt x="253" y="-11" on="0"/>
        <pt x="217" y="-11" on="1"/>
        <pt x="144" y="-11" on="0"/>
        <pt x="53" y="86" on="0"/>
        <pt x="53" y="187" on="1"/>
        <pt x="53" y="733" on="1"/>
        <pt x="123" y="733" on="1"/>
        <pt x="123" y="177" on="1"/>
        <pt x="123" y="142" on="0"/>
        <pt x="138" y="94" on="0"/>
        <pt x="165" y="64" on="0"/>
        <pt x="199" y="51" on="0"/>
        <pt x="219" y="51" on="1"/>
        <pt x="238" y="51" on="0"/>
        <pt x="273" y="64" on="0"/>
        <pt x="299" y="94" on="0"/>
        <pt x="314" y="142" on="0"/>
        <pt x="314" y="177" on="1"/>
        <pt x="314" y="733" on="1"/>
        <pt x="384" y="733" on="1"/>
        <pt x="384" y="187" on="1"/>
      </contour>
    </TTGlyph>
    <TTGlyph name="Uacute" xMin="53" yMin="-11" xMax="384" yMax="900">
      <component glyphName="U" x="0" y="0" flags="0x204"/>
      <component glyphName="acute" x="64" y="280" flags="0x4"/>
    </TTGlyph>
    <TTGlyph name="Ubreve" xMin="53" yMin="-11" xMax="384" yMax="870">
      <component glyphName="U" x="0" y="0" flags="0x204"/>
      <component glyphName="breve" x="18" y="280" flags="0x4"/>
    </TTGlyph>
    <TTGlyph name="Ucircumflex" xMin="53" yMin="-11" xMax="384" yMax="899">
      <component glyphName="U" x="0" y="0" flags="0x204"/>
      <component glyphName="circumflex" x="16" y="280" flags="0x4"/>
    </TTGlyph>
    <TTGlyph name="Udieresis" xMin="53" yMin="-11" xMax="384" yMax="855">
      <component glyphName="U" x="0" y="0" flags="0x204"/>
      <component glyphName="dieresis" x="18" y="280" flags="0x4"/>
    </TTGlyph>
    <TTGlyph name="Ugrave" xMin="53" yMin="-11" xMax="384" yMax="900">
      <component glyphName="U" x="0" y="0" flags="0x204"/>
      <component glyphName="grave" x="-36" y="280" flags="0x4"/>
    </TTGlyph>
    <TTGlyph name="Uhungarumlaut" xMin="53" yMin="-11" xMax="384" yMax="937">
      <component glyphName="U" x="0" y="0" flags="0x204"/>
      <component glyphName="hungarumlaut" x="46" y="280" flags="0x4"/>
    </TTGlyph>
    <TTGlyph name="Umacron" xMin="53" yMin="-11" xMax="384" yMax="830">
      <component glyphName="U" x="0" y="0" flags="0x204"/>
      <component glyphName="macron" x="18" y="280" flags="0x4"/>
    </TTGlyph>
    <TTGlyph name="Uogonek" xMin="53" yMin="-188" xMax="384" yMax="733">
      <contour>
        <pt x="289" y="-161" on="1"/>
        <pt x="279" y="-172" on="0"/>
        <pt x="249" y="-188" on="0"/>
        <pt x="229" y="-188" on="1"/>
        <pt x="200" y="-188" on="0"/>
        <pt x="166" y="-150" on="0"/>
        <pt x="166" y="-118" on="1"/>
        <pt x="166" y="-95" on="0"/>
        <pt x="184" y="-48" on="0"/>
        <pt x="210" y="-11" on="1"/>
        <pt x="140" y="-9" on="0"/>
        <pt x="53" y="88" on="0"/>
        <pt x="53" y="187" on="1"/>
        <pt x="53" y="733" on="1"/>
        <pt x="123" y="733" on="1"/>
        <pt x="123" y="177" on="1"/>
        <pt x="123" y="142" on="0"/>
        <pt x="138" y="94" on="0"/>
        <pt x="165" y="64" on="0"/>
        <pt x="199" y="51" on="0"/>
        <pt x="219" y="51" on="1"/>
        <pt x="238" y="51" on="0"/>
        <pt x="273" y="64" on="0"/>
        <pt x="299" y="94" on="0"/>
        <pt x="314" y="142" on="0"/>
        <pt x="314" y="177" on="1"/>
        <pt x="314" y="733" on="1"/>
        <pt x="384" y="733" on="1"/>
        <pt x="384" y="187" on="1"/>
        <pt x="384" y="99" on="0"/>
        <pt x="312" y="4" on="0"/>
        <pt x="253" y="-7" on="1"/>
        <pt x="230" y="-42" on="0"/>
        <pt x="216" y="-88" on="0"/>
        <pt x="216" y="-105" on="1"/>
        <pt x="216" y="-122" on="0"/>
        <pt x="231" y="-140" on="0"/>
        <pt x="243" y="-140" on="1"/>
        <pt x="251" y="-140" on="0"/>
        <pt x="267" y="-134" on="0"/>
        <pt x="272" y="-129" on="1"/>
        <pt x="289" y="-161" on="1"/>
      </contour>
    </TTGlyph>
    <TTGlyph name="Uring" xMin="53" yMin="-11" xMax="384" yMax="945">
      <component glyphName="U" x="0" y="0" flags="0x204"/>
      <component glyphName="ring" x="18" y="280" flags="0x4"/>
    </TTGlyph>
    <TTGlyph name="V" xMin="15" yMin="-7" xMax="383" yMax="733">
      <contour>
        <pt x="216" y="-7" on="1"/>
        <pt x="183" y="-7" on="1"/>
        <pt x="15" y="733" on="1"/>
        <pt x="85" y="733" on="1"/>
        <pt x="201" y="187" on="1"/>
        <pt x="313" y="733" on="1"/>
        <pt x="383" y="733" on="1"/>
      </contour>
    </TTGlyph>
    <TTGlyph name="W" xMin="15" yMin="-4" xMax="553" yMax="733">
      <contour>
        <pt x="440" y="-4" on="1"/>
        <pt x="406" y="-4" on="1"/>
        <pt x="284" y="539" on="1"/>
        <pt x="163" y="-4" on="1"/>
        <pt x="129" y="-4" on="1"/>
        <pt x="15" y="733" on="1"/>
        <pt x="85" y="733" on="1"/>
        <pt x="154" y="216" on="1"/>
        <pt x="269" y="733" on="1"/>
        <pt x="303" y="733" on="1"/>
        <pt x="415" y="216" on="1"/>
        <pt x="481" y="733" on="1"/>
        <pt x="553" y="733" on="1"/>
      </contour>
    </TTGlyph>
    <TTGlyph name="Wacute" xMin="15" yMin="-4" xMax="553" yMax="900">
      <component glyphName="W" x="0" y="0" flags="0x204"/>
      <component glyphName="acute" x="130" y="280" flags="0x4"/>
    </TTGlyph>
    <TTGlyph name="Wcircumflex" xMin="15" yMin="-4" xMax="553" yMax="899">
      <component glyphName="W" x="0" y="0" flags="0x204"/>
      <component glyphName="circumflex" x="82" y="280" flags="0x4"/>
    </TTGlyph>
    <TTGlyph name="Wdieresis" xMin="15" yMin="-4" xMax="553" yMax="855">
      <component glyphName="W" x="0" y="0" flags="0x204"/>
      <component glyphName="dieresis" x="84" y="280" flags="0x4"/>
    </TTGlyph>
    <TTGlyph name="Wgrave" xMin="15" yMin="-4" xMax="553" yMax="900">
      <component glyphName="W" x="0" y="0" flags="0x204"/>
      <component glyphName="grave" x="29" y="280" flags="0x4"/>
    </TTGlyph>
    <TTGlyph name="X" xMin="2" yMin="0" xMax="366" yMax="733">
      <contour>
        <pt x="291" y="0" on="1"/>
        <pt x="183" y="294" on="1"/>
        <pt x="75" y="0" on="1"/>
        <pt x="2" y="0" on="1"/>
        <pt x="148" y="370" on="1"/>
        <pt x="7" y="733" on="1"/>
        <pt x="80" y="733" on="1"/>
        <pt x="185" y="446" on="1"/>
        <pt x="289" y="733" on="1"/>
        <pt x="361" y="733" on="1"/>
        <pt x="220" y="371" on="1"/>
        <pt x="366" y="0" on="1"/>
      </contour>
    </TTGlyph>
    <TTGlyph name="Y" xMin="-1" yMin="0" xMax="373" yMax="733">
      <contour>
        <pt x="221" y="284" on="1"/>
        <pt x="221" y="0" on="1"/>
        <pt x="151" y="0" on="1"/>
        <pt x="151" y="285" on="1"/>
        <pt x="-1" y="733" on="1"/>
        <pt x="71" y="733" on="1"/>
        <pt x="186" y="373" on="1"/>
        <pt x="301" y="733" on="1"/>
        <pt x="373" y="733" on="1"/>
      </contour>
    </TTGlyph>
    <TTGlyph name="Yacute" xMin="-1" yMin="0" xMax="373" yMax="900">
      <component glyphName="Y" x="0" y="0" flags="0x204"/>
      <component glyphName="acute" x="32" y="280" flags="0x4"/>
    </TTGlyph>
    <TTGlyph name="Ycircumflex" xMin="-1" yMin="0" xMax="373" yMax="899">
      <component glyphName="Y" x="0" y="0" flags="0x204"/>
      <component glyphName="circumflex" x="-15" y="280" flags="0x4"/>
    </TTGlyph>
    <TTGlyph name="Ydieresis" xMin="-1" yMin="0" xMax="373" yMax="855">
      <component glyphName="Y" x="0" y="0" flags="0x204"/>
      <component glyphName="dieresis" x="-13" y="280" flags="0x4"/>
    </TTGlyph>
    <TTGlyph name="Ygrave" xMin="-1" yMin="0" xMax="373" yMax="900">
      <component glyphName="Y" x="0" y="0" flags="0x204"/>
      <component glyphName="grave" x="-68" y="280" flags="0x4"/>
    </TTGlyph>
    <TTGlyph name="Z" xMin="12" yMin="0" xMax="337" yMax="733">
      <contour>
        <pt x="103" y="67" on="1"/>
        <pt x="334" y="67" on="1"/>
        <pt x="334" y="0" on="1"/>
        <pt x="15" y="0" on="1"/>
        <pt x="12" y="11" on="1"/>
        <pt x="246" y="666" on="1"/>
        <pt x="28" y="666" on="1"/>
        <pt x="28" y="733" on="1"/>
        <pt x="334" y="733" on="1"/>
        <pt x="337" y="721" on="1"/>
      </contour>
    </TTGlyph>
    <TTGlyph name="Zacute" xMin="12" yMin="0" xMax="337" yMax="900">
      <component glyphName="Z" x="0" y="0" flags="0x204"/>
      <component glyphName="acute" x="27" y="280" flags="0x4"/>
    </TTGlyph>
    <TTGlyph name="Zcaron" xMin="12" yMin="0" xMax="337" yMax="895">
      <component glyphName="Z" x="0" y="0" flags="0x204"/>
      <component glyphName="caron" x="-16" y="280" flags="0x4"/>
    </TTGlyph>
    <TTGlyph name="Zdotaccent" xMin="12" yMin="0" xMax="337" yMax="856">
      <component glyphName="Z" x="0" y="0" flags="0x204"/>
      <component glyphName="dotaccent" x="-18" y="280" flags="0x4"/>
    </TTGlyph>
    <TTGlyph name="a" xMin="21" yMin="-10" xMax="280" yMax="457">
      <contour>
        <pt x="216" y="0" on="1"/>
        <pt x="216" y="48" on="1"/>
        <pt x="199" y="22" on="0"/>
        <pt x="153" y="-10" on="0"/>
        <pt x="124" y="-10" on="1"/>
        <pt x="82" y="-10" on="0"/>
        <pt x="21" y="64" on="0"/>
        <pt x="21" y="135" on="1"/>
        <pt x="21" y="166" on="0"/>
        <pt x="38" y="219" on="0"/>
        <pt x="69" y="259" on="0"/>
        <pt x="112" y="282" on="0"/>
        <pt x="138" y="282" on="1"/>
        <pt x="161" y="282" on="0"/>
        <pt x="201" y="264" on="0"/>
        <pt x="214" y="247" on="1"/>
        <pt x="214" y="328" on="1"/>
        <pt x="214" y="394" on="0"/>
        <pt x="149" y="394" on="1"/>
        <pt x="126" y="394" on="0"/>
        <pt x="87" y="384" on="0"/>
        <pt x="65" y="373" on="1"/>
        <pt x="53" y="433" on="1"/>
        <pt x="82" y="445" on="0"/>
        <pt x="133" y="457" on="0"/>
        <pt x="163" y="457" on="1"/>
        <pt x="189" y="457" on="0"/>
        <pt x="232" y="443" on="0"/>
        <pt x="263" y="411" on="0"/>
        <pt x="280" y="358" on="0"/>
        <pt x="280" y="319" on="1"/>
        <pt x="280" y="0" on="1"/>
      </contour>
      <contour>
        <pt x="214" y="202" on="1"/>
        <pt x="200" y="214" on="0"/>
        <pt x="175" y="230" on="0"/>
        <pt x="155" y="230" on="1"/>
        <pt x="126" y="230" on="0"/>
        <pt x="89" y="181" on="0"/>
        <pt x="89" y="137" on="1"/>
        <pt x="89" y="95" on="0"/>
        <pt x="124" y="46" on="0"/>
        <pt x="152" y="46" on="1"/>
        <pt x="175" y="46" on="0"/>
        <pt x="203" y="74" on="0"/>
        <pt x="214" y="93" on="1"/>
      </contour>
    </TTGlyph>
    <TTGlyph name="aacute" xMin="21" yMin="-10" xMax="285" yMax="620">
      <component glyphName="a" x="0" y="0" flags="0x204"/>
      <component glyphName="acute" x="6" y="0" flags="0x4"/>
    </TTGlyph>
    <TTGlyph name="abreve" xMin="21" yMin="-10" xMax="280" yMax="590">
      <component glyphName="a" x="0" y="0" flags="0x204"/>
      <component glyphName="breve" x="-39" y="0" flags="0x4"/>
    </TTGlyph>
    <TTGlyph name="acircumflex" xMin="21" yMin="-10" xMax="280" yMax="619">
      <component glyphName="a" x="0" y="0" flags="0x204"/>
      <component glyphName="circumflex" x="-41" y="0" flags="0x4"/>
    </TTGlyph>
    <TTGlyph name="acute" xMin="112" yMin="491" xMax="279" yMax="620">
      <contour>
        <pt x="133" y="491" on="1"/>
        <pt x="112" y="523" on="1"/>
        <pt x="247" y="620" on="1"/>
        <pt x="279" y="560" on="1"/>
      </contour>
    </TTGlyph>
    <TTGlyph name="adieresis" xMin="21" yMin="-10" xMax="280" yMax="575">
      <component glyphName="a" x="0" y="0" flags="0x204"/>
      <component glyphName="dieresis" x="-39" y="0" flags="0x4"/>
    </TTGlyph>
    <TTGlyph name="ae" xMin="21" yMin="-10" xMax="484" yMax="457">
      <contour>
        <pt x="214" y="328" on="1"/>
        <pt x="214" y="394" on="0"/>
        <pt x="149" y="394" on="1"/>
        <pt x="126" y="394" on="0"/>
        <pt x="87" y="384" on="0"/>
        <pt x="65" y="373" on="1"/>
        <pt x="53" y="433" on="1"/>
        <pt x="82" y="445" on="0"/>
        <pt x="133" y="457" on="0"/>
        <pt x="163" y="457" on="1"/>
        <pt x="199" y="457" on="0"/>
        <pt x="248" y="430" on="0"/>
        <pt x="260" y="395" on="1"/>
        <pt x="277" y="424" on="0"/>
        <pt x="326" y="457" on="0"/>
        <pt x="358" y="457" on="1"/>
        <pt x="387" y="457" on="0"/>
        <pt x="434" y="424" on="0"/>
        <pt x="467" y="365" on="0"/>
        <pt x="484" y="285" on="0"/>
        <pt x="484" y="238" on="1"/>
        <pt x="484" y="227" on="0"/>
        <pt x="484" y="211" on="0"/>
        <pt x="482" y="199" on="1"/>
        <pt x="281" y="199" on="1"/>
        <pt x="280" y="167" on="0"/>
        <pt x="291" y="112" on="0"/>
        <pt x="315" y="71" on="0"/>
        <pt x="353" y="47" on="0"/>
        <pt x="379" y="47" on="1"/>
        <pt x="396" y="47" on="0"/>
        <pt x="433" y="59" on="0"/>
        <pt x="457" y="71" on="1"/>
        <pt x="476" y="19" on="1"/>
        <pt x="418" y="-10" on="0"/>
        <pt x="369" y="-10" on="1"/>
        <pt x="325" y="-10" on="0"/>
        <pt x="264" y="34" on="0"/>
        <pt x="247" y="82" on="1"/>
        <pt x="237" y="53" on="0"/>
        <pt x="212" y="17" on="0"/>
        <pt x="183" y="-3" on="0"/>
        <pt x="151" y="-10" on="0"/>
        <pt x="135" y="-10" on="1"/>
        <pt x="114" y="-10" on="0"/>
        <pt x="73" y="9" on="0"/>
        <pt x="41" y="46" on="0"/>
        <pt x="21" y="100" on="0"/>
        <pt x="21" y="135" on="1"/>
        <pt x="21" y="166" on="0"/>
        <pt x="38" y="219" on="0"/>
        <pt x="69" y="259" on="0"/>
        <pt x="112" y="282" on="0"/>
        <pt x="138" y="282" on="1"/>
        <pt x="161" y="282" on="0"/>
        <pt x="201" y="262" on="0"/>
        <pt x="214" y="242" on="1"/>
      </contour>
      <contour>
        <pt x="421" y="251" on="1"/>
        <pt x="421" y="281" on="0"/>
        <pt x="412" y="336" on="0"/>
        <pt x="396" y="376" on="0"/>
        <pt x="372" y="400" on="0"/>
        <pt x="357" y="400" on="1"/>
        <pt x="325" y="400" on="0"/>
        <pt x="285" y="321" on="0"/>
        <pt x="282" y="251" on="1"/>
      </contour>
      <contour>
        <pt x="214" y="197" on="1"/>
        <pt x="203" y="212" on="0"/>
        <pt x="175" y="230" on="0"/>
        <pt x="155" y="230" on="1"/>
        <pt x="126" y="230" on="0"/>
        <pt x="89" y="181" on="0"/>
        <pt x="89" y="137" on="1"/>
        <pt x="89" y="95" on="0"/>
        <pt x="123" y="46" on="0"/>
        <pt x="147" y="46" on="1"/>
        <pt x="175" y="46" on="0"/>
        <pt x="210" y="112" on="0"/>
      </contour>
    </TTGlyph>
    <TTGlyph name="aeacute" xMin="21" yMin="-10" xMax="484" yMax="620">
      <component glyphName="ae" x="0" y="0" flags="0x204"/>
      <component glyphName="acute" x="112" y="0" flags="0x4"/>
    </TTGlyph>
    <TTGlyph name="agrave" xMin="21" yMin="-10" xMax="280" yMax="620">
      <component glyphName="a" x="0" y="0" flags="0x204"/>
      <component glyphName="grave" x="-94" y="0" flags="0x4"/>
    </TTGlyph>
    <TTGlyph name="amacron" xMin="21" yMin="-10" xMax="280" yMax="550">
      <component glyphName="a" x="0" y="0" flags="0x204"/>
      <component glyphName="macron" x="-39" y="0" flags="0x4"/>
    </TTGlyph>
    <TTGlyph name="ampersand" xMin="16" yMin="-14" xMax="413" yMax="737">
      <contour>
        <pt x="412" y="318" on="1"/>
        <pt x="393" y="261" on="0"/>
        <pt x="356" y="166" on="0"/>
        <pt x="336" y="128" on="1"/>
        <pt x="361" y="94" on="0"/>
        <pt x="396" y="47" on="0"/>
        <pt x="413" y="25" on="1"/>
        <pt x="361" y="-14" on="1"/>
        <pt x="345" y="7" on="0"/>
        <pt x="318" y="47" on="0"/>
        <pt x="301" y="70" on="1"/>
        <pt x="248" y="-11" on="0"/>
        <pt x="171" y="-11" on="1"/>
        <pt x="138" y="-11" on="0"/>
        <pt x="82" y="14" on="0"/>
        <pt x="40" y="62" on="0"/>
        <pt x="16" y="130" on="0"/>
        <pt x="16" y="173" on="1"/>
        <pt x="16" y="200" on="0"/>
        <pt x="29" y="259" on="0"/>
        <pt x="56" y="316" on="0"/>
        <pt x="95" y="367" on="0"/>
        <pt x="122" y="387" on="1"/>
        <pt x="105" y="428" on="0"/>
        <pt x="78" y="512" on="0"/>
        <pt x="78" y="560" on="1"/>
        <pt x="78" y="590" on="0"/>
        <pt x="92" y="653" on="0"/>
        <pt x="121" y="704" on="0"/>
        <pt x="167" y="737" on="0"/>
        <pt x="199" y="737" on="1"/>
        <pt x="229" y="737" on="0"/>
        <pt x="273" y="710" on="0"/>
        <pt x="302" y="667" on="0"/>
        <pt x="316" y="615" on="0"/>
        <pt x="316" y="591" on="1"/>
        <pt x="316" y="524" on="0"/>
        <pt x="254" y="419" on="0"/>
        <pt x="196" y="368" on="1"/>
        <pt x="217" y="323" on="0"/>
        <pt x="268" y="228" on="0"/>
        <pt x="297" y="185" on="1"/>
        <pt x="312" y="218" on="0"/>
        <pt x="342" y="299" on="0"/>
        <pt x="359" y="347" on="1"/>
      </contour>
      <contour>
        <pt x="252" y="591" on="1"/>
        <pt x="252" y="631" on="0"/>
        <pt x="224" y="676" on="0"/>
        <pt x="200" y="676" on="1"/>
        <pt x="185" y="676" on="0"/>
        <pt x="163" y="656" on="0"/>
        <pt x="149" y="623" on="0"/>
        <pt x="142" y="582" on="0"/>
        <pt x="142" y="562" on="1"/>
        <pt x="142" y="520" on="0"/>
        <pt x="160" y="454" on="0"/>
        <pt x="174" y="421" on="1"/>
        <pt x="196" y="446" on="0"/>
        <pt x="226" y="486" on="0"/>
        <pt x="244" y="525" on="0"/>
        <pt x="252" y="565" on="0"/>
      </contour>
      <contour>
        <pt x="264" y="123" on="1"/>
        <pt x="230" y="174" on="0"/>
        <pt x="171" y="280" on="0"/>
        <pt x="147" y="331" on="1"/>
        <pt x="115" y="302" on="0"/>
        <pt x="82" y="216" on="0"/>
        <pt x="82" y="176" on="1"/>
        <pt x="82" y="150" on="0"/>
        <pt x="95" y="105" on="0"/>
        <pt x="119" y="70" on="0"/>
        <pt x="154" y="50" on="0"/>
        <pt x="176" y="50" on="1"/>
        <pt x="200" y="50" on="0"/>
        <pt x="247" y="88" on="0"/>
      </contour>
    </TTGlyph>
    <TTGlyph name="ampersand.cap" xMin="16" yMin="-14" xMax="413" yMax="737">
      <contour>
        <pt x="174" y="421" on="1"/>
        <pt x="196" y="446" on="0"/>
        <pt x="226" y="486" on="0"/>
        <pt x="244" y="525" on="0"/>
        <pt x="252" y="565" on="0"/>
        <pt x="252" y="591" on="1"/>
        <pt x="252" y="631" on="0"/>
        <pt x="224" y="676" on="0"/>
        <pt x="200" y="676" on="1"/>
        <pt x="185" y="676" on="0"/>
        <pt x="163" y="656" on="0"/>
        <pt x="149" y="623" on="0"/>
        <pt x="142" y="582" on="0"/>
        <pt x="142" y="562" on="1"/>
        <pt x="142" y="520" on="0"/>
        <pt x="160" y="454" on="0"/>
      </contour>
      <contour>
        <pt x="264" y="123" on="1"/>
        <pt x="230" y="174" on="0"/>
        <pt x="171" y="280" on="0"/>
        <pt x="147" y="331" on="1"/>
        <pt x="115" y="302" on="0"/>
        <pt x="82" y="216" on="0"/>
        <pt x="82" y="176" on="1"/>
        <pt x="82" y="150" on="0"/>
        <pt x="95" y="105" on="0"/>
        <pt x="119" y="70" on="0"/>
        <pt x="154" y="50" on="0"/>
        <pt x="176" y="50" on="1"/>
        <pt x="200" y="50" on="0"/>
        <pt x="247" y="88" on="0"/>
      </contour>
      <contour>
        <pt x="196" y="368" on="1"/>
        <pt x="217" y="323" on="0"/>
        <pt x="268" y="228" on="0"/>
        <pt x="297" y="185" on="1"/>
        <pt x="312" y="218" on="0"/>
        <pt x="342" y="299" on="0"/>
        <pt x="359" y="347" on="1"/>
        <pt x="412" y="318" on="1"/>
        <pt x="393" y="261" on="0"/>
        <pt x="356" y="166" on="0"/>
        <pt x="336" y="128" on="1"/>
        <pt x="361" y="94" on="0"/>
        <pt x="396" y="47" on="0"/>
        <pt x="413" y="25" on="1"/>
        <pt x="361" y="-14" on="1"/>
        <pt x="345" y="7" on="0"/>
        <pt x="318" y="47" on="0"/>
        <pt x="301" y="70" on="1"/>
        <pt x="248" y="-11" on="0"/>
        <pt x="171" y="-11" on="1"/>
        <pt x="138" y="-11" on="0"/>
        <pt x="82" y="14" on="0"/>
        <pt x="40" y="62" on="0"/>
        <pt x="16" y="130" on="0"/>
        <pt x="16" y="173" on="1"/>
        <pt x="16" y="200" on="0"/>
        <pt x="29" y="259" on="0"/>
        <pt x="56" y="316" on="0"/>
        <pt x="95" y="367" on="0"/>
        <pt x="122" y="387" on="1"/>
        <pt x="105" y="428" on="0"/>
        <pt x="78" y="512" on="0"/>
        <pt x="78" y="560" on="1"/>
        <pt x="78" y="590" on="0"/>
        <pt x="92" y="653" on="0"/>
        <pt x="121" y="704" on="0"/>
        <pt x="167" y="737" on="0"/>
        <pt x="199" y="737" on="1"/>
        <pt x="229" y="737" on="0"/>
        <pt x="273" y="710" on="0"/>
        <pt x="302" y="667" on="0"/>
        <pt x="316" y="615" on="0"/>
        <pt x="316" y="591" on="1"/>
        <pt x="316" y="524" on="0"/>
        <pt x="254" y="419" on="0"/>
      </contour>
    </TTGlyph>
    <TTGlyph name="aogonek" xMin="21" yMin="-188" xMax="285" yMax="457">
      <contour>
        <pt x="285" y="-161" on="1"/>
        <pt x="275" y="-172" on="0"/>
        <pt x="245" y="-188" on="0"/>
        <pt x="225" y="-188" on="1"/>
        <pt x="196" y="-188" on="0"/>
        <pt x="162" y="-150" on="0"/>
        <pt x="162" y="-118" on="1"/>
        <pt x="162" y="-93" on="0"/>
        <pt x="184" y="-41" on="0"/>
        <pt x="216" y="2" on="1"/>
        <pt x="216" y="48" on="1"/>
        <pt x="199" y="22" on="0"/>
        <pt x="153" y="-10" on="0"/>
        <pt x="124" y="-10" on="1"/>
        <pt x="82" y="-10" on="0"/>
        <pt x="21" y="64" on="0"/>
        <pt x="21" y="135" on="1"/>
        <pt x="21" y="166" on="0"/>
        <pt x="38" y="219" on="0"/>
        <pt x="69" y="259" on="0"/>
        <pt x="112" y="282" on="0"/>
        <pt x="138" y="282" on="1"/>
        <pt x="161" y="282" on="0"/>
        <pt x="201" y="264" on="0"/>
        <pt x="214" y="247" on="1"/>
        <pt x="214" y="328" on="1"/>
        <pt x="214" y="394" on="0"/>
        <pt x="149" y="394" on="1"/>
        <pt x="126" y="394" on="0"/>
        <pt x="87" y="384" on="0"/>
        <pt x="65" y="373" on="1"/>
        <pt x="53" y="433" on="1"/>
        <pt x="82" y="445" on="0"/>
        <pt x="133" y="457" on="0"/>
        <pt x="163" y="457" on="1"/>
        <pt x="189" y="457" on="0"/>
        <pt x="232" y="443" on="0"/>
        <pt x="263" y="411" on="0"/>
        <pt x="280" y="358" on="0"/>
        <pt x="280" y="319" on="1"/>
        <pt x="280" y="0" on="1"/>
        <pt x="254" y="0" on="1"/>
        <pt x="228" y="-38" on="0"/>
        <pt x="212" y="-88" on="0"/>
        <pt x="212" y="-105" on="1"/>
        <pt x="212" y="-122" on="0"/>
        <pt x="227" y="-140" on="0"/>
        <pt x="239" y="-140" on="1"/>
        <pt x="247" y="-140" on="0"/>
        <pt x="263" y="-134" on="0"/>
        <pt x="268" y="-129" on="1"/>
      </contour>
      <contour>
        <pt x="214" y="202" on="1"/>
        <pt x="200" y="214" on="0"/>
        <pt x="175" y="230" on="0"/>
        <pt x="155" y="230" on="1"/>
        <pt x="126" y="230" on="0"/>
        <pt x="89" y="181" on="0"/>
        <pt x="89" y="137" on="1"/>
        <pt x="89" y="95" on="0"/>
        <pt x="124" y="46" on="0"/>
        <pt x="152" y="46" on="1"/>
        <pt x="175" y="46" on="0"/>
        <pt x="203" y="74" on="0"/>
        <pt x="214" y="93" on="1"/>
      </contour>
    </TTGlyph>
    <TTGlyph name="aring" xMin="21" yMin="-10" xMax="280" yMax="665">
      <component glyphName="a" x="0" y="0" flags="0x204"/>
      <component glyphName="ring" x="-39" y="0" flags="0x4"/>
    </TTGlyph>
    <TTGlyph name="aringacute" xMin="21" yMin="-10" xMax="285" yMax="828">
      <component glyphName="a" x="0" y="0" flags="0x204"/>
      <component glyphName="ring" x="-39" y="0" flags="0x4"/>
      <component glyphName="acute" x="6" y="208" flags="0x4"/>
    </TTGlyph>
    <TTGlyph name="arrowleft" xMin="20" yMin="59" xMax="395" yMax="477">
      <contour>
        <pt x="119" y="236" on="1"/>
        <pt x="217" y="101" on="1"/>
        <pt x="164" y="59" on="1"/>
        <pt x="20" y="262" on="1"/>
        <pt x="20" y="274" on="1"/>
        <pt x="164" y="477" on="1"/>
        <pt x="217" y="435" on="1"/>
        <pt x="119" y="300" on="1"/>
        <pt x="395" y="300" on="1"/>
        <pt x="395" y="236" on="1"/>
      </contour>
    </TTGlyph>
    <TTGlyph name="arrowleft.cap" xMin="20" yMin="162" xMax="395" yMax="580">
      <component glyphName="arrowleft" x="0" y="103" flags="0x204"/>
    </TTGlyph>
    <TTGlyph name="arrowright" xMin="30" yMin="59" xMax="405" yMax="477">
      <contour>
        <pt x="306" y="300" on="1"/>
        <pt x="208" y="435" on="1"/>
        <pt x="261" y="477" on="1"/>
        <pt x="405" y="274" on="1"/>
        <pt x="405" y="262" on="1"/>
        <pt x="261" y="59" on="1"/>
        <pt x="208" y="101" on="1"/>
        <pt x="306" y="236" on="1"/>
        <pt x="30" y="236" on="1"/>
        <pt x="30" y="300" on="1"/>
      </contour>
    </TTGlyph>
    <TTGlyph name="arrowright.cap" xMin="30" yMin="162" xMax="405" yMax="580">
      <component glyphName="arrowright" x="0" y="103" flags="0x204"/>
    </TTGlyph>
    <TTGlyph name="asciicircum" xMin="90" yMin="574" xMax="314" yMax="696">
      <contour>
        <pt x="251" y="574" on="1"/>
        <pt x="200" y="640" on="1"/>
        <pt x="150" y="574" on="1"/>
        <pt x="90" y="574" on="1"/>
        <pt x="193" y="696" on="1"/>
        <pt x="215" y="696" on="1"/>
        <pt x="314" y="574" on="1"/>
      </contour>
    </TTGlyph>
    <TTGlyph name="asciitilde" xMin="86" yMin="192" xMax="312" yMax="272">
      <contour>
        <pt x="312" y="235" on="1"/>
        <pt x="297" y="214" on="0"/>
        <pt x="259" y="192" on="0"/>
        <pt x="240" y="192" on="1"/>
        <pt x="228" y="192" on="0"/>
        <pt x="205" y="201" on="0"/>
        <pt x="194" y="207" on="1"/>
        <pt x="183" y="214" on="0"/>
        <pt x="164" y="222" on="0"/>
        <pt x="156" y="222" on="1"/>
        <pt x="144" y="222" on="0"/>
        <pt x="124" y="207" on="0"/>
        <pt x="113" y="193" on="1"/>
        <pt x="86" y="229" on="1"/>
        <pt x="101" y="250" on="0"/>
        <pt x="140" y="272" on="0"/>
        <pt x="158" y="272" on="1"/>
        <pt x="170" y="272" on="0"/>
        <pt x="193" y="263" on="0"/>
        <pt x="204" y="257" on="1"/>
        <pt x="215" y="250" on="0"/>
        <pt x="233" y="242" on="0"/>
        <pt x="242" y="242" on="1"/>
        <pt x="264" y="242" on="0"/>
        <pt x="285" y="271" on="1"/>
        <pt x="312" y="235" on="1"/>
      </contour>
    </TTGlyph>
    <TTGlyph name="asterisk" xMin="7" yMin="548" xMax="195" yMax="732">
      <contour>
        <pt x="130" y="627" on="1"/>
        <pt x="173" y="571" on="1"/>
        <pt x="137" y="548" on="1"/>
        <pt x="101" y="608" on="1"/>
        <pt x="65" y="548" on="1"/>
        <pt x="29" y="571" on="1"/>
        <pt x="72" y="627" on="1"/>
        <pt x="7" y="647" on="1"/>
        <pt x="21" y="684" on="1"/>
        <pt x="83" y="659" on="1"/>
        <pt x="79" y="732" on="1"/>
        <pt x="124" y="732" on="1"/>
        <pt x="119" y="659" on="1"/>
        <pt x="181" y="684" on="1"/>
        <pt x="195" y="647" on="1"/>
      </contour>
    </TTGlyph>
    <TTGlyph name="at" xMin="40" yMin="-10" xMax="485" yMax="632">
      <contour>
        <pt x="485" y="344" on="1"/>
        <pt x="485" y="279" on="0"/>
        <pt x="460" y="189" on="0"/>
        <pt x="432" y="164" on="1"/>
        <pt x="414" y="148" on="0"/>
        <pt x="392" y="148" on="1"/>
        <pt x="365" y="148" on="0"/>
        <pt x="336" y="181" on="0"/>
        <pt x="328" y="210" on="1"/>
        <pt x="311" y="180" on="0"/>
        <pt x="268" y="151" on="0"/>
        <pt x="245" y="151" on="1"/>
        <pt x="212" y="151" on="0"/>
        <pt x="166" y="204" on="0"/>
        <pt x="166" y="246" on="1"/>
        <pt x="166" y="287" on="0"/>
        <pt x="213" y="342" on="0"/>
        <pt x="251" y="342" on="1"/>
        <pt x="288" y="342" on="0"/>
        <pt x="309" y="316" on="1"/>
        <pt x="309" y="358" on="1"/>
        <pt x="309" y="382" on="0"/>
        <pt x="285" y="402" on="0"/>
        <pt x="262" y="402" on="1"/>
        <pt x="230" y="402" on="0"/>
        <pt x="199" y="386" on="1"/>
        <pt x="190" y="432" on="1"/>
        <pt x="211" y="441" on="0"/>
        <pt x="249" y="450" on="0"/>
        <pt x="272" y="450" on="1"/>
        <pt x="291" y="450" on="0"/>
        <pt x="324" y="442" on="0"/>
        <pt x="347" y="420" on="0"/>
        <pt x="360" y="382" on="0"/>
        <pt x="360" y="352" on="1"/>
        <pt x="360" y="266" on="1"/>
        <pt x="360" y="221" on="0"/>
        <pt x="382" y="191" on="0"/>
        <pt x="394" y="191" on="1"/>
        <pt x="405" y="191" on="0"/>
        <pt x="413" y="200" on="1"/>
        <pt x="430" y="219" on="0"/>
        <pt x="443" y="291" on="0"/>
        <pt x="443" y="336" on="1"/>
        <pt x="443" y="379" on="0"/>
        <pt x="422" y="469" on="0"/>
        <pt x="380" y="543" on="0"/>
        <pt x="317" y="589" on="0"/>
        <pt x="275" y="589" on="1"/>
        <pt x="231" y="589" on="0"/>
        <pt x="160" y="544" on="0"/>
        <pt x="110" y="467" on="0"/>
        <pt x="83" y="366" on="0"/>
        <pt x="83" y="310" on="1"/>
        <pt x="83" y="250" on="0"/>
        <pt x="109" y="149" on="0"/>
        <pt x="160" y="75" on="0"/>
        <pt x="233" y="33" on="0"/>
        <pt x="281" y="33" on="1"/>
        <pt x="308" y="33" on="0"/>
        <pt x="355" y="48" on="0"/>
        <pt x="376" y="61" on="1"/>
        <pt x="387" y="19" on="1"/>
        <pt x="364" y="6" on="0"/>
        <pt x="309" y="-10" on="0"/>
        <pt x="280" y="-10" on="1"/>
        <pt x="224" y="-10" on="0"/>
        <pt x="135" y="37" on="0"/>
        <pt x="73" y="121" on="0"/>
        <pt x="40" y="239" on="0"/>
        <pt x="40" y="310" on="1"/>
        <pt x="40" y="378" on="0"/>
        <pt x="74" y="496" on="0"/>
        <pt x="137" y="583" on="0"/>
        <pt x="223" y="632" on="0"/>
        <pt x="276" y="632" on="1"/>
        <pt x="325" y="632" on="0"/>
        <pt x="402" y="584" on="0"/>
        <pt x="456" y="505" on="0"/>
        <pt x="485" y="401" on="0"/>
      </contour>
      <contour>
        <pt x="309" y="281" on="1"/>
        <pt x="298" y="290" on="0"/>
        <pt x="275" y="302" on="0"/>
        <pt x="261" y="302" on="1"/>
        <pt x="239" y="302" on="0"/>
        <pt x="215" y="271" on="0"/>
        <pt x="215" y="248" on="1"/>
        <pt x="215" y="225" on="0"/>
        <pt x="237" y="195" on="0"/>
        <pt x="257" y="195" on="1"/>
        <pt x="274" y="195" on="0"/>
        <pt x="301" y="216" on="0"/>
        <pt x="309" y="230" on="1"/>
      </contour>
    </TTGlyph>
    <TTGlyph name="at.cap" xMin="40" yMin="-12" xMax="485" yMax="744">
      <contour>
        <pt x="485" y="400" on="1"/>
        <pt x="485" y="335" on="0"/>
        <pt x="460" y="225" on="0"/>
        <pt x="432" y="200" on="1"/>
        <pt x="414" y="184" on="0"/>
        <pt x="392" y="184" on="1"/>
        <pt x="365" y="184" on="0"/>
        <pt x="336" y="217" on="0"/>
        <pt x="328" y="246" on="1"/>
        <pt x="311" y="216" on="0"/>
        <pt x="268" y="187" on="0"/>
        <pt x="245" y="187" on="1"/>
        <pt x="212" y="187" on="0"/>
        <pt x="166" y="242" on="0"/>
        <pt x="166" y="296" on="1"/>
        <pt x="166" y="319" on="0"/>
        <pt x="179" y="359" on="0"/>
        <pt x="202" y="389" on="0"/>
        <pt x="234" y="407" on="0"/>
        <pt x="253" y="407" on="1"/>
        <pt x="288" y="407" on="0"/>
        <pt x="309" y="381" on="1"/>
        <pt x="309" y="440" on="1"/>
        <pt x="309" y="489" on="0"/>
        <pt x="262" y="489" on="1"/>
        <pt x="230" y="489" on="0"/>
        <pt x="199" y="473" on="1"/>
        <pt x="190" y="519" on="1"/>
        <pt x="211" y="528" on="0"/>
        <pt x="249" y="537" on="0"/>
        <pt x="272" y="537" on="1"/>
        <pt x="311" y="537" on="0"/>
        <pt x="360" y="493" on="0"/>
        <pt x="360" y="434" on="1"/>
        <pt x="360" y="305" on="1"/>
        <pt x="360" y="260" on="0"/>
        <pt x="382" y="227" on="0"/>
        <pt x="394" y="227" on="1"/>
        <pt x="405" y="227" on="0"/>
        <pt x="413" y="236" on="1"/>
        <pt x="422" y="245" on="0"/>
        <pt x="433" y="280" on="0"/>
        <pt x="440" y="322" on="0"/>
        <pt x="443" y="369" on="0"/>
        <pt x="443" y="392" on="1"/>
        <pt x="443" y="441" on="0"/>
        <pt x="428" y="549" on="0"/>
        <pt x="390" y="641" on="0"/>
        <pt x="325" y="701" on="0"/>
        <pt x="275" y="701" on="1"/>
        <pt x="229" y="701" on="0"/>
        <pt x="158" y="646" on="0"/>
        <pt x="109" y="553" on="0"/>
        <pt x="83" y="431" on="0"/>
        <pt x="83" y="365" on="1"/>
        <pt x="83" y="299" on="0"/>
        <pt x="106" y="178" on="0"/>
        <pt x="155" y="86" on="0"/>
        <pt x="232" y="31" on="0"/>
        <pt x="286" y="31" on="1"/>
        <pt x="309" y="31" on="0"/>
        <pt x="355" y="46" on="0"/>
        <pt x="376" y="59" on="1"/>
        <pt x="387" y="17" on="1"/>
        <pt x="364" y="4" on="0"/>
        <pt x="310" y="-12" on="0"/>
        <pt x="285" y="-12" on="1"/>
        <pt x="223" y="-12" on="0"/>
        <pt x="131" y="47" on="0"/>
        <pt x="70" y="150" on="0"/>
        <pt x="40" y="287" on="0"/>
        <pt x="40" y="365" on="1"/>
        <pt x="40" y="443" on="0"/>
        <pt x="73" y="581" on="0"/>
        <pt x="134" y="684" on="0"/>
        <pt x="222" y="744" on="0"/>
        <pt x="276" y="744" on="1"/>
        <pt x="333" y="744" on="0"/>
        <pt x="413" y="683" on="0"/>
        <pt x="462" y="585" on="0"/>
        <pt x="485" y="462" on="0"/>
      </contour>
      <contour>
        <pt x="309" y="346" on="1"/>
        <pt x="298" y="355" on="0"/>
        <pt x="280" y="367" on="0"/>
        <pt x="265" y="367" on="1"/>
        <pt x="242" y="367" on="0"/>
        <pt x="215" y="330" on="0"/>
        <pt x="215" y="297" on="1"/>
        <pt x="215" y="265" on="0"/>
        <pt x="242" y="231" on="0"/>
        <pt x="262" y="231" on="1"/>
        <pt x="279" y="231" on="0"/>
        <pt x="301" y="252" on="0"/>
        <pt x="309" y="266" on="1"/>
      </contour>
    </TTGlyph>
    <TTGlyph name="atilde" xMin="21" yMin="-10" xMax="280" yMax="576">
      <component glyphName="a" x="0" y="0" flags="0x204"/>
      <component glyphName="tilde" x="-38" y="0" flags="0x4"/>
    </TTGlyph>
    <TTGlyph name="b" xMin="42" yMin="-7" xMax="316" yMax="733">
      <contour>
        <pt x="316" y="231" on="1"/>
        <pt x="316" y="177" on="0"/>
        <pt x="294" y="89" on="0"/>
        <pt x="258" y="27" on="0"/>
        <pt x="211" y="-7" on="0"/>
        <pt x="186" y="-7" on="1"/>
        <pt x="165" y="-7" on="0"/>
        <pt x="125" y="13" on="0"/>
        <pt x="109" y="33" on="1"/>
        <pt x="109" y="0" on="1"/>
        <pt x="42" y="0" on="1"/>
        <pt x="42" y="733" on="1"/>
        <pt x="110" y="733" on="1"/>
        <pt x="110" y="409" on="1"/>
        <pt x="128" y="428" on="0"/>
        <pt x="168" y="453" on="0"/>
        <pt x="197" y="453" on="1"/>
        <pt x="220" y="453" on="0"/>
        <pt x="263" y="426" on="0"/>
        <pt x="296" y="371" on="0"/>
        <pt x="316" y="288" on="0"/>
      </contour>
      <contour>
        <pt x="248" y="231" on="1"/>
        <pt x="248" y="320" on="0"/>
        <pt x="207" y="395" on="0"/>
        <pt x="173" y="395" on="1"/>
        <pt x="156" y="395" on="0"/>
        <pt x="123" y="375" on="0"/>
        <pt x="110" y="359" on="1"/>
        <pt x="110" y="83" on="1"/>
        <pt x="122" y="68" on="0"/>
        <pt x="151" y="47" on="0"/>
        <pt x="171" y="47" on="1"/>
        <pt x="206" y="47" on="0"/>
        <pt x="248" y="145" on="0"/>
      </contour>
    </TTGlyph>
    <TTGlyph name="backslash" xMin="-4" yMin="-216" xMax="198" yMax="733">
      <contour>
        <pt x="137" y="-216" on="1"/>
        <pt x="-4" y="733" on="1"/>
        <pt x="57" y="733" on="1"/>
        <pt x="198" y="-216" on="1"/>
      </contour>
    </TTGlyph>
    <TTGlyph name="backslash.cap" xMin="5" yMin="-111" xMax="207" yMax="838">
      <component glyphName="backslash" x="9" y="105" flags="0x204"/>
    </TTGlyph>
    <TTGlyph name="bar" xMin="57" yMin="-215" xMax="112" yMax="734">
      <contour>
        <pt x="57" y="-215" on="1"/>
        <pt x="57" y="734" on="1"/>
        <pt x="112" y="734" on="1"/>
        <pt x="112" y="-215" on="1"/>
      </contour>
    </TTGlyph>
    <TTGlyph name="bar.cap" xMin="57" yMin="-111" xMax="112" yMax="838">
      <component glyphName="bar" x="0" y="104" flags="0x204"/>
    </TTGlyph>
    <TTGlyph name="braceleft" xMin="15" yMin="-223" xMax="216" yMax="740">
      <contour>
        <pt x="216" y="-223" on="1"/>
        <pt x="189" y="-223" on="0"/>
        <pt x="142" y="-207" on="0"/>
        <pt x="106" y="-174" on="0"/>
        <pt x="86" y="-122" on="0"/>
        <pt x="86" y="-86" on="1"/>
        <pt x="86" y="171" on="1"/>
        <pt x="86" y="204" on="0"/>
        <pt x="51" y="227" on="0"/>
        <pt x="29" y="227" on="1"/>
        <pt x="15" y="227" on="1"/>
        <pt x="15" y="290" on="1"/>
        <pt x="29" y="290" on="1"/>
        <pt x="51" y="290" on="0"/>
        <pt x="86" y="313" on="0"/>
        <pt x="86" y="346" on="1"/>
        <pt x="86" y="604" on="1"/>
        <pt x="86" y="640" on="0"/>
        <pt x="106" y="692" on="0"/>
        <pt x="142" y="725" on="0"/>
        <pt x="189" y="740" on="0"/>
        <pt x="216" y="740" on="1"/>
        <pt x="216" y="681" on="1"/>
        <pt x="188" y="681" on="0"/>
        <pt x="147" y="649" on="0"/>
        <pt x="147" y="608" on="1"/>
        <pt x="147" y="362" on="1"/>
        <pt x="147" y="315" on="0"/>
        <pt x="114" y="271" on="0"/>
        <pt x="85" y="258" on="1"/>
        <pt x="114" y="246" on="0"/>
        <pt x="147" y="202" on="0"/>
        <pt x="147" y="155" on="1"/>
        <pt x="147" y="-91" on="1"/>
        <pt x="147" y="-132" on="0"/>
        <pt x="188" y="-163" on="0"/>
        <pt x="216" y="-163" on="1"/>
        <pt x="216" y="-223" on="1"/>
      </contour>
    </TTGlyph>
    <TTGlyph name="braceleft.cap" xMin="15" yMin="-118" xMax="216" yMax="845">
      <component glyphName="braceleft" x="0" y="105" flags="0x204"/>
    </TTGlyph>
    <TTGlyph name="braceright" xMin="8" yMin="-223" xMax="209" yMax="740">
      <contour>
        <pt x="195" y="227" on="1"/>
        <pt x="173" y="227" on="0"/>
        <pt x="138" y="204" on="0"/>
        <pt x="138" y="171" on="1"/>
        <pt x="138" y="-86" on="1"/>
        <pt x="138" y="-122" on="0"/>
        <pt x="118" y="-174" on="0"/>
        <pt x="82" y="-207" on="0"/>
        <pt x="35" y="-223" on="0"/>
        <pt x="8" y="-223" on="1"/>
        <pt x="8" y="-163" on="1"/>
        <pt x="36" y="-163" on="0"/>
        <pt x="77" y="-132" on="0"/>
        <pt x="77" y="-91" on="1"/>
        <pt x="77" y="155" on="1"/>
        <pt x="77" y="202" on="0"/>
        <pt x="110" y="246" on="0"/>
        <pt x="139" y="258" on="1"/>
        <pt x="110" y="271" on="0"/>
        <pt x="77" y="315" on="0"/>
        <pt x="77" y="362" on="1"/>
        <pt x="77" y="608" on="1"/>
        <pt x="77" y="649" on="0"/>
        <pt x="36" y="681" on="0"/>
        <pt x="8" y="681" on="1"/>
        <pt x="8" y="740" on="1"/>
        <pt x="35" y="740" on="0"/>
        <pt x="82" y="725" on="0"/>
        <pt x="118" y="692" on="0"/>
        <pt x="138" y="640" on="0"/>
        <pt x="138" y="604" on="1"/>
        <pt x="138" y="346" on="1"/>
        <pt x="138" y="313" on="0"/>
        <pt x="173" y="290" on="0"/>
        <pt x="195" y="290" on="1"/>
        <pt x="209" y="290" on="1"/>
        <pt x="209" y="227" on="1"/>
      </contour>
    </TTGlyph>
    <TTGlyph name="braceright.cap" xMin="8" yMin="-118" xMax="209" yMax="845">
      <component glyphName="braceright" x="0" y="105" flags="0x204"/>
    </TTGlyph>
    <TTGlyph name="bracketleft" xMin="37" yMin="-216" xMax="190" yMax="733">
      <contour>
        <pt x="37" y="-216" on="1"/>
        <pt x="37" y="733" on="1"/>
        <pt x="190" y="733" on="1"/>
        <pt x="190" y="677" on="1"/>
        <pt x="98" y="677" on="1"/>
        <pt x="98" y="-161" on="1"/>
        <pt x="190" y="-161" on="1"/>
        <pt x="190" y="-216" on="1"/>
      </contour>
    </TTGlyph>
    <TTGlyph name="bracketleft.cap" xMin="37" yMin="-111" xMax="190" yMax="838">
      <component glyphName="bracketleft" x="0" y="105" flags="0x204"/>
    </TTGlyph>
    <TTGlyph name="bracketright" xMin="8" yMin="-216" xMax="161" yMax="733">
      <contour>
        <pt x="8" y="-216" on="1"/>
        <pt x="8" y="-161" on="1"/>
        <pt x="100" y="-161" on="1"/>
        <pt x="100" y="677" on="1"/>
        <pt x="8" y="677" on="1"/>
        <pt x="8" y="733" on="1"/>
        <pt x="161" y="733" on="1"/>
        <pt x="161" y="-216" on="1"/>
      </contour>
    </TTGlyph>
    <TTGlyph name="bracketright.cap" xMin="8" yMin="-111" xMax="161" yMax="838">
      <component glyphName="bracketright" x="0" y="105" flags="0x204"/>
    </TTGlyph>
    <TTGlyph name="breve" xMin="106" yMin="497" xMax="294" yMax="590">
      <contour>
        <pt x="294" y="587" on="1"/>
        <pt x="294" y="550" on="0"/>
        <pt x="245" y="497" on="0"/>
        <pt x="200" y="497" on="1"/>
        <pt x="156" y="497" on="0"/>
        <pt x="106" y="550" on="0"/>
        <pt x="106" y="587" on="1"/>
        <pt x="162" y="590" on="1"/>
        <pt x="162" y="543" on="0"/>
        <pt x="200" y="543" on="1"/>
        <pt x="239" y="543" on="0"/>
        <pt x="239" y="590" on="1"/>
        <pt x="294" y="587" on="1"/>
      </contour>
    </TTGlyph>
    <TTGlyph name="bullet" xMin="32" yMin="272" xMax="220" yMax="460">
      <contour>
        <pt x="220" y="366" on="1"/>
        <pt x="220" y="346" on="0"/>
        <pt x="205" y="312" on="0"/>
        <pt x="180" y="287" on="0"/>
        <pt x="145" y="272" on="0"/>
        <pt x="126" y="272" on="1"/>
        <pt x="106" y="272" on="0"/>
        <pt x="72" y="287" on="0"/>
        <pt x="47" y="312" on="0"/>
        <pt x="32" y="346" on="0"/>
        <pt x="32" y="366" on="1"/>
        <pt x="32" y="385" on="0"/>
        <pt x="47" y="420" on="0"/>
        <pt x="72" y="445" on="0"/>
        <pt x="106" y="460" on="0"/>
        <pt x="126" y="460" on="1"/>
        <pt x="145" y="460" on="0"/>
        <pt x="180" y="445" on="0"/>
        <pt x="205" y="420" on="0"/>
        <pt x="220" y="385" on="0"/>
      </contour>
    </TTGlyph>
    <TTGlyph name="c" xMin="24" yMin="-10" xMax="268" yMax="457">
      <contour>
        <pt x="265" y="24" on="1"/>
        <pt x="246" y="8" on="0"/>
        <pt x="200" y="-10" on="0"/>
        <pt x="174" y="-10" on="1"/>
        <pt x="138" y="-10" on="0"/>
        <pt x="83" y="26" on="0"/>
        <pt x="44" y="88" on="0"/>
        <pt x="24" y="172" on="0"/>
        <pt x="24" y="221" on="1"/>
        <pt x="24" y="270" on="0"/>
        <pt x="44" y="356" on="0"/>
        <pt x="83" y="420" on="0"/>
        <pt x="138" y="457" on="0"/>
        <pt x="174" y="457" on="1"/>
        <pt x="205" y="457" on="0"/>
        <pt x="245" y="440" on="0"/>
        <pt x="268" y="423" on="1"/>
        <pt x="238" y="372" on="1"/>
        <pt x="221" y="384" on="0"/>
        <pt x="195" y="398" on="0"/>
        <pt x="175" y="398" on="1"/>
        <pt x="155" y="398" on="0"/>
        <pt x="124" y="371" on="0"/>
        <pt x="103" y="323" on="0"/>
        <pt x="92" y="258" on="0"/>
        <pt x="92" y="221" on="1"/>
        <pt x="92" y="186" on="0"/>
        <pt x="103" y="124" on="0"/>
        <pt x="124" y="77" on="0"/>
        <pt x="156" y="49" on="0"/>
        <pt x="177" y="49" on="1"/>
        <pt x="196" y="49" on="0"/>
        <pt x="223" y="62" on="0"/>
        <pt x="239" y="74" on="1"/>
        <pt x="265" y="24" on="1"/>
      </contour>
    </TTGlyph>
    <TTGlyph name="cacute" xMin="24" yMin="-10" xMax="294" yMax="620">
      <component glyphName="c" x="0" y="0" flags="0x204"/>
      <component glyphName="acute" x="15" y="0" flags="0x4"/>
    </TTGlyph>
    <TTGlyph name="caron" xMin="86" yMin="492" xMax="310" yMax="615">
      <contour>
        <pt x="207" y="492" on="1"/>
        <pt x="186" y="492" on="1"/>
        <pt x="86" y="615" on="1"/>
        <pt x="149" y="615" on="1"/>
        <pt x="200" y="549" on="1"/>
        <pt x="250" y="615" on="1"/>
        <pt x="310" y="615" on="1"/>
      </contour>
    </TTGlyph>
    <TTGlyph name="caron.alt" xMin="24" yMin="530" xMax="122" yMax="739">
      <contour>
        <pt x="122" y="734" on="1"/>
        <pt x="122" y="668" on="0"/>
        <pt x="90" y="568" on="0"/>
        <pt x="52" y="530" on="1"/>
        <pt x="24" y="547" on="1"/>
        <pt x="50" y="590" on="0"/>
        <pt x="63" y="687" on="0"/>
        <pt x="63" y="739" on="1"/>
      </contour>
    </TTGlyph>
    <TTGlyph name="ccaron" xMin="24" yMin="-10" xMax="282" yMax="615">
      <component glyphName="c" x="0" y="0" flags="0x204"/>
      <component glyphName="caron" x="-28" y="0" flags="0x4"/>
    </TTGlyph>
    <TTGlyph name="ccedilla" xMin="24" yMin="-179" xMax="268" yMax="457">
      <contour>
        <pt x="245" y="-109" on="1"/>
        <pt x="245" y="-138" on="0"/>
        <pt x="207" y="-179" on="0"/>
        <pt x="168" y="-179" on="1"/>
        <pt x="130" y="-179" on="0"/>
        <pt x="86" y="-153" on="1"/>
        <pt x="103" y="-117" on="1"/>
        <pt x="121" y="-129" on="0"/>
        <pt x="153" y="-139" on="0"/>
        <pt x="168" y="-139" on="1"/>
        <pt x="182" y="-139" on="0"/>
        <pt x="200" y="-123" on="0"/>
        <pt x="200" y="-111" on="1"/>
        <pt x="200" y="-97" on="0"/>
        <pt x="167" y="-73" on="0"/>
        <pt x="127" y="-70" on="1"/>
        <pt x="125" y="-64" on="1"/>
        <pt x="140" y="-5" on="1"/>
        <pt x="84" y="11" on="0"/>
        <pt x="24" y="135" on="0"/>
        <pt x="24" y="221" on="1"/>
        <pt x="24" y="270" on="0"/>
        <pt x="44" y="356" on="0"/>
        <pt x="83" y="420" on="0"/>
        <pt x="138" y="457" on="0"/>
        <pt x="174" y="457" on="1"/>
        <pt x="205" y="457" on="0"/>
        <pt x="245" y="440" on="0"/>
        <pt x="268" y="423" on="1"/>
        <pt x="238" y="372" on="1"/>
        <pt x="221" y="384" on="0"/>
        <pt x="195" y="398" on="0"/>
        <pt x="175" y="398" on="1"/>
        <pt x="155" y="398" on="0"/>
        <pt x="124" y="371" on="0"/>
        <pt x="103" y="323" on="0"/>
        <pt x="92" y="258" on="0"/>
        <pt x="92" y="221" on="1"/>
        <pt x="92" y="186" on="0"/>
        <pt x="103" y="124" on="0"/>
        <pt x="124" y="77" on="0"/>
        <pt x="156" y="49" on="0"/>
        <pt x="177" y="49" on="1"/>
        <pt x="196" y="49" on="0"/>
        <pt x="223" y="62" on="0"/>
        <pt x="239" y="74" on="1"/>
        <pt x="265" y="24" on="1"/>
        <pt x="226" y="-9" on="0"/>
        <pt x="176" y="-10" on="1"/>
        <pt x="169" y="-37" on="1"/>
        <pt x="213" y="-46" on="0"/>
        <pt x="245" y="-86" on="0"/>
      </contour>
    </TTGlyph>
    <TTGlyph name="cdotaccent" xMin="24" yMin="-10" xMax="268" yMax="576">
      <component glyphName="c" x="0" y="0" flags="0x204"/>
      <component glyphName="dotaccent" x="-30" y="0" flags="0x4"/>
    </TTGlyph>
    <TTGlyph name="cedilla" xMin="132" yMin="-179" xMax="291" yMax="14">
      <contour>
        <pt x="291" y="-109" on="1"/>
        <pt x="291" y="-138" on="0"/>
        <pt x="253" y="-179" on="0"/>
        <pt x="214" y="-179" on="1"/>
        <pt x="176" y="-179" on="0"/>
        <pt x="132" y="-153" on="1"/>
        <pt x="149" y="-117" on="1"/>
        <pt x="167" y="-129" on="0"/>
        <pt x="199" y="-139" on="0"/>
        <pt x="214" y="-139" on="1"/>
        <pt x="228" y="-139" on="0"/>
        <pt x="246" y="-123" on="0"/>
        <pt x="246" y="-111" on="1"/>
        <pt x="246" y="-97" on="0"/>
        <pt x="213" y="-73" on="0"/>
        <pt x="173" y="-70" on="1"/>
        <pt x="171" y="-64" on="1"/>
        <pt x="191" y="14" on="1"/>
        <pt x="226" y="4" on="1"/>
        <pt x="215" y="-37" on="1"/>
        <pt x="259" y="-46" on="0"/>
        <pt x="291" y="-86" on="0"/>
      </contour>
    </TTGlyph>
    <TTGlyph name="cent" xMin="24" yMin="-80" xMax="268" yMax="535">
      <contour>
        <pt x="132" y="-3" on="1"/>
        <pt x="105" y="7" on="0"/>
        <pt x="64" y="50" on="0"/>
        <pt x="37" y="110" on="0"/>
        <pt x="24" y="182" on="0"/>
        <pt x="24" y="221" on="1"/>
        <pt x="24" y="263" on="0"/>
        <pt x="40" y="345" on="0"/>
        <pt x="75" y="410" on="0"/>
        <pt x="128" y="453" on="0"/>
        <pt x="165" y="456" on="1"/>
        <pt x="171" y="535" on="1"/>
        <pt x="217" y="533" on="1"/>
        <pt x="211" y="453" on="1"/>
        <pt x="227" y="448" on="0"/>
        <pt x="254" y="434" on="0"/>
        <pt x="268" y="423" on="1"/>
        <pt x="238" y="372" on="1"/>
        <pt x="230" y="377" on="0"/>
        <pt x="215" y="388" on="0"/>
        <pt x="207" y="392" on="1"/>
        <pt x="182" y="49" on="1"/>
        <pt x="193" y="49" on="0"/>
        <pt x="221" y="59" on="0"/>
        <pt x="239" y="74" on="1"/>
        <pt x="265" y="24" on="1"/>
        <pt x="244" y="7" on="0"/>
        <pt x="200" y="-9" on="0"/>
        <pt x="178" y="-10" on="1"/>
        <pt x="173" y="-80" on="1"/>
        <pt x="127" y="-77" on="1"/>
      </contour>
      <contour>
        <pt x="92" y="221" on="1"/>
        <pt x="92" y="198" on="0"/>
        <pt x="97" y="152" on="0"/>
        <pt x="107" y="110" on="0"/>
        <pt x="125" y="75" on="0"/>
        <pt x="137" y="64" on="1"/>
        <pt x="161" y="396" on="1"/>
        <pt x="124" y="385" on="0"/>
        <pt x="92" y="286" on="0"/>
      </contour>
    </TTGlyph>
    <TTGlyph name="cent.lin" xMin="24" yMin="63" xMax="268" yMax="678">
      <component glyphName="cent" x="0" y="143" flags="0x204"/>
    </TTGlyph>
    <TTGlyph name="circumflex" xMin="90" yMin="497" xMax="314" yMax="619">
      <contour>
        <pt x="251" y="497" on="1"/>
        <pt x="200" y="563" on="1"/>
        <pt x="150" y="497" on="1"/>
        <pt x="90" y="497" on="1"/>
        <pt x="193" y="619" on="1"/>
        <pt x="215" y="619" on="1"/>
        <pt x="314" y="497" on="1"/>
      </contour>
    </TTGlyph>
    <TTGlyph name="colon" xMin="23" yMin="-10" xMax="115" yMax="401">
      <contour>
        <pt x="23" y="37" on="1"/>
        <pt x="23" y="57" on="0"/>
        <pt x="49" y="84" on="0"/>
        <pt x="69" y="84" on="1"/>
        <pt x="89" y="84" on="0"/>
        <pt x="115" y="57" on="0"/>
        <pt x="115" y="37" on="1"/>
        <pt x="115" y="17" on="0"/>
        <pt x="89" y="-10" on="0"/>
        <pt x="69" y="-10" on="1"/>
        <pt x="49" y="-10" on="0"/>
        <pt x="23" y="17" on="0"/>
      </contour>
      <contour>
        <pt x="23" y="354" on="1"/>
        <pt x="23" y="374" on="0"/>
        <pt x="49" y="401" on="0"/>
        <pt x="69" y="401" on="1"/>
        <pt x="89" y="401" on="0"/>
        <pt x="115" y="374" on="0"/>
        <pt x="115" y="354" on="1"/>
        <pt x="115" y="334" on="0"/>
        <pt x="89" y="307" on="0"/>
        <pt x="69" y="307" on="1"/>
        <pt x="49" y="307" on="0"/>
        <pt x="23" y="334" on="0"/>
      </contour>
    </TTGlyph>
    <TTGlyph name="comma" xMin="16" yMin="-105" xMax="117" yMax="85">
      <contour>
        <pt x="117" y="23" on="1"/>
        <pt x="117" y="5" on="0"/>
        <pt x="101" y="-34" on="0"/>
        <pt x="75" y="-69" on="0"/>
        <pt x="42" y="-98" on="0"/>
        <pt x="25" y="-105" on="1"/>
        <pt x="16" y="-91" on="1"/>
        <pt x="44" y="-68" on="0"/>
        <pt x="66" y="-28" on="0"/>
        <pt x="70" y="-7" on="1"/>
        <pt x="48" y="-5" on="0"/>
        <pt x="22" y="21" on="0"/>
        <pt x="22" y="39" on="1"/>
        <pt x="22" y="57" on="0"/>
        <pt x="49" y="85" on="0"/>
        <pt x="67" y="85" on="1"/>
        <pt x="90" y="85" on="0"/>
        <pt x="117" y="52" on="0"/>
      </contour>
    </TTGlyph>
    <TTGlyph name="commaaccent" xMin="39" yMin="-247" xMax="131" yMax="-73">
      <contour>
        <pt x="131" y="-130" on="1"/>
        <pt x="131" y="-146" on="0"/>
        <pt x="117" y="-182" on="0"/>
        <pt x="93" y="-214" on="0"/>
        <pt x="63" y="-240" on="0"/>
        <pt x="48" y="-247" on="1"/>
        <pt x="39" y="-234" on="1"/>
        <pt x="65" y="-213" on="0"/>
        <pt x="85" y="-177" on="0"/>
        <pt x="89" y="-157" on="1"/>
        <pt x="69" y="-155" on="0"/>
        <pt x="45" y="-132" on="0"/>
        <pt x="45" y="-115" on="1"/>
        <pt x="45" y="-99" on="0"/>
        <pt x="69" y="-73" on="0"/>
        <pt x="86" y="-73" on="1"/>
        <pt x="107" y="-73" on="0"/>
        <pt x="131" y="-103" on="0"/>
      </contour>
    </TTGlyph>
    <TTGlyph name="copyright" xMin="27" yMin="-12" xMax="478" yMax="745">
      <contour>
        <pt x="478" y="366" on="1"/>
        <pt x="478" y="288" on="0"/>
        <pt x="446" y="150" on="0"/>
        <pt x="387" y="47" on="0"/>
        <pt x="304" y="-12" on="0"/>
        <pt x="253" y="-12" on="1"/>
        <pt x="202" y="-12" on="0"/>
        <pt x="119" y="47" on="0"/>
        <pt x="60" y="150" on="0"/>
        <pt x="27" y="288" on="0"/>
        <pt x="27" y="366" on="1"/>
        <pt x="27" y="444" on="0"/>
        <pt x="60" y="582" on="0"/>
        <pt x="119" y="685" on="0"/>
        <pt x="202" y="745" on="0"/>
        <pt x="253" y="745" on="1"/>
        <pt x="304" y="745" on="0"/>
        <pt x="387" y="685" on="0"/>
        <pt x="446" y="582" on="0"/>
        <pt x="478" y="444" on="0"/>
      </contour>
      <contour>
        <pt x="435" y="366" on="1"/>
        <pt x="435" y="432" on="0"/>
        <pt x="409" y="555" on="0"/>
        <pt x="361" y="649" on="0"/>
        <pt x="294" y="705" on="0"/>
        <pt x="253" y="705" on="1"/>
        <pt x="211" y="705" on="0"/>
        <pt x="144" y="649" on="0"/>
        <pt x="96" y="555" on="0"/>
        <pt x="70" y="432" on="0"/>
        <pt x="70" y="366" on="1"/>
        <pt x="70" y="300" on="0"/>
        <pt x="96" y="178" on="0"/>
        <pt x="144" y="84" on="0"/>
        <pt x="211" y="28" on="0"/>
        <pt x="253" y="28" on="1"/>
        <pt x="294" y="28" on="0"/>
        <pt x="361" y="84" on="0"/>
        <pt x="409" y="178" on="0"/>
        <pt x="435" y="300" on="0"/>
      </contour>
      <contour>
        <pt x="326" y="203" on="1"/>
        <pt x="298" y="182" on="0"/>
        <pt x="267" y="182" on="1"/>
        <pt x="221" y="182" on="0"/>
        <pt x="155" y="278" on="0"/>
        <pt x="155" y="368" on="1"/>
        <pt x="155" y="411" on="0"/>
        <pt x="172" y="482" on="0"/>
        <pt x="202" y="532" on="0"/>
        <pt x="244" y="559" on="0"/>
        <pt x="269" y="559" on="1"/>
        <pt x="286" y="559" on="0"/>
        <pt x="313" y="550" on="0"/>
        <pt x="327" y="538" on="1"/>
        <pt x="305" y="495" on="1"/>
        <pt x="291" y="508" on="0"/>
        <pt x="268" y="508" on="1"/>
        <pt x="245" y="508" on="0"/>
        <pt x="209" y="439" on="0"/>
        <pt x="209" y="373" on="1"/>
        <pt x="209" y="302" on="0"/>
        <pt x="246" y="233" on="0"/>
        <pt x="272" y="233" on="1"/>
        <pt x="292" y="233" on="0"/>
        <pt x="307" y="246" on="1"/>
      </contour>
    </TTGlyph>
    <TTGlyph name="d" xMin="24" yMin="-10" xMax="298" yMax="733">
      <contour>
        <pt x="231" y="0" on="1"/>
        <pt x="231" y="36" on="1"/>
        <pt x="215" y="17" on="0"/>
        <pt x="172" y="-10" on="0"/>
        <pt x="146" y="-10" on="1"/>
        <pt x="123" y="-10" on="0"/>
        <pt x="79" y="17" on="0"/>
        <pt x="45" y="73" on="0"/>
        <pt x="24" y="156" on="0"/>
        <pt x="24" y="213" on="1"/>
        <pt x="24" y="267" on="0"/>
        <pt x="47" y="356" on="0"/>
        <pt x="84" y="419" on="0"/>
        <pt x="133" y="453" on="0"/>
        <pt x="160" y="453" on="1"/>
        <pt x="201" y="453" on="0"/>
        <pt x="230" y="419" on="1"/>
        <pt x="230" y="733" on="1"/>
        <pt x="298" y="733" on="1"/>
        <pt x="298" y="0" on="1"/>
      </contour>
      <contour>
        <pt x="230" y="369" on="1"/>
        <pt x="218" y="383" on="0"/>
        <pt x="193" y="399" on="0"/>
        <pt x="173" y="399" on="1"/>
        <pt x="138" y="399" on="0"/>
        <pt x="92" y="299" on="0"/>
        <pt x="92" y="213" on="1"/>
        <pt x="92" y="124" on="0"/>
        <pt x="136" y="48" on="0"/>
        <pt x="170" y="48" on="1"/>
        <pt x="187" y="48" on="0"/>
        <pt x="219" y="67" on="0"/>
        <pt x="230" y="84" on="1"/>
      </contour>
    </TTGlyph>
    <TTGlyph name="dagger" xMin="19" yMin="216" xMax="259" yMax="733">
      <contour>
        <pt x="171" y="567" on="1"/>
        <pt x="171" y="216" on="1"/>
        <pt x="109" y="216" on="1"/>
        <pt x="109" y="567" on="1"/>
        <pt x="19" y="567" on="1"/>
        <pt x="19" y="625" on="1"/>
        <pt x="109" y="625" on="1"/>
        <pt x="109" y="733" on="1"/>
        <pt x="171" y="733" on="1"/>
        <pt x="171" y="625" on="1"/>
        <pt x="259" y="625" on="1"/>
        <pt x="259" y="567" on="1"/>
      </contour>
    </TTGlyph>
    <TTGlyph name="daggerdbl" xMin="19" yMin="216" xMax="259" yMax="733">
      <contour>
        <pt x="171" y="344" on="1"/>
        <pt x="171" y="216" on="1"/>
        <pt x="109" y="216" on="1"/>
        <pt x="109" y="344" on="1"/>
        <pt x="19" y="344" on="1"/>
        <pt x="19" y="402" on="1"/>
        <pt x="109" y="402" on="1"/>
        <pt x="109" y="547" on="1"/>
        <pt x="19" y="547" on="1"/>
        <pt x="19" y="605" on="1"/>
        <pt x="109" y="605" on="1"/>
        <pt x="109" y="733" on="1"/>
        <pt x="171" y="733" on="1"/>
        <pt x="171" y="605" on="1"/>
        <pt x="259" y="605" on="1"/>
        <pt x="259" y="547" on="1"/>
        <pt x="171" y="547" on="1"/>
        <pt x="171" y="402" on="1"/>
        <pt x="259" y="402" on="1"/>
        <pt x="259" y="344" on="1"/>
      </contour>
    </TTGlyph>
    <TTGlyph name="dcaron" xMin="24" yMin="-10" xMax="414" yMax="734">
      <component glyphName="d" x="0" y="0" flags="0x204"/>
      <component glyphName="caron.alt" x="292" y="-5" flags="0x4"/>
    </TTGlyph>
    <TTGlyph name="dcroat" xMin="24" yMin="-10" xMax="338" yMax="733">
      <contour>
        <pt x="231" y="0" on="1"/>
        <pt x="231" y="36" on="1"/>
        <pt x="215" y="17" on="0"/>
        <pt x="172" y="-10" on="0"/>
        <pt x="146" y="-10" on="1"/>
        <pt x="123" y="-10" on="0"/>
        <pt x="79" y="17" on="0"/>
        <pt x="45" y="73" on="0"/>
        <pt x="24" y="156" on="0"/>
        <pt x="24" y="213" on="1"/>
        <pt x="24" y="267" on="0"/>
        <pt x="47" y="356" on="0"/>
        <pt x="84" y="419" on="0"/>
        <pt x="133" y="453" on="0"/>
        <pt x="160" y="453" on="1"/>
        <pt x="201" y="453" on="0"/>
        <pt x="230" y="419" on="1"/>
        <pt x="230" y="565" on="1"/>
        <pt x="140" y="565" on="1"/>
        <pt x="140" y="626" on="1"/>
        <pt x="230" y="626" on="1"/>
        <pt x="230" y="733" on="1"/>
        <pt x="298" y="733" on="1"/>
        <pt x="298" y="626" on="1"/>
        <pt x="338" y="626" on="1"/>
        <pt x="338" y="565" on="1"/>
        <pt x="298" y="565" on="1"/>
        <pt x="298" y="0" on="1"/>
      </contour>
      <contour>
        <pt x="230" y="369" on="1"/>
        <pt x="218" y="383" on="0"/>
        <pt x="193" y="399" on="0"/>
        <pt x="173" y="399" on="1"/>
        <pt x="138" y="399" on="0"/>
        <pt x="92" y="299" on="0"/>
        <pt x="92" y="213" on="1"/>
        <pt x="92" y="124" on="0"/>
        <pt x="136" y="48" on="0"/>
        <pt x="170" y="48" on="1"/>
        <pt x="187" y="48" on="0"/>
        <pt x="219" y="67" on="0"/>
        <pt x="230" y="84" on="1"/>
      </contour>
    </TTGlyph>
    <TTGlyph name="degree" xMin="50" yMin="468" xMax="316" yMax="730">
      <contour>
        <pt x="316" y="599" on="1"/>
        <pt x="316" y="572" on="0"/>
        <pt x="297" y="524" on="0"/>
        <pt x="263" y="489" on="0"/>
        <pt x="214" y="468" on="0"/>
        <pt x="183" y="468" on="1"/>
        <pt x="152" y="468" on="0"/>
        <pt x="103" y="489" on="0"/>
        <pt x="68" y="524" on="0"/>
        <pt x="50" y="572" on="0"/>
        <pt x="50" y="599" on="1"/>
        <pt x="50" y="626" on="0"/>
        <pt x="68" y="674" on="0"/>
        <pt x="103" y="709" on="0"/>
        <pt x="152" y="730" on="0"/>
        <pt x="183" y="730" on="1"/>
        <pt x="214" y="730" on="0"/>
        <pt x="263" y="709" on="0"/>
        <pt x="297" y="674" on="0"/>
        <pt x="316" y="626" on="0"/>
      </contour>
      <contour>
        <pt x="254" y="599" on="1"/>
        <pt x="254" y="636" on="0"/>
        <pt x="214" y="680" on="0"/>
        <pt x="183" y="680" on="1"/>
        <pt x="151" y="680" on="0"/>
        <pt x="112" y="636" on="0"/>
        <pt x="112" y="599" on="1"/>
        <pt x="112" y="562" on="0"/>
        <pt x="151" y="517" on="0"/>
        <pt x="183" y="517" on="1"/>
        <pt x="214" y="517" on="0"/>
        <pt x="254" y="562" on="0"/>
      </contour>
    </TTGlyph>
    <TTGlyph name="degree.lin" xMin="50" yMin="468" xMax="316" yMax="730">
      <contour>
        <pt x="316" y="599" on="1"/>
        <pt x="316" y="572" on="0"/>
        <pt x="297" y="524" on="0"/>
        <pt x="263" y="489" on="0"/>
        <pt x="214" y="468" on="0"/>
        <pt x="183" y="468" on="1"/>
        <pt x="152" y="468" on="0"/>
        <pt x="103" y="489" on="0"/>
        <pt x="68" y="524" on="0"/>
        <pt x="50" y="572" on="0"/>
        <pt x="50" y="599" on="1"/>
        <pt x="50" y="626" on="0"/>
        <pt x="68" y="674" on="0"/>
        <pt x="103" y="709" on="0"/>
        <pt x="152" y="730" on="0"/>
        <pt x="183" y="730" on="1"/>
        <pt x="214" y="730" on="0"/>
        <pt x="263" y="709" on="0"/>
        <pt x="297" y="674" on="0"/>
        <pt x="316" y="626" on="0"/>
      </contour>
      <contour>
        <pt x="254" y="599" on="1"/>
        <pt x="254" y="636" on="0"/>
        <pt x="214" y="680" on="0"/>
        <pt x="183" y="680" on="1"/>
        <pt x="151" y="680" on="0"/>
        <pt x="112" y="636" on="0"/>
        <pt x="112" y="599" on="1"/>
        <pt x="112" y="562" on="0"/>
        <pt x="151" y="517" on="0"/>
        <pt x="183" y="517" on="1"/>
        <pt x="214" y="517" on="0"/>
        <pt x="254" y="562" on="0"/>
      </contour>
    </TTGlyph>
    <TTGlyph name="dieresis" xMin="100" yMin="497" xMax="300" yMax="575">
      <contour>
        <pt x="300" y="536" on="1"/>
        <pt x="300" y="519" on="0"/>
        <pt x="278" y="497" on="0"/>
        <pt x="262" y="497" on="1"/>
        <pt x="245" y="497" on="0"/>
        <pt x="222" y="519" on="0"/>
        <pt x="222" y="536" on="1"/>
        <pt x="222" y="553" on="0"/>
        <pt x="245" y="575" on="0"/>
        <pt x="262" y="575" on="1"/>
        <pt x="278" y="575" on="0"/>
        <pt x="300" y="553" on="0"/>
      </contour>
      <contour>
        <pt x="178" y="536" on="1"/>
        <pt x="178" y="519" on="0"/>
        <pt x="155" y="497" on="0"/>
        <pt x="138" y="497" on="1"/>
        <pt x="122" y="497" on="0"/>
        <pt x="100" y="519" on="0"/>
        <pt x="100" y="536" on="1"/>
        <pt x="100" y="553" on="0"/>
        <pt x="122" y="575" on="0"/>
        <pt x="138" y="575" on="1"/>
        <pt x="155" y="575" on="0"/>
        <pt x="178" y="553" on="0"/>
      </contour>
    </TTGlyph>
    <TTGlyph name="divide" xMin="36" yMin="221" xMax="316" yMax="521">
      <contour>
        <pt x="36" y="400" on="1"/>
        <pt x="316" y="400" on="1"/>
        <pt x="316" y="342" on="1"/>
        <pt x="36" y="342" on="1"/>
      </contour>
      <contour>
        <pt x="137" y="482" on="1"/>
        <pt x="137" y="498" on="0"/>
        <pt x="159" y="521" on="0"/>
        <pt x="175" y="521" on="1"/>
        <pt x="192" y="521" on="0"/>
        <pt x="213" y="498" on="0"/>
        <pt x="213" y="482" on="1"/>
        <pt x="213" y="466" on="0"/>
        <pt x="191" y="443" on="0"/>
        <pt x="174" y="443" on="1"/>
        <pt x="158" y="443" on="0"/>
        <pt x="137" y="466" on="0"/>
      </contour>
      <contour>
        <pt x="137" y="260" on="1"/>
        <pt x="137" y="276" on="0"/>
        <pt x="159" y="299" on="0"/>
        <pt x="175" y="299" on="1"/>
        <pt x="192" y="299" on="0"/>
        <pt x="214" y="276" on="0"/>
        <pt x="214" y="260" on="1"/>
        <pt x="214" y="244" on="0"/>
        <pt x="192" y="221" on="0"/>
        <pt x="175" y="221" on="1"/>
        <pt x="159" y="221" on="0"/>
        <pt x="137" y="244" on="0"/>
      </contour>
    </TTGlyph>
    <TTGlyph name="divide.lin" xMin="36" yMin="221" xMax="316" yMax="521">
      <component glyphName="divide" x="0" y="0" flags="0x204"/>
    </TTGlyph>
    <TTGlyph name="dollar" xMin="9" yMin="-72" xMax="320" yMax="795">
      <contour>
        <pt x="257" y="786" on="1"/>
        <pt x="247" y="718" on="1"/>
        <pt x="266" y="711" on="0"/>
        <pt x="299" y="691" on="0"/>
        <pt x="313" y="679" on="1"/>
        <pt x="284" y="622" on="1"/>
        <pt x="259" y="644" on="0"/>
        <pt x="238" y="655" on="1"/>
        <pt x="199" y="389" on="1"/>
        <pt x="221" y="365" on="0"/>
        <pt x="264" y="317" on="0"/>
        <pt x="298" y="263" on="0"/>
        <pt x="320" y="201" on="0"/>
        <pt x="320" y="164" on="1"/>
        <pt x="320" y="125" on="0"/>
        <pt x="295" y="61" on="0"/>
        <pt x="252" y="14" on="0"/>
        <pt x="195" y="-12" on="0"/>
        <pt x="162" y="-12" on="1"/>
        <pt x="157" y="-12" on="0"/>
        <pt x="147" y="-12" on="0"/>
        <pt x="142" y="-11" on="1"/>
        <pt x="133" y="-72" on="1"/>
        <pt x="84" y="-63" on="1"/>
        <pt x="93" y="0" on="1"/>
        <pt x="70" y="8" on="0"/>
        <pt x="29" y="31" on="0"/>
        <pt x="9" y="45" on="1"/>
        <pt x="38" y="101" on="1"/>
        <pt x="70" y="76" on="0"/>
        <pt x="102" y="61" on="1"/>
        <pt x="144" y="353" on="1"/>
        <pt x="123" y="377" on="0"/>
        <pt x="81" y="423" on="0"/>
        <pt x="48" y="473" on="0"/>
        <pt x="28" y="529" on="0"/>
        <pt x="28" y="561" on="1"/>
        <pt x="28" y="598" on="0"/>
        <pt x="52" y="660" on="0"/>
        <pt x="93" y="705" on="0"/>
        <pt x="149" y="730" on="0"/>
        <pt x="181" y="730" on="1"/>
        <pt x="186" y="730" on="0"/>
        <pt x="194" y="730" on="0"/>
        <pt x="198" y="729" on="1"/>
        <pt x="208" y="795" on="1"/>
      </contour>
      <contour>
        <pt x="253" y="164" on="1"/>
        <pt x="253" y="204" on="0"/>
        <pt x="215" y="271" on="0"/>
        <pt x="187" y="304" on="1"/>
        <pt x="150" y="47" on="1"/>
        <pt x="160" y="47" on="1"/>
        <pt x="208" y="47" on="0"/>
        <pt x="253" y="113" on="0"/>
      </contour>
      <contour>
        <pt x="95" y="561" on="1"/>
        <pt x="95" y="526" on="0"/>
        <pt x="130" y="466" on="0"/>
        <pt x="156" y="436" on="1"/>
        <pt x="190" y="669" on="1"/>
        <pt x="186" y="670" on="0"/>
        <pt x="179" y="670" on="1"/>
        <pt x="141" y="670" on="0"/>
        <pt x="95" y="608" on="0"/>
      </contour>
    </TTGlyph>
    <TTGlyph name="dollar.lin" xMin="9" yMin="-72" xMax="320" yMax="795">
      <contour>
        <pt x="257" y="786" on="1"/>
        <pt x="247" y="718" on="1"/>
        <pt x="266" y="711" on="0"/>
        <pt x="299" y="691" on="0"/>
        <pt x="313" y="679" on="1"/>
        <pt x="284" y="622" on="1"/>
        <pt x="259" y="644" on="0"/>
        <pt x="238" y="655" on="1"/>
        <pt x="199" y="389" on="1"/>
        <pt x="221" y="365" on="0"/>
        <pt x="264" y="317" on="0"/>
        <pt x="298" y="263" on="0"/>
        <pt x="320" y="201" on="0"/>
        <pt x="320" y="164" on="1"/>
        <pt x="320" y="125" on="0"/>
        <pt x="295" y="61" on="0"/>
        <pt x="252" y="14" on="0"/>
        <pt x="195" y="-12" on="0"/>
        <pt x="162" y="-12" on="1"/>
        <pt x="157" y="-12" on="0"/>
        <pt x="147" y="-12" on="0"/>
        <pt x="142" y="-11" on="1"/>
        <pt x="133" y="-72" on="1"/>
        <pt x="84" y="-63" on="1"/>
        <pt x="93" y="0" on="1"/>
        <pt x="70" y="8" on="0"/>
        <pt x="29" y="31" on="0"/>
        <pt x="9" y="45" on="1"/>
        <pt x="38" y="101" on="1"/>
        <pt x="70" y="76" on="0"/>
        <pt x="102" y="61" on="1"/>
        <pt x="144" y="353" on="1"/>
        <pt x="123" y="377" on="0"/>
        <pt x="81" y="423" on="0"/>
        <pt x="48" y="473" on="0"/>
        <pt x="28" y="529" on="0"/>
        <pt x="28" y="561" on="1"/>
        <pt x="28" y="598" on="0"/>
        <pt x="52" y="660" on="0"/>
        <pt x="93" y="705" on="0"/>
        <pt x="149" y="730" on="0"/>
        <pt x="181" y="730" on="1"/>
        <pt x="186" y="730" on="0"/>
        <pt x="194" y="730" on="0"/>
        <pt x="198" y="729" on="1"/>
        <pt x="208" y="795" on="1"/>
      </contour>
      <contour>
        <pt x="253" y="164" on="1"/>
        <pt x="253" y="204" on="0"/>
        <pt x="215" y="271" on="0"/>
        <pt x="187" y="304" on="1"/>
        <pt x="150" y="47" on="1"/>
        <pt x="160" y="47" on="1"/>
        <pt x="208" y="47" on="0"/>
        <pt x="253" y="113" on="0"/>
      </contour>
      <contour>
        <pt x="95" y="561" on="1"/>
        <pt x="95" y="526" on="0"/>
        <pt x="130" y="466" on="0"/>
        <pt x="156" y="436" on="1"/>
        <pt x="190" y="669" on="1"/>
        <pt x="186" y="670" on="0"/>
        <pt x="179" y="670" on="1"/>
        <pt x="141" y="670" on="0"/>
        <pt x="95" y="608" on="0"/>
      </contour>
    </TTGlyph>
    <TTGlyph name="dotaccent" xMin="160" yMin="496" xMax="240" yMax="576">
      <contour>
        <pt x="160" y="536" on="1"/>
        <pt x="160" y="553" on="0"/>
        <pt x="183" y="576" on="0"/>
        <pt x="200" y="576" on="1"/>
        <pt x="217" y="576" on="0"/>
        <pt x="240" y="553" on="0"/>
        <pt x="240" y="536" on="1"/>
        <pt x="240" y="519" on="0"/>
        <pt x="217" y="496" on="0"/>
        <pt x="200" y="496" on="1"/>
        <pt x="183" y="496" on="0"/>
        <pt x="160" y="519" on="0"/>
      </contour>
    </TTGlyph>
    <TTGlyph name="dotlessi" xMin="42" yMin="0" xMax="110" yMax="446">
      <contour>
        <pt x="42" y="0" on="1"/>
        <pt x="42" y="446" on="1"/>
        <pt x="110" y="446" on="1"/>
        <pt x="110" y="0" on="1"/>
      </contour>
    </TTGlyph>
    <TTGlyph name="e" xMin="24" yMin="-10" xMax="294" yMax="457">
      <contour>
        <pt x="294" y="238" on="1"/>
        <pt x="294" y="227" on="0"/>
        <pt x="294" y="211" on="0"/>
        <pt x="292" y="199" on="1"/>
        <pt x="91" y="199" on="1"/>
        <pt x="90" y="167" on="0"/>
        <pt x="101" y="112" on="0"/>
        <pt x="125" y="71" on="0"/>
        <pt x="163" y="47" on="0"/>
        <pt x="189" y="47" on="1"/>
        <pt x="206" y="47" on="0"/>
        <pt x="243" y="59" on="0"/>
        <pt x="267" y="71" on="1"/>
        <pt x="286" y="19" on="1"/>
        <pt x="228" y="-10" on="0"/>
        <pt x="179" y="-10" on="1"/>
        <pt x="145" y="-10" on="0"/>
        <pt x="88" y="17" on="0"/>
        <pt x="47" y="73" on="0"/>
        <pt x="24" y="160" on="0"/>
        <pt x="24" y="221" on="1"/>
        <pt x="24" y="270" on="0"/>
        <pt x="44" y="356" on="0"/>
        <pt x="82" y="420" on="0"/>
        <pt x="135" y="457" on="0"/>
        <pt x="168" y="457" on="1"/>
        <pt x="197" y="457" on="0"/>
        <pt x="244" y="424" on="0"/>
        <pt x="277" y="365" on="0"/>
        <pt x="294" y="285" on="0"/>
      </contour>
      <contour>
        <pt x="231" y="251" on="1"/>
        <pt x="231" y="281" on="0"/>
        <pt x="222" y="336" on="0"/>
        <pt x="206" y="376" on="0"/>
        <pt x="182" y="400" on="0"/>
        <pt x="167" y="400" on="1"/>
        <pt x="135" y="400" on="0"/>
        <pt x="95" y="321" on="0"/>
        <pt x="92" y="251" on="1"/>
      </contour>
    </TTGlyph>
    <TTGlyph name="eacute" xMin="24" yMin="-10" xMax="294" yMax="620">
      <component glyphName="e" x="0" y="0" flags="0x204"/>
      <component glyphName="acute" x="9" y="0" flags="0x4"/>
    </TTGlyph>
    <TTGlyph name="ebreve" xMin="24" yMin="-10" xMax="294" yMax="590">
      <component glyphName="e" x="0" y="0" flags="0x204"/>
      <component glyphName="breve" x="-36" y="0" flags="0x4"/>
    </TTGlyph>
    <TTGlyph name="ecaron" xMin="24" yMin="-10" xMax="294" yMax="615">
      <component glyphName="e" x="0" y="0" flags="0x204"/>
      <component glyphName="caron" x="-34" y="0" flags="0x4"/>
    </TTGlyph>
    <TTGlyph name="ecircumflex" xMin="24" yMin="-10" xMax="294" yMax="619">
      <component glyphName="e" x="0" y="0" flags="0x204"/>
      <component glyphName="circumflex" x="-38" y="0" flags="0x4"/>
    </TTGlyph>
    <TTGlyph name="edieresis" xMin="24" yMin="-10" xMax="294" yMax="575">
      <component glyphName="e" x="0" y="0" flags="0x204"/>
      <component glyphName="dieresis" x="-36" y="0" flags="0x4"/>
    </TTGlyph>
    <TTGlyph name="edotaccent" xMin="24" yMin="-10" xMax="294" yMax="576">
      <component glyphName="e" x="0" y="0" flags="0x204"/>
      <component glyphName="dotaccent" x="-36" y="0" flags="0x4"/>
    </TTGlyph>
    <TTGlyph name="egrave" xMin="24" yMin="-10" xMax="294" yMax="620">
      <component glyphName="e" x="0" y="0" flags="0x204"/>
      <component glyphName="grave" x="-91" y="0" flags="0x4"/>
    </TTGlyph>
    <TTGlyph name="eight" xMin="33" yMin="-11" xMax="341" yMax="730">
      <contour>
        <pt x="341" y="185" on="1"/>
        <pt x="341" y="144" on="0"/>
        <pt x="319" y="73" on="0"/>
        <pt x="279" y="20" on="0"/>
        <pt x="222" y="-11" on="0"/>
        <pt x="187" y="-11" on="1"/>
        <pt x="152" y="-11" on="0"/>
        <pt x="95" y="20" on="0"/>
        <pt x="55" y="73" on="0"/>
        <pt x="33" y="144" on="0"/>
        <pt x="33" y="185" on="1"/>
        <pt x="33" y="211" on="0"/>
        <pt x="43" y="266" on="0"/>
        <pt x="64" y="315" on="0"/>
        <pt x="96" y="356" on="0"/>
        <pt x="119" y="368" on="1"/>
        <pt x="80" y="394" on="0"/>
        <pt x="41" y="482" on="0"/>
        <pt x="41" y="535" on="1"/>
        <pt x="41" y="576" on="0"/>
        <pt x="62" y="647" on="0"/>
        <pt x="101" y="700" on="0"/>
        <pt x="154" y="730" on="0"/>
        <pt x="187" y="730" on="1"/>
        <pt x="220" y="730" on="0"/>
        <pt x="274" y="700" on="0"/>
        <pt x="313" y="647" on="0"/>
        <pt x="334" y="576" on="0"/>
        <pt x="334" y="535" on="1"/>
        <pt x="334" y="482" on="0"/>
        <pt x="295" y="394" on="0"/>
        <pt x="257" y="369" on="1"/>
        <pt x="279" y="357" on="0"/>
        <pt x="310" y="317" on="0"/>
        <pt x="331" y="267" on="0"/>
        <pt x="341" y="211" on="0"/>
      </contour>
      <contour>
        <pt x="266" y="535" on="1"/>
        <pt x="266" y="594" on="0"/>
        <pt x="226" y="668" on="0"/>
        <pt x="188" y="668" on="1"/>
        <pt x="150" y="668" on="0"/>
        <pt x="109" y="594" on="0"/>
        <pt x="109" y="535" on="1"/>
        <pt x="109" y="470" on="0"/>
        <pt x="154" y="395" on="0"/>
        <pt x="188" y="395" on="1"/>
        <pt x="221" y="395" on="0"/>
        <pt x="266" y="470" on="0"/>
      </contour>
      <contour>
        <pt x="274" y="188" on="1"/>
        <pt x="274" y="259" on="0"/>
        <pt x="223" y="335" on="0"/>
        <pt x="186" y="335" on="1"/>
        <pt x="149" y="335" on="0"/>
        <pt x="100" y="259" on="0"/>
        <pt x="100" y="188" on="1"/>
        <pt x="100" y="162" on="0"/>
        <pt x="112" y="112" on="0"/>
        <pt x="134" y="74" on="0"/>
        <pt x="166" y="51" on="0"/>
        <pt x="186" y="51" on="1"/>
        <pt x="207" y="51" on="0"/>
        <pt x="239" y="74" on="0"/>
        <pt x="262" y="112" on="0"/>
        <pt x="274" y="162" on="0"/>
      </contour>
    </TTGlyph>
    <TTGlyph name="eight.lin" xMin="33" yMin="-11" xMax="341" yMax="730">
      <contour>
        <pt x="341" y="185" on="1"/>
        <pt x="341" y="144" on="0"/>
        <pt x="319" y="73" on="0"/>
        <pt x="279" y="20" on="0"/>
        <pt x="222" y="-11" on="0"/>
        <pt x="187" y="-11" on="1"/>
        <pt x="152" y="-11" on="0"/>
        <pt x="95" y="20" on="0"/>
        <pt x="55" y="73" on="0"/>
        <pt x="33" y="144" on="0"/>
        <pt x="33" y="185" on="1"/>
        <pt x="33" y="211" on="0"/>
        <pt x="43" y="266" on="0"/>
        <pt x="64" y="315" on="0"/>
        <pt x="96" y="356" on="0"/>
        <pt x="119" y="368" on="1"/>
        <pt x="80" y="394" on="0"/>
        <pt x="41" y="482" on="0"/>
        <pt x="41" y="535" on="1"/>
        <pt x="41" y="576" on="0"/>
        <pt x="62" y="647" on="0"/>
        <pt x="101" y="700" on="0"/>
        <pt x="154" y="730" on="0"/>
        <pt x="187" y="730" on="1"/>
        <pt x="220" y="730" on="0"/>
        <pt x="274" y="700" on="0"/>
        <pt x="313" y="647" on="0"/>
        <pt x="334" y="576" on="0"/>
        <pt x="334" y="535" on="1"/>
        <pt x="334" y="482" on="0"/>
        <pt x="295" y="394" on="0"/>
        <pt x="257" y="369" on="1"/>
        <pt x="279" y="357" on="0"/>
        <pt x="310" y="317" on="0"/>
        <pt x="331" y="267" on="0"/>
        <pt x="341" y="211" on="0"/>
      </contour>
      <contour>
        <pt x="266" y="535" on="1"/>
        <pt x="266" y="594" on="0"/>
        <pt x="226" y="668" on="0"/>
        <pt x="188" y="668" on="1"/>
        <pt x="150" y="668" on="0"/>
        <pt x="109" y="594" on="0"/>
        <pt x="109" y="535" on="1"/>
        <pt x="109" y="470" on="0"/>
        <pt x="154" y="395" on="0"/>
        <pt x="188" y="395" on="1"/>
        <pt x="221" y="395" on="0"/>
        <pt x="266" y="470" on="0"/>
      </contour>
      <contour>
        <pt x="274" y="188" on="1"/>
        <pt x="274" y="259" on="0"/>
        <pt x="223" y="335" on="0"/>
        <pt x="186" y="335" on="1"/>
        <pt x="149" y="335" on="0"/>
        <pt x="100" y="259" on="0"/>
        <pt x="100" y="188" on="1"/>
        <pt x="100" y="162" on="0"/>
        <pt x="112" y="112" on="0"/>
        <pt x="134" y="74" on="0"/>
        <pt x="166" y="51" on="0"/>
        <pt x="186" y="51" on="1"/>
        <pt x="207" y="51" on="0"/>
        <pt x="239" y="74" on="0"/>
        <pt x="262" y="112" on="0"/>
        <pt x="274" y="162" on="0"/>
      </contour>
    </TTGlyph>
    <TTGlyph name="ellipsis" xMin="31" yMin="-10" xMax="433" yMax="84">
      <contour>
        <pt x="31" y="37" on="1"/>
        <pt x="31" y="57" on="0"/>
        <pt x="57" y="84" on="0"/>
        <pt x="77" y="84" on="1"/>
        <pt x="97" y="84" on="0"/>
        <pt x="123" y="57" on="0"/>
        <pt x="123" y="37" on="1"/>
        <pt x="123" y="17" on="0"/>
        <pt x="97" y="-10" on="0"/>
        <pt x="77" y="-10" on="1"/>
        <pt x="57" y="-10" on="0"/>
        <pt x="31" y="17" on="0"/>
      </contour>
      <contour>
        <pt x="186" y="37" on="1"/>
        <pt x="186" y="57" on="0"/>
        <pt x="212" y="84" on="0"/>
        <pt x="232" y="84" on="1"/>
        <pt x="252" y="84" on="0"/>
        <pt x="278" y="57" on="0"/>
        <pt x="278" y="37" on="1"/>
        <pt x="278" y="17" on="0"/>
        <pt x="252" y="-10" on="0"/>
        <pt x="232" y="-10" on="1"/>
        <pt x="212" y="-10" on="0"/>
        <pt x="186" y="17" on="0"/>
      </contour>
      <contour>
        <pt x="341" y="37" on="1"/>
        <pt x="341" y="57" on="0"/>
        <pt x="367" y="84" on="0"/>
        <pt x="387" y="84" on="1"/>
        <pt x="407" y="84" on="0"/>
        <pt x="433" y="57" on="0"/>
        <pt x="433" y="37" on="1"/>
        <pt x="433" y="17" on="0"/>
        <pt x="407" y="-10" on="0"/>
        <pt x="387" y="-10" on="1"/>
        <pt x="367" y="-10" on="0"/>
        <pt x="341" y="17" on="0"/>
      </contour>
    </TTGlyph>
    <TTGlyph name="emacron" xMin="24" yMin="-10" xMax="294" yMax="550">
      <component glyphName="e" x="0" y="0" flags="0x204"/>
      <component glyphName="macron" x="-36" y="0" flags="0x4"/>
    </TTGlyph>
    <TTGlyph name="emdash" xMin="30" yMin="236" xMax="420" yMax="300">
      <contour>
        <pt x="30" y="236" on="1"/>
        <pt x="30" y="300" on="1"/>
        <pt x="420" y="300" on="1"/>
        <pt x="420" y="236" on="1"/>
      </contour>
    </TTGlyph>
    <TTGlyph name="emdash.cap" xMin="30" yMin="339" xMax="420" yMax="403">
      <component glyphName="emdash" x="0" y="103" flags="0x204"/>
    </TTGlyph>
    <TTGlyph name="endash" xMin="30" yMin="236" xMax="270" yMax="300">
      <contour>
        <pt x="30" y="236" on="1"/>
        <pt x="30" y="300" on="1"/>
        <pt x="270" y="300" on="1"/>
        <pt x="270" y="236" on="1"/>
      </contour>
    </TTGlyph>
    <TTGlyph name="endash.cap" xMin="30" yMin="339" xMax="270" yMax="403">
      <component glyphName="endash" x="0" y="103" flags="0x204"/>
    </TTGlyph>
    <TTGlyph name="eogonek" xMin="24" yMin="-188" xMax="294" yMax="457">
      <contour>
        <pt x="294" y="238" on="1"/>
        <pt x="294" y="227" on="0"/>
        <pt x="294" y="211" on="0"/>
        <pt x="292" y="199" on="1"/>
        <pt x="91" y="199" on="1"/>
        <pt x="90" y="167" on="0"/>
        <pt x="101" y="112" on="0"/>
        <pt x="125" y="71" on="0"/>
        <pt x="163" y="47" on="0"/>
        <pt x="189" y="47" on="1"/>
        <pt x="206" y="47" on="0"/>
        <pt x="243" y="59" on="0"/>
        <pt x="267" y="71" on="1"/>
        <pt x="286" y="19" on="1"/>
        <pt x="254" y="-10" on="0"/>
        <pt x="221" y="-80" on="0"/>
        <pt x="221" y="-105" on="1"/>
        <pt x="221" y="-122" on="0"/>
        <pt x="236" y="-140" on="0"/>
        <pt x="248" y="-140" on="1"/>
        <pt x="256" y="-140" on="0"/>
        <pt x="272" y="-134" on="0"/>
        <pt x="277" y="-129" on="1"/>
        <pt x="294" y="-161" on="1"/>
        <pt x="284" y="-172" on="0"/>
        <pt x="254" y="-188" on="0"/>
        <pt x="234" y="-188" on="1"/>
        <pt x="205" y="-188" on="0"/>
        <pt x="171" y="-150" on="0"/>
        <pt x="171" y="-118" on="1"/>
        <pt x="171" y="-95" on="0"/>
        <pt x="193" y="-39" on="0"/>
        <pt x="221" y="-5" on="1"/>
        <pt x="198" y="-10" on="0"/>
        <pt x="179" y="-10" on="1"/>
        <pt x="145" y="-10" on="0"/>
        <pt x="88" y="17" on="0"/>
        <pt x="47" y="73" on="0"/>
        <pt x="24" y="160" on="0"/>
        <pt x="24" y="221" on="1"/>
        <pt x="24" y="270" on="0"/>
        <pt x="44" y="356" on="0"/>
        <pt x="82" y="420" on="0"/>
        <pt x="135" y="457" on="0"/>
        <pt x="168" y="457" on="1"/>
        <pt x="197" y="457" on="0"/>
        <pt x="244" y="424" on="0"/>
        <pt x="277" y="365" on="0"/>
        <pt x="294" y="285" on="0"/>
      </contour>
      <contour>
        <pt x="231" y="251" on="1"/>
        <pt x="231" y="281" on="0"/>
        <pt x="222" y="336" on="0"/>
        <pt x="206" y="376" on="0"/>
        <pt x="182" y="400" on="0"/>
        <pt x="167" y="400" on="1"/>
        <pt x="135" y="400" on="0"/>
        <pt x="95" y="321" on="0"/>
        <pt x="92" y="251" on="1"/>
      </contour>
    </TTGlyph>
    <TTGlyph name="equal" xMin="36" yMin="269" xMax="223" yMax="473">
      <contour>
        <pt x="36" y="415" on="1"/>
        <pt x="36" y="473" on="1"/>
        <pt x="223" y="473" on="1"/>
        <pt x="223" y="415" on="1"/>
      </contour>
      <contour>
        <pt x="36" y="269" on="1"/>
        <pt x="36" y="327" on="1"/>
        <pt x="223" y="327" on="1"/>
        <pt x="223" y="269" on="1"/>
      </contour>
    </TTGlyph>
    <TTGlyph name="equal.lin" xMin="36" yMin="269" xMax="223" yMax="473">
      <component glyphName="equal" x="0" y="0" flags="0x204"/>
    </TTGlyph>
    <TTGlyph name="eth" xMin="25" yMin="-10" xMax="315" yMax="732">
      <contour>
        <pt x="52" y="580" on="1"/>
        <pt x="115" y="633" on="1"/>
        <pt x="102" y="649" on="0"/>
        <pt x="78" y="677" on="0"/>
        <pt x="67" y="689" on="1"/>
        <pt x="110" y="732" on="1"/>
        <pt x="124" y="718" on="0"/>
        <pt x="150" y="690" on="0"/>
        <pt x="163" y="674" on="1"/>
        <pt x="221" y="724" on="1"/>
        <pt x="256" y="682" on="1"/>
        <pt x="196" y="631" on="1"/>
        <pt x="249" y="554" on="0"/>
        <pt x="315" y="359" on="0"/>
        <pt x="315" y="243" on="1"/>
        <pt x="315" y="123" on="0"/>
        <pt x="237" y="-10" on="0"/>
        <pt x="171" y="-10" on="1"/>
        <pt x="105" y="-10" on="0"/>
        <pt x="26" y="113" on="0"/>
        <pt x="25" y="224" on="1"/>
        <pt x="25" y="276" on="0"/>
        <pt x="45" y="361" on="0"/>
        <pt x="79" y="423" on="0"/>
        <pt x="125" y="457" on="0"/>
        <pt x="151" y="457" on="1"/>
        <pt x="206" y="457" on="0"/>
        <pt x="247" y="382" on="1"/>
        <pt x="231" y="439" on="0"/>
        <pt x="177" y="544" on="0"/>
        <pt x="147" y="589" on="1"/>
        <pt x="87" y="538" on="1"/>
      </contour>
      <contour>
        <pt x="247" y="225" on="1"/>
        <pt x="247" y="261" on="0"/>
        <pt x="236" y="323" on="0"/>
        <pt x="214" y="370" on="0"/>
        <pt x="182" y="397" on="0"/>
        <pt x="161" y="397" on="1"/>
        <pt x="143" y="397" on="0"/>
        <pt x="117" y="370" on="0"/>
        <pt x="101" y="323" on="0"/>
        <pt x="93" y="260" on="0"/>
        <pt x="93" y="224" on="1"/>
        <pt x="93" y="185" on="0"/>
        <pt x="102" y="120" on="0"/>
        <pt x="122" y="73" on="0"/>
        <pt x="151" y="47" on="0"/>
        <pt x="171" y="47" on="1"/>
        <pt x="191" y="47" on="0"/>
        <pt x="220" y="76" on="0"/>
        <pt x="238" y="125" on="0"/>
        <pt x="247" y="190" on="0"/>
      </contour>
    </TTGlyph>
    <TTGlyph name="exclam" xMin="30" yMin="-10" xMax="123" yMax="733">
      <contour>
        <pt x="98" y="182" on="1"/>
        <pt x="54" y="182" on="1"/>
        <pt x="38" y="733" on="1"/>
        <pt x="114" y="733" on="1"/>
      </contour>
      <contour>
        <pt x="123" y="37" on="1"/>
        <pt x="123" y="17" on="0"/>
        <pt x="96" y="-10" on="0"/>
        <pt x="76" y="-10" on="1"/>
        <pt x="56" y="-10" on="0"/>
        <pt x="30" y="17" on="0"/>
        <pt x="30" y="37" on="1"/>
        <pt x="30" y="56" on="0"/>
        <pt x="56" y="84" on="0"/>
        <pt x="76" y="84" on="1"/>
        <pt x="96" y="84" on="0"/>
        <pt x="123" y="56" on="0"/>
      </contour>
    </TTGlyph>
    <TTGlyph name="exclamdown" xMin="29" yMin="0" xMax="122" yMax="743">
      <contour>
        <pt x="29" y="696" on="1"/>
        <pt x="29" y="716" on="0"/>
        <pt x="56" y="743" on="0"/>
        <pt x="76" y="743" on="1"/>
        <pt x="96" y="743" on="0"/>
        <pt x="122" y="716" on="0"/>
        <pt x="122" y="696" on="1"/>
        <pt x="122" y="677" on="0"/>
        <pt x="96" y="649" on="0"/>
        <pt x="76" y="649" on="1"/>
        <pt x="56" y="649" on="0"/>
        <pt x="29" y="677" on="0"/>
      </contour>
      <contour>
        <pt x="54" y="551" on="1"/>
        <pt x="98" y="551" on="1"/>
        <pt x="114" y="0" on="1"/>
        <pt x="38" y="0" on="1"/>
      </contour>
    </TTGlyph>
    <TTGlyph name="f" xMin="6" yMin="0" xMax="220" yMax="740">
      <contour>
        <pt x="213" y="674" on="1"/>
        <pt x="206" y="676" on="0"/>
        <pt x="188" y="677" on="0"/>
        <pt x="181" y="677" on="1"/>
        <pt x="154" y="677" on="0"/>
        <pt x="128" y="648" on="0"/>
        <pt x="128" y="605" on="1"/>
        <pt x="128" y="446" on="1"/>
        <pt x="204" y="446" on="1"/>
        <pt x="204" y="386" on="1"/>
        <pt x="128" y="386" on="1"/>
        <pt x="128" y="0" on="1"/>
        <pt x="62" y="0" on="1"/>
        <pt x="62" y="386" on="1"/>
        <pt x="6" y="386" on="1"/>
        <pt x="6" y="401" on="1"/>
        <pt x="62" y="453" on="1"/>
        <pt x="62" y="598" on="1"/>
        <pt x="62" y="673" on="0"/>
        <pt x="117" y="740" on="0"/>
        <pt x="176" y="740" on="1"/>
        <pt x="191" y="740" on="0"/>
        <pt x="214" y="737" on="0"/>
        <pt x="220" y="735" on="1"/>
      </contour>
    </TTGlyph>
    <TTGlyph name="f_f" xMin="6" yMin="0" xMax="428" yMax="740">
      <contour>
        <pt x="213" y="674" on="1"/>
        <pt x="206" y="676" on="0"/>
        <pt x="188" y="677" on="0"/>
        <pt x="181" y="677" on="1"/>
        <pt x="154" y="677" on="0"/>
        <pt x="128" y="648" on="0"/>
        <pt x="128" y="605" on="1"/>
        <pt x="128" y="446" on="1"/>
        <pt x="204" y="446" on="1"/>
        <pt x="204" y="386" on="1"/>
        <pt x="128" y="386" on="1"/>
        <pt x="128" y="0" on="1"/>
        <pt x="62" y="0" on="1"/>
        <pt x="62" y="386" on="1"/>
        <pt x="6" y="386" on="1"/>
        <pt x="6" y="401" on="1"/>
        <pt x="62" y="453" on="1"/>
        <pt x="62" y="598" on="1"/>
        <pt x="62" y="673" on="0"/>
        <pt x="117" y="740" on="0"/>
        <pt x="176" y="740" on="1"/>
        <pt x="191" y="740" on="0"/>
        <pt x="214" y="737" on="0"/>
        <pt x="220" y="735" on="1"/>
      </contour>
      <contour>
        <pt x="421" y="674" on="1"/>
        <pt x="414" y="676" on="0"/>
        <pt x="396" y="677" on="0"/>
        <pt x="389" y="677" on="1"/>
        <pt x="362" y="677" on="0"/>
        <pt x="336" y="648" on="0"/>
        <pt x="336" y="605" on="1"/>
        <pt x="336" y="446" on="1"/>
        <pt x="412" y="446" on="1"/>
        <pt x="412" y="386" on="1"/>
        <pt x="336" y="386" on="1"/>
        <pt x="336" y="0" on="1"/>
        <pt x="270" y="0" on="1"/>
        <pt x="270" y="386" on="1"/>
        <pt x="214" y="386" on="1"/>
        <pt x="214" y="401" on="1"/>
        <pt x="270" y="453" on="1"/>
        <pt x="270" y="598" on="1"/>
        <pt x="270" y="673" on="0"/>
        <pt x="325" y="740" on="0"/>
        <pt x="384" y="740" on="1"/>
        <pt x="399" y="740" on="0"/>
        <pt x="422" y="737" on="0"/>
        <pt x="428" y="735" on="1"/>
      </contour>
    </TTGlyph>
    <TTGlyph name="f_f_i" xMin="6" yMin="0" xMax="537" yMax="740">
      <contour>
        <pt x="213" y="674" on="1"/>
        <pt x="206" y="676" on="0"/>
        <pt x="188" y="677" on="0"/>
        <pt x="181" y="677" on="1"/>
        <pt x="154" y="677" on="0"/>
        <pt x="128" y="648" on="0"/>
        <pt x="128" y="605" on="1"/>
        <pt x="128" y="446" on="1"/>
        <pt x="204" y="446" on="1"/>
        <pt x="204" y="386" on="1"/>
        <pt x="128" y="386" on="1"/>
        <pt x="128" y="0" on="1"/>
        <pt x="62" y="0" on="1"/>
        <pt x="62" y="386" on="1"/>
        <pt x="6" y="386" on="1"/>
        <pt x="6" y="401" on="1"/>
        <pt x="62" y="453" on="1"/>
        <pt x="62" y="598" on="1"/>
        <pt x="62" y="673" on="0"/>
        <pt x="117" y="740" on="0"/>
        <pt x="176" y="740" on="1"/>
        <pt x="191" y="740" on="0"/>
        <pt x="214" y="737" on="0"/>
        <pt x="220" y="735" on="1"/>
      </contour>
      <contour>
        <pt x="421" y="674" on="1"/>
        <pt x="414" y="676" on="0"/>
        <pt x="396" y="677" on="0"/>
        <pt x="389" y="677" on="1"/>
        <pt x="362" y="677" on="0"/>
        <pt x="336" y="648" on="0"/>
        <pt x="336" y="605" on="1"/>
        <pt x="336" y="446" on="1"/>
        <pt x="412" y="446" on="1"/>
        <pt x="412" y="386" on="1"/>
        <pt x="336" y="386" on="1"/>
        <pt x="336" y="0" on="1"/>
        <pt x="270" y="0" on="1"/>
        <pt x="270" y="386" on="1"/>
        <pt x="214" y="386" on="1"/>
        <pt x="214" y="401" on="1"/>
        <pt x="270" y="453" on="1"/>
        <pt x="270" y="598" on="1"/>
        <pt x="270" y="673" on="0"/>
        <pt x="325" y="740" on="0"/>
        <pt x="384" y="740" on="1"/>
        <pt x="399" y="740" on="0"/>
        <pt x="422" y="737" on="0"/>
        <pt x="428" y="735" on="1"/>
      </contour>
      <contour>
        <pt x="537" y="574" on="1"/>
        <pt x="537" y="555" on="0"/>
        <pt x="512" y="525" on="0"/>
        <pt x="492" y="525" on="1"/>
        <pt x="472" y="525" on="0"/>
        <pt x="447" y="555" on="0"/>
        <pt x="447" y="574" on="1"/>
        <pt x="447" y="594" on="0"/>
        <pt x="472" y="623" on="0"/>
        <pt x="492" y="623" on="1"/>
        <pt x="512" y="623" on="0"/>
        <pt x="537" y="594" on="0"/>
      </contour>
      <contour>
        <pt x="458" y="0" on="1"/>
        <pt x="458" y="446" on="1"/>
        <pt x="526" y="446" on="1"/>
        <pt x="526" y="0" on="1"/>
      </contour>
    </TTGlyph>
    <TTGlyph name="f_f_l" xMin="6" yMin="0" xMax="526" yMax="740">
      <contour>
        <pt x="213" y="674" on="1"/>
        <pt x="206" y="676" on="0"/>
        <pt x="188" y="677" on="0"/>
        <pt x="181" y="677" on="1"/>
        <pt x="154" y="677" on="0"/>
        <pt x="128" y="648" on="0"/>
        <pt x="128" y="605" on="1"/>
        <pt x="128" y="446" on="1"/>
        <pt x="204" y="446" on="1"/>
        <pt x="204" y="386" on="1"/>
        <pt x="128" y="386" on="1"/>
        <pt x="128" y="0" on="1"/>
        <pt x="62" y="0" on="1"/>
        <pt x="62" y="386" on="1"/>
        <pt x="6" y="386" on="1"/>
        <pt x="6" y="401" on="1"/>
        <pt x="62" y="453" on="1"/>
        <pt x="62" y="598" on="1"/>
        <pt x="62" y="673" on="0"/>
        <pt x="117" y="740" on="0"/>
        <pt x="176" y="740" on="1"/>
        <pt x="191" y="740" on="0"/>
        <pt x="214" y="737" on="0"/>
        <pt x="220" y="735" on="1"/>
      </contour>
      <contour>
        <pt x="421" y="674" on="1"/>
        <pt x="414" y="676" on="0"/>
        <pt x="396" y="677" on="0"/>
        <pt x="389" y="677" on="1"/>
        <pt x="362" y="677" on="0"/>
        <pt x="336" y="648" on="0"/>
        <pt x="336" y="605" on="1"/>
        <pt x="336" y="446" on="1"/>
        <pt x="412" y="446" on="1"/>
        <pt x="412" y="386" on="1"/>
        <pt x="336" y="386" on="1"/>
        <pt x="336" y="0" on="1"/>
        <pt x="270" y="0" on="1"/>
        <pt x="270" y="386" on="1"/>
        <pt x="214" y="386" on="1"/>
        <pt x="214" y="401" on="1"/>
        <pt x="270" y="453" on="1"/>
        <pt x="270" y="598" on="1"/>
        <pt x="270" y="673" on="0"/>
        <pt x="325" y="740" on="0"/>
        <pt x="384" y="740" on="1"/>
        <pt x="399" y="740" on="0"/>
        <pt x="422" y="737" on="0"/>
        <pt x="428" y="735" on="1"/>
      </contour>
      <contour>
        <pt x="458" y="0" on="1"/>
        <pt x="458" y="733" on="1"/>
        <pt x="526" y="733" on="1"/>
        <pt x="526" y="0" on="1"/>
      </contour>
    </TTGlyph>
    <TTGlyph name="fi" xMin="6" yMin="0" xMax="329" yMax="740">
      <contour>
        <pt x="329" y="574" on="1"/>
        <pt x="329" y="555" on="0"/>
        <pt x="304" y="525" on="0"/>
        <pt x="284" y="525" on="1"/>
        <pt x="264" y="525" on="0"/>
        <pt x="239" y="555" on="0"/>
        <pt x="239" y="574" on="1"/>
        <pt x="239" y="594" on="0"/>
        <pt x="264" y="623" on="0"/>
        <pt x="284" y="623" on="1"/>
        <pt x="304" y="623" on="0"/>
        <pt x="329" y="594" on="0"/>
      </contour>
      <contour>
        <pt x="213" y="674" on="1"/>
        <pt x="206" y="676" on="0"/>
        <pt x="188" y="677" on="0"/>
        <pt x="181" y="677" on="1"/>
        <pt x="154" y="677" on="0"/>
        <pt x="128" y="648" on="0"/>
        <pt x="128" y="605" on="1"/>
        <pt x="128" y="446" on="1"/>
        <pt x="204" y="446" on="1"/>
        <pt x="204" y="386" on="1"/>
        <pt x="128" y="386" on="1"/>
        <pt x="128" y="0" on="1"/>
        <pt x="62" y="0" on="1"/>
        <pt x="62" y="386" on="1"/>
        <pt x="6" y="386" on="1"/>
        <pt x="6" y="401" on="1"/>
        <pt x="62" y="453" on="1"/>
        <pt x="62" y="598" on="1"/>
        <pt x="62" y="673" on="0"/>
        <pt x="117" y="740" on="0"/>
        <pt x="176" y="740" on="1"/>
        <pt x="191" y="740" on="0"/>
        <pt x="214" y="737" on="0"/>
        <pt x="220" y="735" on="1"/>
      </contour>
      <contour>
        <pt x="250" y="0" on="1"/>
        <pt x="250" y="446" on="1"/>
        <pt x="318" y="446" on="1"/>
        <pt x="318" y="0" on="1"/>
      </contour>
    </TTGlyph>
    <TTGlyph name="five" xMin="29" yMin="-11" xMax="318" yMax="719">
      <contour>
        <pt x="318" y="226" on="1"/>
        <pt x="318" y="175" on="0"/>
        <pt x="295" y="88" on="0"/>
        <pt x="252" y="25" on="0"/>
        <pt x="188" y="-11" on="0"/>
        <pt x="147" y="-11" on="1"/>
        <pt x="113" y="-11" on="0"/>
        <pt x="61" y="4" on="0"/>
        <pt x="29" y="19" on="1"/>
        <pt x="55" y="79" on="1"/>
        <pt x="78" y="67" on="0"/>
        <pt x="122" y="53" on="0"/>
        <pt x="145" y="53" on="1"/>
        <pt x="193" y="53" on="0"/>
        <pt x="247" y="143" on="0"/>
        <pt x="247" y="219" on="1"/>
        <pt x="247" y="292" on="0"/>
        <pt x="191" y="376" on="0"/>
        <pt x="130" y="376" on="1"/>
        <pt x="111" y="376" on="0"/>
        <pt x="77" y="371" on="0"/>
        <pt x="61" y="366" on="1"/>
        <pt x="54" y="372" on="1"/>
        <pt x="54" y="719" on="1"/>
        <pt x="299" y="719" on="1"/>
        <pt x="299" y="655" on="1"/>
        <pt x="121" y="655" on="1"/>
        <pt x="121" y="436" on="1"/>
        <pt x="129" y="437" on="0"/>
        <pt x="144" y="438" on="0"/>
        <pt x="153" y="438" on="1"/>
        <pt x="192" y="438" on="0"/>
        <pt x="253" y="404" on="0"/>
        <pt x="296" y="346" on="0"/>
        <pt x="318" y="269" on="0"/>
      </contour>
    </TTGlyph>
    <TTGlyph name="five.lin" xMin="29" yMin="-11" xMax="318" yMax="719">
      <contour>
        <pt x="318" y="226" on="1"/>
        <pt x="318" y="175" on="0"/>
        <pt x="295" y="88" on="0"/>
        <pt x="252" y="25" on="0"/>
        <pt x="188" y="-11" on="0"/>
        <pt x="147" y="-11" on="1"/>
        <pt x="113" y="-11" on="0"/>
        <pt x="61" y="4" on="0"/>
        <pt x="29" y="19" on="1"/>
        <pt x="55" y="79" on="1"/>
        <pt x="78" y="67" on="0"/>
        <pt x="122" y="53" on="0"/>
        <pt x="145" y="53" on="1"/>
        <pt x="193" y="53" on="0"/>
        <pt x="247" y="143" on="0"/>
        <pt x="247" y="219" on="1"/>
        <pt x="247" y="292" on="0"/>
        <pt x="191" y="376" on="0"/>
        <pt x="130" y="376" on="1"/>
        <pt x="111" y="376" on="0"/>
        <pt x="77" y="371" on="0"/>
        <pt x="61" y="366" on="1"/>
        <pt x="54" y="372" on="1"/>
        <pt x="54" y="719" on="1"/>
        <pt x="299" y="719" on="1"/>
        <pt x="299" y="655" on="1"/>
        <pt x="121" y="655" on="1"/>
        <pt x="121" y="436" on="1"/>
        <pt x="129" y="437" on="0"/>
        <pt x="144" y="438" on="0"/>
        <pt x="153" y="438" on="1"/>
        <pt x="192" y="438" on="0"/>
        <pt x="253" y="404" on="0"/>
        <pt x="296" y="346" on="0"/>
        <pt x="318" y="269" on="0"/>
      </contour>
    </TTGlyph>
    <TTGlyph name="fl" xMin="6" yMin="0" xMax="318" yMax="740">
      <contour>
        <pt x="213" y="674" on="1"/>
        <pt x="206" y="676" on="0"/>
        <pt x="188" y="677" on="0"/>
        <pt x="181" y="677" on="1"/>
        <pt x="154" y="677" on="0"/>
        <pt x="128" y="648" on="0"/>
        <pt x="128" y="605" on="1"/>
        <pt x="128" y="446" on="1"/>
        <pt x="204" y="446" on="1"/>
        <pt x="204" y="386" on="1"/>
        <pt x="128" y="386" on="1"/>
        <pt x="128" y="0" on="1"/>
        <pt x="62" y="0" on="1"/>
        <pt x="62" y="386" on="1"/>
        <pt x="6" y="386" on="1"/>
        <pt x="6" y="401" on="1"/>
        <pt x="62" y="453" on="1"/>
        <pt x="62" y="598" on="1"/>
        <pt x="62" y="673" on="0"/>
        <pt x="117" y="740" on="0"/>
        <pt x="176" y="740" on="1"/>
        <pt x="191" y="740" on="0"/>
        <pt x="214" y="737" on="0"/>
        <pt x="220" y="735" on="1"/>
      </contour>
      <contour>
        <pt x="250" y="0" on="1"/>
        <pt x="250" y="733" on="1"/>
        <pt x="318" y="733" on="1"/>
        <pt x="318" y="0" on="1"/>
      </contour>
    </TTGlyph>
    <TTGlyph name="florin" xMin="18" yMin="0" xMax="268" yMax="730">
      <contour>
        <pt x="255" y="662" on="1"/>
        <pt x="247" y="664" on="0"/>
        <pt x="229" y="667" on="0"/>
        <pt x="217" y="667" on="1"/>
        <pt x="193" y="667" on="0"/>
        <pt x="168" y="638" on="0"/>
        <pt x="163" y="597" on="1"/>
        <pt x="147" y="446" on="1"/>
        <pt x="231" y="446" on="1"/>
        <pt x="231" y="386" on="1"/>
        <pt x="141" y="386" on="1"/>
        <pt x="99" y="0" on="1"/>
        <pt x="33" y="0" on="1"/>
        <pt x="74" y="386" on="1"/>
        <pt x="18" y="386" on="1"/>
        <pt x="19" y="401" on="1"/>
        <pt x="81" y="453" on="1"/>
        <pt x="96" y="593" on="1"/>
        <pt x="104" y="665" on="0"/>
        <pt x="161" y="730" on="0"/>
        <pt x="215" y="730" on="1"/>
        <pt x="232" y="730" on="0"/>
        <pt x="261" y="724" on="0"/>
        <pt x="268" y="722" on="1"/>
      </contour>
    </TTGlyph>
    <TTGlyph name="florin.lin" xMin="18" yMin="0" xMax="268" yMax="730">
      <contour>
        <pt x="255" y="662" on="1"/>
        <pt x="247" y="664" on="0"/>
        <pt x="229" y="667" on="0"/>
        <pt x="217" y="667" on="1"/>
        <pt x="193" y="667" on="0"/>
        <pt x="168" y="638" on="0"/>
        <pt x="163" y="597" on="1"/>
        <pt x="147" y="446" on="1"/>
        <pt x="231" y="446" on="1"/>
        <pt x="231" y="386" on="1"/>
        <pt x="141" y="386" on="1"/>
        <pt x="99" y="0" on="1"/>
        <pt x="33" y="0" on="1"/>
        <pt x="74" y="386" on="1"/>
        <pt x="18" y="386" on="1"/>
        <pt x="19" y="401" on="1"/>
        <pt x="81" y="453" on="1"/>
        <pt x="96" y="593" on="1"/>
        <pt x="104" y="665" on="0"/>
        <pt x="161" y="730" on="0"/>
        <pt x="215" y="730" on="1"/>
        <pt x="232" y="730" on="0"/>
        <pt x="261" y="724" on="0"/>
        <pt x="268" y="722" on="1"/>
      </contour>
    </TTGlyph>
    <TTGlyph name="four" xMin="2" yMin="0" xMax="355" yMax="722">
      <contour>
        <pt x="291" y="202" on="1"/>
        <pt x="291" y="0" on="1"/>
        <pt x="225" y="0" on="1"/>
        <pt x="225" y="202" on="1"/>
        <pt x="2" y="202" on="1"/>
        <pt x="2" y="224" on="1"/>
        <pt x="243" y="722" on="1"/>
        <pt x="291" y="722" on="1"/>
        <pt x="291" y="266" on="1"/>
        <pt x="355" y="266" on="1"/>
        <pt x="355" y="202" on="1"/>
      </contour>
      <contour>
        <pt x="225" y="553" on="1"/>
        <pt x="89" y="265" on="1"/>
        <pt x="225" y="265" on="1"/>
      </contour>
    </TTGlyph>
    <TTGlyph name="four.lin" xMin="2" yMin="0" xMax="355" yMax="722">
      <contour>
        <pt x="291" y="202" on="1"/>
        <pt x="291" y="0" on="1"/>
        <pt x="225" y="0" on="1"/>
        <pt x="225" y="202" on="1"/>
        <pt x="2" y="202" on="1"/>
        <pt x="2" y="224" on="1"/>
        <pt x="243" y="722" on="1"/>
        <pt x="291" y="722" on="1"/>
        <pt x="291" y="266" on="1"/>
        <pt x="355" y="266" on="1"/>
        <pt x="355" y="202" on="1"/>
      </contour>
      <contour>
        <pt x="225" y="553" on="1"/>
        <pt x="89" y="265" on="1"/>
        <pt x="225" y="265" on="1"/>
      </contour>
    </TTGlyph>
    <TTGlyph name="fraction" xMin="7" yMin="-9" xMax="414" yMax="753">
      <contour>
        <pt x="49" y="-9" on="1"/>
        <pt x="7" y="12" on="1"/>
        <pt x="372" y="753" on="1"/>
        <pt x="414" y="732" on="1"/>
      </contour>
    </TTGlyph>
    <TTGlyph name="fraction.lin" xMin="7" yMin="-9" xMax="414" yMax="753">
      <contour>
        <pt x="49" y="-9" on="1"/>
        <pt x="7" y="12" on="1"/>
        <pt x="372" y="753" on="1"/>
        <pt x="414" y="732" on="1"/>
      </contour>
    </TTGlyph>
    <TTGlyph name="g" xMin="24" yMin="-192" xMax="298" yMax="453">
      <contour>
        <pt x="298" y="-61" on="1"/>
        <pt x="298" y="-98" on="0"/>
        <pt x="281" y="-148" on="0"/>
        <pt x="250" y="-179" on="0"/>
        <pt x="207" y="-192" on="0"/>
        <pt x="181" y="-192" on="1"/>
        <pt x="126" y="-192" on="0"/>
        <pt x="72" y="-170" on="1"/>
        <pt x="84" y="-108" on="1"/>
        <pt x="107" y="-118" on="0"/>
        <pt x="155" y="-129" on="0"/>
        <pt x="175" y="-129" on="1"/>
        <pt x="204" y="-129" on="0"/>
        <pt x="230" y="-97" on="0"/>
        <pt x="230" y="-63" on="1"/>
        <pt x="230" y="36" on="1"/>
        <pt x="214" y="17" on="0"/>
        <pt x="172" y="-10" on="0"/>
        <pt x="146" y="-10" on="1"/>
        <pt x="123" y="-10" on="0"/>
        <pt x="79" y="17" on="0"/>
        <pt x="45" y="73" on="0"/>
        <pt x="24" y="156" on="0"/>
        <pt x="24" y="213" on="1"/>
        <pt x="24" y="267" on="0"/>
        <pt x="47" y="356" on="0"/>
        <pt x="84" y="419" on="0"/>
        <pt x="133" y="453" on="0"/>
        <pt x="160" y="453" on="1"/>
        <pt x="202" y="453" on="0"/>
        <pt x="231" y="419" on="1"/>
        <pt x="231" y="446" on="1"/>
        <pt x="298" y="446" on="1"/>
      </contour>
      <contour>
        <pt x="230" y="369" on="1"/>
        <pt x="218" y="383" on="0"/>
        <pt x="193" y="399" on="0"/>
        <pt x="173" y="399" on="1"/>
        <pt x="138" y="399" on="0"/>
        <pt x="92" y="299" on="0"/>
        <pt x="92" y="213" on="1"/>
        <pt x="92" y="124" on="0"/>
        <pt x="136" y="48" on="0"/>
        <pt x="170" y="48" on="1"/>
        <pt x="187" y="48" on="0"/>
        <pt x="219" y="67" on="0"/>
        <pt x="230" y="84" on="1"/>
      </contour>
    </TTGlyph>
    <TTGlyph name="gbreve" xMin="24" yMin="-192" xMax="298" yMax="590">
      <component glyphName="g" x="0" y="0" flags="0x204"/>
      <component glyphName="breve" x="-27" y="0" flags="0x4"/>
    </TTGlyph>
    <TTGlyph name="gcommaaccent" xMin="24" yMin="-192" xMax="298" yMax="668">
      <contour>
        <pt x="298" y="-61" on="1"/>
        <pt x="298" y="-98" on="0"/>
        <pt x="281" y="-148" on="0"/>
        <pt x="250" y="-179" on="0"/>
        <pt x="207" y="-192" on="0"/>
        <pt x="181" y="-192" on="1"/>
        <pt x="126" y="-192" on="0"/>
        <pt x="72" y="-170" on="1"/>
        <pt x="84" y="-108" on="1"/>
        <pt x="107" y="-118" on="0"/>
        <pt x="155" y="-129" on="0"/>
        <pt x="175" y="-129" on="1"/>
        <pt x="204" y="-129" on="0"/>
        <pt x="230" y="-97" on="0"/>
        <pt x="230" y="-63" on="1"/>
        <pt x="230" y="36" on="1"/>
        <pt x="214" y="17" on="0"/>
        <pt x="172" y="-10" on="0"/>
        <pt x="146" y="-10" on="1"/>
        <pt x="123" y="-10" on="0"/>
        <pt x="79" y="17" on="0"/>
        <pt x="45" y="73" on="0"/>
        <pt x="24" y="156" on="0"/>
        <pt x="24" y="213" on="1"/>
        <pt x="24" y="267" on="0"/>
        <pt x="47" y="356" on="0"/>
        <pt x="84" y="419" on="0"/>
        <pt x="133" y="453" on="0"/>
        <pt x="160" y="453" on="1"/>
        <pt x="202" y="453" on="0"/>
        <pt x="231" y="419" on="1"/>
        <pt x="231" y="446" on="1"/>
        <pt x="298" y="446" on="1"/>
      </contour>
      <contour>
        <pt x="230" y="369" on="1"/>
        <pt x="218" y="383" on="0"/>
        <pt x="193" y="399" on="0"/>
        <pt x="173" y="399" on="1"/>
        <pt x="138" y="399" on="0"/>
        <pt x="92" y="299" on="0"/>
        <pt x="92" y="213" on="1"/>
        <pt x="92" y="124" on="0"/>
        <pt x="136" y="48" on="0"/>
        <pt x="170" y="48" on="1"/>
        <pt x="187" y="48" on="0"/>
        <pt x="219" y="67" on="0"/>
        <pt x="230" y="84" on="1"/>
      </contour>
      <contour>
        <pt x="128" y="551" on="1"/>
        <pt x="128" y="567" on="0"/>
        <pt x="142" y="603" on="0"/>
        <pt x="166" y="635" on="0"/>
        <pt x="196" y="661" on="0"/>
        <pt x="211" y="668" on="1"/>
        <pt x="220" y="655" on="1"/>
        <pt x="194" y="634" on="0"/>
        <pt x="174" y="598" on="0"/>
        <pt x="170" y="578" on="1"/>
        <pt x="190" y="576" on="0"/>
        <pt x="214" y="553" on="0"/>
        <pt x="214" y="536" on="1"/>
        <pt x="214" y="520" on="0"/>
        <pt x="190" y="494" on="0"/>
        <pt x="173" y="494" on="1"/>
        <pt x="152" y="494" on="0"/>
        <pt x="128" y="524" on="0"/>
      </contour>
    </TTGlyph>
    <TTGlyph name="gdotaccent" xMin="24" yMin="-192" xMax="298" yMax="576">
      <component glyphName="g" x="0" y="0" flags="0x204"/>
      <component glyphName="dotaccent" x="-27" y="0" flags="0x4"/>
    </TTGlyph>
    <TTGlyph name="germandbls" xMin="33" yMin="-94" xMax="301" yMax="740">
      <contour>
        <pt x="211" y="212" on="1"/>
        <pt x="252" y="197" on="0"/>
        <pt x="301" y="127" on="0"/>
        <pt x="301" y="70" on="1"/>
        <pt x="301" y="29" on="0"/>
        <pt x="279" y="-32" on="0"/>
        <pt x="241" y="-73" on="0"/>
        <pt x="190" y="-94" on="0"/>
        <pt x="161" y="-94" on="1"/>
        <pt x="155" y="-94" on="0"/>
        <pt x="142" y="-93" on="0"/>
        <pt x="137" y="-92" on="1"/>
        <pt x="143" y="-34" on="1"/>
        <pt x="158" y="-34" on="1"/>
        <pt x="193" y="-34" on="0"/>
        <pt x="237" y="22" on="0"/>
        <pt x="237" y="70" on="1"/>
        <pt x="237" y="114" on="0"/>
        <pt x="189" y="164" on="0"/>
        <pt x="150" y="166" on="1"/>
        <pt x="147" y="166" on="1"/>
        <pt x="145" y="179" on="1"/>
        <pt x="223" y="386" on="1"/>
        <pt x="99" y="386" on="1"/>
        <pt x="99" y="0" on="1"/>
        <pt x="33" y="0" on="1"/>
        <pt x="33" y="598" on="1"/>
        <pt x="33" y="673" on="0"/>
        <pt x="88" y="740" on="0"/>
        <pt x="147" y="740" on="1"/>
        <pt x="162" y="740" on="0"/>
        <pt x="185" y="737" on="0"/>
        <pt x="191" y="735" on="1"/>
        <pt x="184" y="674" on="1"/>
        <pt x="177" y="676" on="0"/>
        <pt x="159" y="677" on="0"/>
        <pt x="152" y="677" on="1"/>
        <pt x="125" y="677" on="0"/>
        <pt x="99" y="648" on="0"/>
        <pt x="99" y="605" on="1"/>
        <pt x="99" y="446" on="1"/>
        <pt x="299" y="446" on="1"/>
        <pt x="301" y="434" on="1"/>
      </contour>
    </TTGlyph>
    <TTGlyph name="grave" xMin="121" yMin="491" xMax="288" yMax="620">
      <contour>
        <pt x="267" y="491" on="1"/>
        <pt x="121" y="560" on="1"/>
        <pt x="153" y="620" on="1"/>
        <pt x="288" y="523" on="1"/>
      </contour>
    </TTGlyph>
    <TTGlyph name="greater" xMin="28" yMin="128" xMax="233" yMax="615">
      <contour>
        <pt x="79" y="128" on="1"/>
        <pt x="28" y="166" on="1"/>
        <pt x="158" y="371" on="1"/>
        <pt x="28" y="577" on="1"/>
        <pt x="79" y="615" on="1"/>
        <pt x="233" y="371" on="1"/>
      </contour>
    </TTGlyph>
    <TTGlyph name="greater.lin" xMin="28" yMin="128" xMax="233" yMax="615">
      <component glyphName="greater" x="0" y="0" flags="0x204"/>
    </TTGlyph>
    <TTGlyph name="guillemotleft" xMin="19" yMin="60" xMax="250" yMax="387">
      <contour>
        <pt x="189" y="60" on="1"/>
        <pt x="126" y="224" on="1"/>
        <pt x="189" y="387" on="1"/>
        <pt x="250" y="387" on="1"/>
        <pt x="184" y="224" on="1"/>
        <pt x="250" y="60" on="1"/>
      </contour>
      <contour>
        <pt x="82" y="60" on="1"/>
        <pt x="19" y="224" on="1"/>
        <pt x="82" y="387" on="1"/>
        <pt x="142" y="387" on="1"/>
        <pt x="77" y="224" on="1"/>
        <pt x="142" y="60" on="1"/>
      </contour>
    </TTGlyph>
    <TTGlyph name="guillemotleft.cap" xMin="19" yMin="207" xMax="250" yMax="534">
      <component glyphName="guillemotleft" x="0" y="147" flags="0x204"/>
    </TTGlyph>
    <TTGlyph name="guillemotright" xMin="15" yMin="60" xMax="245" yMax="387">
      <contour>
        <pt x="182" y="60" on="1"/>
        <pt x="122" y="60" on="1"/>
        <pt x="188" y="224" on="1"/>
        <pt x="122" y="387" on="1"/>
        <pt x="182" y="387" on="1"/>
        <pt x="245" y="224" on="1"/>
      </contour>
      <contour>
        <pt x="75" y="60" on="1"/>
        <pt x="15" y="60" on="1"/>
        <pt x="80" y="224" on="1"/>
        <pt x="15" y="387" on="1"/>
        <pt x="75" y="387" on="1"/>
        <pt x="138" y="224" on="1"/>
      </contour>
    </TTGlyph>
    <TTGlyph name="guillemotright.cap" xMin="15" yMin="207" xMax="245" yMax="534">
      <component glyphName="guillemotright" x="0" y="147" flags="0x204"/>
    </TTGlyph>
    <TTGlyph name="guilsinglleft" xMin="19" yMin="60" xMax="142" yMax="387">
      <contour>
        <pt x="82" y="60" on="1"/>
        <pt x="19" y="224" on="1"/>
        <pt x="82" y="387" on="1"/>
        <pt x="142" y="387" on="1"/>
        <pt x="77" y="224" on="1"/>
        <pt x="142" y="60" on="1"/>
      </contour>
    </TTGlyph>
    <TTGlyph name="guilsinglleft.cap" xMin="19" yMin="207" xMax="142" yMax="534">
      <component glyphName="guilsinglleft" x="0" y="147" flags="0x204"/>
    </TTGlyph>
    <TTGlyph name="guilsinglright" xMin="16" yMin="60" xMax="140" yMax="387">
      <contour>
        <pt x="77" y="60" on="1"/>
        <pt x="16" y="60" on="1"/>
        <pt x="82" y="224" on="1"/>
        <pt x="16" y="387" on="1"/>
        <pt x="77" y="387" on="1"/>
        <pt x="140" y="224" on="1"/>
      </contour>
    </TTGlyph>
    <TTGlyph name="guilsinglright.cap" xMin="16" yMin="207" xMax="140" yMax="534">
      <component glyphName="guilsinglright" x="0" y="147" flags="0x204"/>
    </TTGlyph>
    <TTGlyph name="h" xMin="42" yMin="0" xMax="305" yMax="733">
      <contour>
        <pt x="237" y="0" on="1"/>
        <pt x="237" y="342" on="1"/>
        <pt x="237" y="397" on="0"/>
        <pt x="192" y="397" on="1"/>
        <pt x="167" y="397" on="0"/>
        <pt x="126" y="364" on="0"/>
        <pt x="110" y="336" on="1"/>
        <pt x="110" y="0" on="1"/>
        <pt x="42" y="0" on="1"/>
        <pt x="42" y="733" on="1"/>
        <pt x="110" y="733" on="1"/>
        <pt x="110" y="378" on="1"/>
        <pt x="131" y="413" on="0"/>
        <pt x="184" y="457" on="0"/>
        <pt x="219" y="457" on="1"/>
        <pt x="265" y="457" on="0"/>
        <pt x="305" y="392" on="0"/>
        <pt x="305" y="346" on="1"/>
        <pt x="305" y="0" on="1"/>
      </contour>
    </TTGlyph>
    <TTGlyph name="hbar" xMin="2" yMin="0" xMax="305" yMax="733">
      <contour>
        <pt x="237" y="0" on="1"/>
        <pt x="237" y="342" on="1"/>
        <pt x="237" y="397" on="0"/>
        <pt x="192" y="397" on="1"/>
        <pt x="167" y="397" on="0"/>
        <pt x="126" y="364" on="0"/>
        <pt x="110" y="336" on="1"/>
        <pt x="110" y="0" on="1"/>
        <pt x="42" y="0" on="1"/>
        <pt x="42" y="565" on="1"/>
        <pt x="2" y="565" on="1"/>
        <pt x="2" y="626" on="1"/>
        <pt x="42" y="626" on="1"/>
        <pt x="42" y="733" on="1"/>
        <pt x="110" y="733" on="1"/>
        <pt x="110" y="626" on="1"/>
        <pt x="200" y="626" on="1"/>
        <pt x="200" y="565" on="1"/>
        <pt x="110" y="565" on="1"/>
        <pt x="110" y="378" on="1"/>
        <pt x="131" y="413" on="0"/>
        <pt x="184" y="457" on="0"/>
        <pt x="219" y="457" on="1"/>
        <pt x="265" y="457" on="0"/>
        <pt x="305" y="392" on="0"/>
        <pt x="305" y="346" on="1"/>
        <pt x="305" y="0" on="1"/>
      </contour>
    </TTGlyph>
    <TTGlyph name="hcoslug" xMin="50" yMin="-100" xMax="644" yMax="700">
      <contour>
        <pt x="273" y="18" on="1"/>
        <pt x="275" y="40" on="0"/>
        <pt x="254" y="40" on="1"/>
        <pt x="245" y="40" on="0"/>
        <pt x="234" y="29" on="0"/>
        <pt x="234" y="19" on="1"/>
        <pt x="235" y="-1" on="0"/>
        <pt x="255" y="-1" on="1"/>
        <pt x="270" y="-1" on="0"/>
        <pt x="273" y="13" on="1"/>
        <pt x="266" y="13" on="1"/>
        <pt x="264" y="6" on="0"/>
        <pt x="257" y="6" on="1"/>
        <pt x="247" y="6" on="0"/>
        <pt x="247" y="18" on="1"/>
      </contour>
      <contour>
        <pt x="254" y="35" on="1"/>
        <pt x="261" y="35" on="0"/>
        <pt x="261" y="23" on="1"/>
        <pt x="247" y="23" on="1"/>
        <pt x="247" y="35" on="0"/>
      </contour>
      <contour>
        <pt x="195" y="78" on="1"/>
        <pt x="187" y="78" on="0"/>
        <pt x="187" y="94" on="1"/>
        <pt x="187" y="109" on="0"/>
        <pt x="195" y="109" on="1"/>
        <pt x="203" y="109" on="0"/>
        <pt x="203" y="94" on="1"/>
        <pt x="203" y="78" on="0"/>
      </contour>
      <contour>
        <pt x="210" y="4" on="1"/>
        <pt x="202" y="4" on="0"/>
        <pt x="202" y="20" on="1"/>
        <pt x="202" y="35" on="0"/>
        <pt x="210" y="35" on="1"/>
        <pt x="218" y="35" on="0"/>
        <pt x="218" y="20" on="1"/>
        <pt x="218" y="4" on="0"/>
      </contour>
      <contour>
        <pt x="210" y="-1" on="1"/>
        <pt x="219" y="-1" on="0"/>
        <pt x="231" y="11" on="0"/>
        <pt x="231" y="20" on="1"/>
        <pt x="231" y="29" on="0"/>
        <pt x="219" y="40" on="0"/>
        <pt x="210" y="40" on="1"/>
        <pt x="201" y="40" on="0"/>
        <pt x="189" y="29" on="0"/>
        <pt x="189" y="20" on="1"/>
        <pt x="189" y="10" on="0"/>
        <pt x="201" y="-1" on="0"/>
      </contour>
      <contour>
        <pt x="546" y="4" on="1"/>
        <pt x="538" y="4" on="0"/>
        <pt x="538" y="20" on="1"/>
        <pt x="538" y="35" on="0"/>
        <pt x="546" y="35" on="1"/>
        <pt x="554" y="35" on="0"/>
        <pt x="554" y="20" on="1"/>
        <pt x="554" y="4" on="0"/>
      </contour>
      <contour>
        <pt x="546" y="-1" on="1"/>
        <pt x="555" y="-1" on="0"/>
        <pt x="567" y="11" on="0"/>
        <pt x="567" y="20" on="1"/>
        <pt x="567" y="29" on="0"/>
        <pt x="555" y="40" on="0"/>
        <pt x="546" y="40" on="1"/>
        <pt x="537" y="40" on="0"/>
        <pt x="525" y="29" on="0"/>
        <pt x="525" y="20" on="1"/>
        <pt x="525" y="10" on="0"/>
        <pt x="537" y="-1" on="0"/>
      </contour>
      <contour>
        <pt x="125" y="74" on="1"/>
        <pt x="155" y="74" on="1"/>
        <pt x="155" y="81" on="1"/>
        <pt x="145" y="81" on="1"/>
        <pt x="145" y="97" on="1"/>
        <pt x="149" y="97" on="1"/>
        <pt x="154" y="97" on="0"/>
        <pt x="155" y="89" on="1"/>
        <pt x="162" y="89" on="1"/>
        <pt x="162" y="112" on="1"/>
        <pt x="155" y="112" on="1"/>
        <pt x="154" y="104" on="0"/>
        <pt x="149" y="104" on="1"/>
        <pt x="145" y="104" on="1"/>
        <pt x="145" y="122" on="1"/>
        <pt x="157" y="122" on="1"/>
        <pt x="162" y="122" on="0"/>
        <pt x="166" y="117" on="0"/>
        <pt x="168" y="109" on="1"/>
        <pt x="176" y="109" on="1"/>
        <pt x="176" y="129" on="1"/>
        <pt x="125" y="129" on="1"/>
        <pt x="125" y="122" on="1"/>
        <pt x="132" y="122" on="1"/>
        <pt x="132" y="81" on="1"/>
        <pt x="125" y="81" on="1"/>
      </contour>
      <contour>
        <pt x="195" y="73" on="1"/>
        <pt x="204" y="73" on="0"/>
        <pt x="216" y="85" on="0"/>
        <pt x="216" y="94" on="1"/>
        <pt x="216" y="103" on="0"/>
        <pt x="204" y="114" on="0"/>
        <pt x="195" y="114" on="1"/>
        <pt x="186" y="114" on="0"/>
        <pt x="174" y="103" on="0"/>
        <pt x="174" y="94" on="1"/>
        <pt x="174" y="84" on="0"/>
        <pt x="186" y="73" on="0"/>
      </contour>
      <contour>
        <pt x="644" y="-100" on="1"/>
        <pt x="50" y="-100" on="1"/>
        <pt x="50" y="700" on="1"/>
        <pt x="644" y="700" on="1"/>
      </contour>
      <contour>
        <pt x="498" y="-1" on="1"/>
        <pt x="520" y="-1" on="0"/>
        <pt x="522" y="22" on="1"/>
        <pt x="514" y="22" on="1"/>
        <pt x="512" y="6" on="0"/>
        <pt x="500" y="6" on="1"/>
        <pt x="484" y="6" on="0"/>
        <pt x="484" y="28" on="1"/>
        <pt x="484" y="50" on="0"/>
        <pt x="498" y="50" on="1"/>
        <pt x="508" y="50" on="0"/>
        <pt x="513" y="34" on="1"/>
        <pt x="521" y="34" on="1"/>
        <pt x="521" y="56" on="1"/>
        <pt x="513" y="56" on="1"/>
        <pt x="512" y="50" on="1"/>
        <pt x="505" y="57" on="0"/>
        <pt x="496" y="57" on="1"/>
        <pt x="485" y="57" on="0"/>
        <pt x="469" y="41" on="0"/>
        <pt x="469" y="27" on="1"/>
        <pt x="469" y="-1" on="0"/>
      </contour>
      <contour>
        <pt x="372" y="80" on="1"/>
        <pt x="364" y="80" on="0"/>
        <pt x="364" y="93" on="1"/>
        <pt x="364" y="106" on="0"/>
        <pt x="372" y="106" on="1"/>
        <pt x="379" y="106" on="0"/>
        <pt x="379" y="93" on="1"/>
        <pt x="379" y="80" on="0"/>
      </contour>
      <contour>
        <pt x="276" y="0" on="1"/>
        <pt x="299" y="0" on="1"/>
        <pt x="299" y="7" on="1"/>
        <pt x="294" y="7" on="1"/>
        <pt x="294" y="32" on="1"/>
        <pt x="308" y="32" on="1"/>
        <pt x="308" y="7" on="1"/>
        <pt x="303" y="7" on="1"/>
        <pt x="303" y="0" on="1"/>
        <pt x="326" y="0" on="1"/>
        <pt x="326" y="7" on="1"/>
        <pt x="320" y="7" on="1"/>
        <pt x="320" y="59" on="1"/>
        <pt x="310" y="57" on="1"/>
        <pt x="306" y="59" on="0"/>
        <pt x="301" y="59" on="1"/>
        <pt x="293" y="59" on="0"/>
        <pt x="282" y="50" on="0"/>
        <pt x="282" y="40" on="1"/>
        <pt x="282" y="39" on="1"/>
        <pt x="275" y="39" on="1"/>
        <pt x="275" y="32" on="1"/>
        <pt x="282" y="32" on="1"/>
        <pt x="282" y="7" on="1"/>
        <pt x="276" y="7" on="1"/>
      </contour>
      <contour>
        <pt x="368" y="0" on="1"/>
        <pt x="394" y="0" on="1"/>
        <pt x="394" y="7" on="1"/>
        <pt x="386" y="7" on="1"/>
        <pt x="386" y="23" on="1"/>
        <pt x="390" y="32" on="0"/>
        <pt x="393" y="32" on="1"/>
        <pt x="393" y="31" on="1"/>
        <pt x="393" y="25" on="0"/>
        <pt x="399" y="25" on="1"/>
        <pt x="406" y="25" on="0"/>
        <pt x="406" y="32" on="1"/>
        <pt x="406" y="40" on="0"/>
        <pt x="398" y="40" on="1"/>
        <pt x="390" y="40" on="0"/>
        <pt x="386" y="29" on="1"/>
        <pt x="386" y="39" on="1"/>
        <pt x="368" y="39" on="1"/>
        <pt x="368" y="32" on="1"/>
        <pt x="374" y="32" on="1"/>
        <pt x="374" y="7" on="1"/>
        <pt x="368" y="7" on="1"/>
      </contour>
      <contour>
        <pt x="352" y="73" on="1"/>
        <pt x="358" y="73" on="1"/>
        <pt x="362" y="81" on="1"/>
        <pt x="367" y="73" on="0"/>
        <pt x="376" y="73" on="1"/>
        <pt x="385" y="73" on="0"/>
        <pt x="392" y="87" on="0"/>
        <pt x="392" y="94" on="1"/>
        <pt x="392" y="114" on="0"/>
        <pt x="377" y="114" on="1"/>
        <pt x="367" y="114" on="0"/>
        <pt x="364" y="105" on="1"/>
        <pt x="364" y="132" on="1"/>
        <pt x="346" y="132" on="1"/>
        <pt x="346" y="125" on="1"/>
        <pt x="352" y="125" on="1"/>
      </contour>
      <contour>
        <pt x="400" y="75" on="1"/>
        <pt x="393" y="75" on="0"/>
        <pt x="393" y="68" on="1"/>
        <pt x="393" y="59" on="0"/>
        <pt x="404" y="59" on="1"/>
        <pt x="416" y="59" on="0"/>
        <pt x="422" y="75" on="1"/>
        <pt x="435" y="106" on="1"/>
        <pt x="440" y="106" on="1"/>
        <pt x="440" y="113" on="1"/>
        <pt x="423" y="113" on="1"/>
        <pt x="423" y="106" on="1"/>
        <pt x="428" y="106" on="1"/>
        <pt x="420" y="86" on="1"/>
        <pt x="411" y="106" on="1"/>
        <pt x="417" y="106" on="1"/>
        <pt x="417" y="113" on="1"/>
        <pt x="392" y="113" on="1"/>
        <pt x="392" y="106" on="1"/>
        <pt x="397" y="106" on="1"/>
        <pt x="399" y="101" on="0"/>
        <pt x="403" y="93" on="1"/>
        <pt x="406" y="87" on="0"/>
        <pt x="411" y="77" on="0"/>
        <pt x="413" y="73" on="1"/>
        <pt x="411" y="65" on="0"/>
        <pt x="405" y="65" on="1"/>
        <pt x="407" y="67" on="0"/>
        <pt x="405" y="75" on="0"/>
      </contour>
      <contour>
        <pt x="247" y="428" on="1"/>
        <pt x="247" y="441" on="0"/>
        <pt x="262" y="457" on="0"/>
        <pt x="274" y="457" on="1"/>
        <pt x="287" y="457" on="0"/>
        <pt x="303" y="436" on="0"/>
        <pt x="303" y="419" on="1"/>
        <pt x="303" y="406" on="0"/>
        <pt x="293" y="382" on="0"/>
        <pt x="285" y="369" on="1"/>
        <pt x="268" y="386" on="0"/>
        <pt x="247" y="411" on="0"/>
      </contour>
      <contour>
        <pt x="302" y="74" on="1"/>
        <pt x="309" y="74" on="1"/>
        <pt x="310" y="78" on="1"/>
        <pt x="312" y="76" on="0"/>
        <pt x="318" y="73" on="0"/>
        <pt x="323" y="73" on="1"/>
        <pt x="337" y="73" on="0"/>
        <pt x="337" y="86" on="1"/>
        <pt x="337" y="92" on="0"/>
        <pt x="329" y="97" on="0"/>
        <pt x="320" y="99" on="0"/>
        <pt x="313" y="101" on="0"/>
        <pt x="313" y="104" on="1"/>
        <pt x="313" y="108" on="0"/>
        <pt x="318" y="108" on="1"/>
        <pt x="323" y="108" on="0"/>
        <pt x="328" y="101" on="1"/>
        <pt x="335" y="101" on="1"/>
        <pt x="335" y="114" on="1"/>
        <pt x="329" y="114" on="1"/>
        <pt x="327" y="109" on="1"/>
        <pt x="324" y="114" on="0"/>
        <pt x="316" y="114" on="1"/>
        <pt x="309" y="114" on="0"/>
        <pt x="302" y="107" on="0"/>
        <pt x="302" y="102" on="1"/>
        <pt x="302" y="96" on="0"/>
        <pt x="309" y="91" on="0"/>
        <pt x="318" y="88" on="0"/>
        <pt x="326" y="86" on="0"/>
        <pt x="326" y="83" on="1"/>
        <pt x="326" y="79" on="0"/>
        <pt x="321" y="79" on="1"/>
        <pt x="315" y="79" on="0"/>
        <pt x="309" y="88" on="1"/>
        <pt x="302" y="88" on="1"/>
      </contour>
      <contour>
        <pt x="261" y="219" on="1"/>
        <pt x="238" y="219" on="0"/>
        <pt x="209" y="250" on="0"/>
        <pt x="209" y="273" on="1"/>
        <pt x="209" y="297" on="0"/>
        <pt x="225" y="313" on="1"/>
        <pt x="239" y="300" on="0"/>
        <pt x="278" y="257" on="0"/>
        <pt x="299" y="231" on="1"/>
        <pt x="284" y="219" on="0"/>
      </contour>
      <contour>
        <pt x="274" y="122" on="1"/>
        <pt x="274" y="113" on="1"/>
        <pt x="267" y="113" on="1"/>
        <pt x="267" y="106" on="1"/>
        <pt x="274" y="106" on="1"/>
        <pt x="274" y="86" on="1"/>
        <pt x="274" y="73" on="0"/>
        <pt x="286" y="73" on="1"/>
        <pt x="297" y="73" on="0"/>
        <pt x="300" y="86" on="1"/>
        <pt x="295" y="88" on="1"/>
        <pt x="294" y="81" on="0"/>
        <pt x="290" y="81" on="1"/>
        <pt x="286" y="81" on="0"/>
        <pt x="286" y="86" on="1"/>
        <pt x="286" y="106" on="1"/>
        <pt x="299" y="106" on="1"/>
        <pt x="299" y="113" on="1"/>
        <pt x="286" y="113" on="1"/>
        <pt x="286" y="124" on="1"/>
      </contour>
      <contour>
        <pt x="428" y="306" on="1"/>
        <pt x="435" y="295" on="0"/>
        <pt x="457" y="281" on="0"/>
        <pt x="471" y="281" on="1"/>
        <pt x="492" y="281" on="0"/>
        <pt x="521" y="312" on="0"/>
        <pt x="521" y="335" on="1"/>
        <pt x="521" y="358" on="0"/>
        <pt x="492" y="387" on="0"/>
        <pt x="471" y="387" on="1"/>
        <pt x="436" y="387" on="0"/>
        <pt x="411" y="349" on="1"/>
        <pt x="409" y="369" on="0"/>
        <pt x="382" y="387" on="0"/>
        <pt x="362" y="386" on="1"/>
        <pt x="371" y="401" on="0"/>
        <pt x="371" y="420" on="1"/>
        <pt x="371" y="433" on="0"/>
        <pt x="359" y="460" on="0"/>
        <pt x="335" y="481" on="0"/>
        <pt x="299" y="494" on="0"/>
        <pt x="276" y="494" on="1"/>
        <pt x="251" y="494" on="0"/>
        <pt x="211" y="480" on="0"/>
        <pt x="182" y="456" on="0"/>
        <pt x="167" y="425" on="0"/>
        <pt x="167" y="409" on="1"/>
        <pt x="167" y="387" on="0"/>
        <pt x="182" y="357" on="0"/>
        <pt x="198" y="340" on="1"/>
        <pt x="116" y="312" on="0"/>
        <pt x="116" y="249" on="1"/>
        <pt x="116" y="229" on="0"/>
        <pt x="133" y="195" on="0"/>
        <pt x="163" y="170" on="0"/>
        <pt x="202" y="156" on="0"/>
        <pt x="225" y="156" on="1"/>
        <pt x="288" y="156" on="0"/>
        <pt x="329" y="201" on="1"/>
        <pt x="354" y="175" on="0"/>
        <pt x="391" y="156" on="0"/>
        <pt x="414" y="156" on="1"/>
        <pt x="446" y="156" on="0"/>
        <pt x="492" y="206" on="0"/>
        <pt x="494" y="250" on="1"/>
        <pt x="487" y="252" on="1"/>
        <pt x="479" y="239" on="0"/>
        <pt x="460" y="223" on="0"/>
        <pt x="444" y="223" on="1"/>
        <pt x="429" y="223" on="0"/>
        <pt x="401" y="242" on="0"/>
        <pt x="382" y="264" on="1"/>
        <pt x="393" y="279" on="0"/>
        <pt x="417" y="299" on="0"/>
      </contour>
      <contour>
        <pt x="219" y="74" on="1"/>
        <pt x="241" y="74" on="1"/>
        <pt x="241" y="81" on="1"/>
        <pt x="237" y="81" on="1"/>
        <pt x="237" y="96" on="1"/>
        <pt x="237" y="106" on="0"/>
        <pt x="244" y="106" on="1"/>
        <pt x="250" y="106" on="0"/>
        <pt x="250" y="99" on="1"/>
        <pt x="250" y="81" on="1"/>
        <pt x="246" y="81" on="1"/>
        <pt x="246" y="74" on="1"/>
        <pt x="268" y="74" on="1"/>
        <pt x="268" y="81" on="1"/>
        <pt x="262" y="81" on="1"/>
        <pt x="262" y="100" on="1"/>
        <pt x="262" y="114" on="0"/>
        <pt x="250" y="114" on="1"/>
        <pt x="241" y="114" on="0"/>
        <pt x="236" y="103" on="1"/>
        <pt x="236" y="113" on="1"/>
        <pt x="219" y="113" on="1"/>
        <pt x="219" y="106" on="1"/>
        <pt x="225" y="106" on="1"/>
        <pt x="225" y="81" on="1"/>
        <pt x="219" y="81" on="1"/>
      </contour>
      <contour>
        <pt x="446" y="33" on="1"/>
        <pt x="446" y="26" on="1"/>
        <pt x="452" y="26" on="1"/>
        <pt x="450" y="21" on="0"/>
        <pt x="446" y="17" on="1"/>
        <pt x="443" y="20" on="0"/>
        <pt x="438" y="26" on="0"/>
        <pt x="434" y="30" on="1"/>
        <pt x="445" y="35" on="0"/>
        <pt x="445" y="42" on="1"/>
        <pt x="445" y="47" on="0"/>
        <pt x="438" y="54" on="0"/>
        <pt x="431" y="54" on="1"/>
        <pt x="423" y="54" on="0"/>
        <pt x="414" y="46" on="0"/>
        <pt x="414" y="40" on="1"/>
        <pt x="414" y="34" on="0"/>
        <pt x="420" y="28" on="1"/>
        <pt x="407" y="24" on="0"/>
        <pt x="407" y="13" on="1"/>
        <pt x="407" y="-1" on="0"/>
        <pt x="425" y="-1" on="1"/>
        <pt x="434" y="-1" on="0"/>
        <pt x="440" y="5" on="1"/>
        <pt x="445" y="-1" on="0"/>
        <pt x="452" y="-1" on="1"/>
        <pt x="462" y="-1" on="0"/>
        <pt x="465" y="11" on="1"/>
        <pt x="460" y="12" on="1"/>
        <pt x="459" y="7" on="0"/>
        <pt x="456" y="7" on="1"/>
        <pt x="453" y="7" on="0"/>
        <pt x="450" y="12" on="1"/>
        <pt x="453" y="15" on="0"/>
        <pt x="457" y="21" on="0"/>
        <pt x="459" y="26" on="1"/>
        <pt x="464" y="26" on="1"/>
        <pt x="464" y="33" on="1"/>
      </contour>
      <contour>
        <pt x="429" y="6" on="1"/>
        <pt x="419" y="6" on="0"/>
        <pt x="419" y="16" on="1"/>
        <pt x="419" y="21" on="0"/>
        <pt x="423" y="25" on="1"/>
        <pt x="427" y="21" on="0"/>
        <pt x="433" y="14" on="0"/>
        <pt x="437" y="9" on="1"/>
        <pt x="433" y="6" on="0"/>
      </contour>
      <contour>
        <pt x="294" y="42" on="1"/>
        <pt x="294" y="49" on="0"/>
        <pt x="297" y="54" on="0"/>
        <pt x="300" y="54" on="1"/>
        <pt x="302" y="54" on="0"/>
        <pt x="303" y="53" on="1"/>
        <pt x="302" y="51" on="0"/>
        <pt x="302" y="49" on="1"/>
        <pt x="302" y="44" on="0"/>
        <pt x="308" y="44" on="1"/>
        <pt x="308" y="39" on="1"/>
        <pt x="294" y="39" on="1"/>
      </contour>
      <contour>
        <pt x="425" y="43" on="1"/>
        <pt x="425" y="48" on="0"/>
        <pt x="430" y="48" on="1"/>
        <pt x="436" y="48" on="0"/>
        <pt x="436" y="42" on="1"/>
        <pt x="436" y="36" on="0"/>
        <pt x="431" y="33" on="1"/>
        <pt x="425" y="39" on="0"/>
      </contour>
      <contour>
        <pt x="312" y="342" on="1"/>
        <pt x="342" y="362" on="0"/>
        <pt x="354" y="376" on="1"/>
        <pt x="371" y="359" on="0"/>
        <pt x="367" y="321" on="0"/>
        <pt x="353" y="296" on="1"/>
        <pt x="343" y="307" on="0"/>
        <pt x="324" y="330" on="0"/>
      </contour>
      <contour>
        <pt x="366" y="18" on="1"/>
        <pt x="368" y="40" on="0"/>
        <pt x="347" y="40" on="1"/>
        <pt x="339" y="40" on="0"/>
        <pt x="327" y="28" on="0"/>
        <pt x="327" y="19" on="1"/>
        <pt x="327" y="-1" on="0"/>
        <pt x="348" y="-1" on="1"/>
        <pt x="362" y="-1" on="0"/>
        <pt x="366" y="13" on="1"/>
        <pt x="359" y="13" on="1"/>
        <pt x="358" y="6" on="0"/>
        <pt x="350" y="6" on="1"/>
        <pt x="340" y="6" on="0"/>
        <pt x="340" y="18" on="1"/>
      </contour>
      <contour>
        <pt x="347" y="35" on="1"/>
        <pt x="354" y="35" on="0"/>
        <pt x="354" y="23" on="1"/>
        <pt x="340" y="23" on="1"/>
        <pt x="340" y="35" on="0"/>
      </contour>
      <contour>
        <pt x="124" y="0" on="1"/>
        <pt x="153" y="0" on="1"/>
        <pt x="153" y="7" on="1"/>
        <pt x="145" y="7" on="1"/>
        <pt x="145" y="25" on="1"/>
        <pt x="167" y="25" on="1"/>
        <pt x="167" y="7" on="1"/>
        <pt x="159" y="7" on="1"/>
        <pt x="159" y="0" on="1"/>
        <pt x="188" y="0" on="1"/>
        <pt x="188" y="7" on="1"/>
        <pt x="180" y="7" on="1"/>
        <pt x="180" y="48" on="1"/>
        <pt x="188" y="48" on="1"/>
        <pt x="188" y="55" on="1"/>
        <pt x="159" y="55" on="1"/>
        <pt x="159" y="48" on="1"/>
        <pt x="167" y="48" on="1"/>
        <pt x="167" y="32" on="1"/>
        <pt x="145" y="32" on="1"/>
        <pt x="145" y="48" on="1"/>
        <pt x="153" y="48" on="1"/>
        <pt x="153" y="55" on="1"/>
        <pt x="124" y="55" on="1"/>
        <pt x="124" y="48" on="1"/>
        <pt x="132" y="48" on="1"/>
        <pt x="132" y="7" on="1"/>
        <pt x="124" y="7" on="1"/>
      </contour>
      <contour>
        <pt x="576" y="13" on="1"/>
        <pt x="569" y="13" on="0"/>
        <pt x="569" y="6" on="1"/>
        <pt x="569" y="-1" on="0"/>
        <pt x="576" y="-1" on="1"/>
        <pt x="583" y="-1" on="0"/>
        <pt x="583" y="6" on="1"/>
        <pt x="583" y="13" on="0"/>
      </contour>
    </TTGlyph>
    <TTGlyph name="hungarumlaut" xMin="104" yMin="497" xMax="323" yMax="657">
      <contour>
        <pt x="133" y="506" on="1"/>
        <pt x="104" y="525" on="1"/>
        <pt x="167" y="657" on="1"/>
        <pt x="219" y="624" on="1"/>
      </contour>
      <contour>
        <pt x="237" y="497" on="1"/>
        <pt x="208" y="515" on="1"/>
        <pt x="271" y="649" on="1"/>
        <pt x="323" y="615" on="1"/>
      </contour>
    </TTGlyph>
    <TTGlyph name="hyphen" xMin="29" yMin="236" xMax="177" yMax="300">
      <contour>
        <pt x="29" y="236" on="1"/>
        <pt x="29" y="300" on="1"/>
        <pt x="177" y="300" on="1"/>
        <pt x="177" y="236" on="1"/>
      </contour>
    </TTGlyph>
    <TTGlyph name="hyphen.cap" xMin="29" yMin="339" xMax="177" yMax="403">
      <component glyphName="hyphen" x="0" y="103" flags="0x204"/>
    </TTGlyph>
    <TTGlyph name="i" xMin="31" yMin="0" xMax="121" yMax="623">
      <contour>
        <pt x="121" y="574" on="1"/>
        <pt x="121" y="555" on="0"/>
        <pt x="96" y="525" on="0"/>
        <pt x="76" y="525" on="1"/>
        <pt x="56" y="525" on="0"/>
        <pt x="31" y="555" on="0"/>
        <pt x="31" y="574" on="1"/>
        <pt x="31" y="594" on="0"/>
        <pt x="56" y="623" on="0"/>
        <pt x="76" y="623" on="1"/>
        <pt x="96" y="623" on="0"/>
        <pt x="121" y="594" on="0"/>
      </contour>
      <contour>
        <pt x="42" y="0" on="1"/>
        <pt x="42" y="446" on="1"/>
        <pt x="110" y="446" on="1"/>
        <pt x="110" y="0" on="1"/>
      </contour>
    </TTGlyph>
    <TTGlyph name="i.dot" xMin="31" yMin="0" xMax="121" yMax="623">
      <contour>
        <pt x="121" y="574" on="1"/>
        <pt x="121" y="555" on="0"/>
        <pt x="96" y="525" on="0"/>
        <pt x="76" y="525" on="1"/>
        <pt x="56" y="525" on="0"/>
        <pt x="31" y="555" on="0"/>
        <pt x="31" y="574" on="1"/>
        <pt x="31" y="594" on="0"/>
        <pt x="56" y="623" on="0"/>
        <pt x="76" y="623" on="1"/>
        <pt x="96" y="623" on="0"/>
        <pt x="121" y="594" on="0"/>
      </contour>
      <contour>
        <pt x="42" y="0" on="1"/>
        <pt x="42" y="446" on="1"/>
        <pt x="110" y="446" on="1"/>
        <pt x="110" y="0" on="1"/>
      </contour>
    </TTGlyph>
    <TTGlyph name="iacute" xMin="35" yMin="0" xMax="202" yMax="620">
      <component glyphName="dotlessi" x="0" y="0" flags="0x204"/>
      <component glyphName="acute" x="-77" y="0" flags="0x4"/>
    </TTGlyph>
    <TTGlyph name="ibreve" xMin="-17" yMin="0" xMax="171" yMax="590">
      <component glyphName="dotlessi" x="0" y="0" flags="0x204"/>
      <component glyphName="breve" x="-123" y="0" flags="0x4"/>
    </TTGlyph>
</ttFont>
